%TF.GenerationSoftware,Altium Limited,Altium Designer,22.10.1 (41)*%
G04 Layer_Color=16711935*
%FSLAX44Y44*%
%MOMM*%
%TF.SameCoordinates,2DC90FC9-1629-497B-A590-D759EEAB8EEE*%
%TF.FilePolarity,Negative*%
%TF.FileFunction,Soldermask,Bot*%
%TF.Part,CustomerPanel*%
G01*
G75*
%TA.AperFunction,SMDPad,CuDef*%
%ADD87R,1.8032X1.2032*%
%ADD88R,1.2032X1.8032*%
%ADD89R,0.7532X1.3532*%
%ADD90R,0.5532X1.5832*%
%ADD91R,1.6282X1.7532*%
%ADD92R,1.8532X1.5032*%
%ADD93R,1.9332X1.1732*%
%ADD94R,1.5832X1.2532*%
%ADD95R,1.2532X1.5832*%
%ADD96R,0.8032X0.9032*%
%ADD97R,1.7000X1.1000*%
%ADD98R,0.8000X1.1000*%
%ADD99R,1.1000X1.7000*%
%ADD100R,0.9500X0.9500*%
%TA.AperFunction,WasherPad*%
%ADD101O,25.2032X2.7032*%
%ADD102O,2.7032X25.2032*%
%TA.AperFunction,ComponentPad*%
%ADD103C,2.2032*%
%ADD104R,2.2032X2.2032*%
%TA.AperFunction,ViaPad*%
%ADD105C,1.7272*%
%TA.AperFunction,ComponentPad*%
%ADD106R,2.2032X2.2032*%
%TA.AperFunction,ViaPad*%
%ADD107C,1.0032*%
%ADD108C,3.2032*%
%ADD109C,0.8032*%
%TA.AperFunction,ComponentPad*%
%ADD110C,1.7032*%
%TA.AperFunction,WasherPad*%
%ADD111C,3.2032*%
%TA.AperFunction,ComponentPad*%
%ADD112C,1.5612*%
%ADD113C,2.4032*%
G04:AMPARAMS|DCode=114|XSize=2.4032mm|YSize=2.4032mm|CornerRadius=0mm|HoleSize=0mm|Usage=FLASHONLY|Rotation=180.000|XOffset=0mm|YOffset=0mm|HoleType=Round|Shape=Octagon|*
%AMOCTAGOND114*
4,1,8,-1.2016,0.6008,-1.2016,-0.6008,-0.6008,-1.2016,0.6008,-1.2016,1.2016,-0.6008,1.2016,0.6008,0.6008,1.2016,-0.6008,1.2016,-1.2016,0.6008,0.0*
%
%ADD114OCTAGOND114*%

%ADD115C,2.0532*%
%ADD116R,2.0532X2.0532*%
%ADD117C,2.0032*%
%TA.AperFunction,WasherPad*%
%ADD118C,0.2032*%
%TA.AperFunction,ComponentPad*%
%ADD119C,2.1000*%
%ADD120R,2.1000X2.1000*%
G36*
X309250Y549499D02*
Y556499D01*
X303250D01*
Y549499D01*
X309250D01*
D02*
G37*
G36*
X299750Y569499D02*
Y576499D01*
X293750D01*
Y569499D01*
X299750D01*
D02*
G37*
G36*
X290250Y549499D02*
Y556499D01*
X284250D01*
Y549499D01*
X290250D01*
D02*
G37*
G36*
X273250Y549500D02*
Y556500D01*
X267250D01*
Y549500D01*
X273250D01*
D02*
G37*
G36*
X254250D02*
Y556500D01*
X248250D01*
Y549500D01*
X254250D01*
D02*
G37*
G36*
X263750Y569500D02*
Y576500D01*
X257750D01*
Y569500D01*
X263750D01*
D02*
G37*
G36*
X234250Y548500D02*
Y555500D01*
X228250D01*
Y548500D01*
X234250D01*
D02*
G37*
G36*
X215250D02*
Y555500D01*
X209250D01*
Y548500D01*
X215250D01*
D02*
G37*
G36*
X224750Y568500D02*
Y575500D01*
X218750D01*
Y568500D01*
X224750D01*
D02*
G37*
D87*
X1159000Y839500D02*
D03*
Y809500D02*
D03*
X1249000D02*
D03*
Y839500D02*
D03*
X1219000Y809500D02*
D03*
Y839500D02*
D03*
X1189000Y809500D02*
D03*
Y839500D02*
D03*
X237500Y877500D02*
D03*
Y847500D02*
D03*
X362500Y1025000D02*
D03*
Y995000D02*
D03*
X317620Y1025000D02*
D03*
Y995000D02*
D03*
X217620Y922500D02*
D03*
Y952500D02*
D03*
Y1027500D02*
D03*
Y997500D02*
D03*
X280120Y922500D02*
D03*
Y952500D02*
D03*
Y1027500D02*
D03*
Y997500D02*
D03*
X317620Y922500D02*
D03*
Y952500D02*
D03*
X350000Y902500D02*
D03*
Y872500D02*
D03*
X200000Y1212500D02*
D03*
Y1242500D02*
D03*
X325000Y1220000D02*
D03*
Y1250000D02*
D03*
X874500Y300000D02*
D03*
Y330000D02*
D03*
D88*
X1224000Y884500D02*
D03*
X1194000D02*
D03*
X1229000Y779500D02*
D03*
X1259000D02*
D03*
X347500Y975000D02*
D03*
X377500D02*
D03*
D89*
X350000Y927500D02*
D03*
X356500Y947500D02*
D03*
X343500D02*
D03*
D90*
X249500Y1235900D02*
D03*
X256000D02*
D03*
X262500D02*
D03*
X269000D02*
D03*
X275500D02*
D03*
D91*
X287375Y1236750D02*
D03*
X237625D02*
D03*
D92*
X228750Y1262500D02*
D03*
X296250D02*
D03*
D93*
X266750Y469200D02*
D03*
Y498800D02*
D03*
X333750Y469200D02*
D03*
Y498800D02*
D03*
X300750Y469200D02*
D03*
Y498800D02*
D03*
X224750Y496800D02*
D03*
Y467200D02*
D03*
X194750Y495800D02*
D03*
Y466200D02*
D03*
D94*
X278750Y285000D02*
D03*
Y302760D02*
D03*
X281350Y219780D02*
D03*
Y202020D02*
D03*
D95*
X349750Y219750D02*
D03*
X367510D02*
D03*
X349120Y285750D02*
D03*
X366880D02*
D03*
X239210Y290000D02*
D03*
X221450D02*
D03*
X366760Y258500D02*
D03*
X349000D02*
D03*
X286130Y255000D02*
D03*
X268370D02*
D03*
D96*
X296749Y572999D02*
D03*
X287250Y552999D02*
D03*
X306250D02*
D03*
X231250Y552000D02*
D03*
X212250D02*
D03*
X221750Y572000D02*
D03*
X260750Y573000D02*
D03*
X251250Y553000D02*
D03*
X270250D02*
D03*
D97*
X899542Y300000D02*
D03*
Y330000D02*
D03*
X924585Y300000D02*
D03*
Y330000D02*
D03*
X1109500Y220000D02*
D03*
Y250000D02*
D03*
X1139500Y220000D02*
D03*
Y250000D02*
D03*
X1149500Y365000D02*
D03*
Y395000D02*
D03*
X974500Y210000D02*
D03*
Y240000D02*
D03*
D98*
X874500Y400000D02*
D03*
X884000Y377000D02*
D03*
X865000Y376750D02*
D03*
X909000Y448250D02*
D03*
X918500Y425250D02*
D03*
X899500Y425000D02*
D03*
X949500Y486750D02*
D03*
X959000Y463750D02*
D03*
X940000Y463500D02*
D03*
D99*
X1024500Y175000D02*
D03*
X1054500D02*
D03*
X1024500Y200042D02*
D03*
X1054500D02*
D03*
X1024500Y225085D02*
D03*
X1054500D02*
D03*
X1024500Y255000D02*
D03*
X1054500D02*
D03*
X1024500Y285000D02*
D03*
X1054500D02*
D03*
D100*
X1531500Y325000D02*
D03*
X1517500D02*
D03*
X1381500D02*
D03*
X1367500D02*
D03*
X1238500D02*
D03*
X1224500D02*
D03*
D101*
X1204000Y1021000D02*
D03*
X1464000Y514000D02*
D03*
X1183000Y515000D02*
D03*
X913000D02*
D03*
X638000D02*
D03*
X62500Y737500D02*
D03*
X337500D02*
D03*
D102*
X1458000Y1209000D02*
D03*
X1613000Y387000D02*
D03*
X1612000Y120000D02*
D03*
X1457000Y942000D02*
D03*
X1456000Y675000D02*
D03*
X969000Y970000D02*
D03*
X970000Y1237000D02*
D03*
X973000Y668000D02*
D03*
X487500Y887500D02*
D03*
Y1212500D02*
D03*
Y587500D02*
D03*
Y312500D02*
D03*
Y37500D02*
D03*
D103*
X1313200Y604500D02*
D03*
X1338600D02*
D03*
X1287800D02*
D03*
X1262400D02*
D03*
X1304000Y949500D02*
D03*
X1269000D02*
D03*
X1079000Y694900D02*
D03*
Y669500D02*
D03*
Y720300D02*
D03*
X400000Y1087500D02*
D03*
Y1112900D02*
D03*
X263300Y812500D02*
D03*
X237900D02*
D03*
X288700D02*
D03*
X268020Y1125000D02*
D03*
X242620D02*
D03*
X293420D02*
D03*
X367250Y1275800D02*
D03*
Y1250400D02*
D03*
Y1199600D02*
D03*
Y1225000D02*
D03*
X137500Y1275800D02*
D03*
Y1250400D02*
D03*
Y1199600D02*
D03*
Y1225000D02*
D03*
X148750Y332900D02*
D03*
Y307500D02*
D03*
Y256700D02*
D03*
Y282100D02*
D03*
Y195599D02*
D03*
Y144799D02*
D03*
Y170199D02*
D03*
X606000Y894100D02*
D03*
Y919500D02*
D03*
X776000Y639500D02*
D03*
X750600D02*
D03*
X801400D02*
D03*
X826800D02*
D03*
X975600Y138250D02*
D03*
X1001000D02*
D03*
X1051800D02*
D03*
X1026400D02*
D03*
D104*
X1364000Y604500D02*
D03*
X212500Y812500D02*
D03*
X217220Y1125000D02*
D03*
X725200Y639500D02*
D03*
X1077200Y138250D02*
D03*
D105*
X1414000Y554500D02*
D03*
X1014000Y979500D02*
D03*
X1414000D02*
D03*
X1014000Y554500D02*
D03*
D106*
X1079000Y644100D02*
D03*
X400000Y1062100D02*
D03*
X367250Y1174200D02*
D03*
X137500D02*
D03*
X148750Y231300D02*
D03*
Y119399D02*
D03*
X606000Y944900D02*
D03*
D107*
X1099000Y734500D02*
D03*
X1064000Y579500D02*
D03*
X1089000Y604500D02*
D03*
X1039000D02*
D03*
X1389000Y904500D02*
D03*
X1339000D02*
D03*
Y953939D02*
D03*
X1389000Y954500D02*
D03*
X1089000D02*
D03*
Y904500D02*
D03*
X1039000D02*
D03*
Y954500D02*
D03*
X1189000Y794500D02*
D03*
X1210523Y854500D02*
D03*
X1239000Y859500D02*
D03*
X1226500Y932500D02*
D03*
X1139000Y924500D02*
D03*
X1174000Y662743D02*
D03*
X1189000Y764500D02*
D03*
D108*
X75000Y787500D02*
D03*
X437500D02*
D03*
Y1300000D02*
D03*
X75000D02*
D03*
D109*
X100000Y1237500D02*
D03*
Y1200000D02*
D03*
X412500Y1250000D02*
D03*
Y1212500D02*
D03*
Y1175000D02*
D03*
Y962500D02*
D03*
Y925000D02*
D03*
Y887500D02*
D03*
Y850000D02*
D03*
X125000Y825000D02*
D03*
X162500D02*
D03*
X100000Y1162500D02*
D03*
Y1125000D02*
D03*
X375000Y950000D02*
D03*
Y937500D02*
D03*
Y862500D02*
D03*
X187500Y1000000D02*
D03*
X250000Y975000D02*
D03*
X200000Y900000D02*
D03*
X312500Y850000D02*
D03*
X237500Y1212500D02*
D03*
X287500D02*
D03*
X262500Y887500D02*
D03*
X337500Y912500D02*
D03*
X175000Y975000D02*
D03*
X200000Y1050000D02*
D03*
X337500D02*
D03*
X300000Y1062500D02*
D03*
X275000D02*
D03*
X162500Y1112500D02*
D03*
X420000Y350000D02*
D03*
Y300000D02*
D03*
Y250000D02*
D03*
Y199590D02*
D03*
X596000Y719500D02*
D03*
X681000D02*
D03*
X596000Y809500D02*
D03*
X856140Y824500D02*
D03*
X781000Y899500D02*
D03*
X776000Y844500D02*
D03*
X686000Y829500D02*
D03*
X676000Y909500D02*
D03*
X939500Y280000D02*
D03*
X899500Y375000D02*
D03*
X939500Y270000D02*
D03*
X1074500Y185000D02*
D03*
X1039500Y220000D02*
D03*
X924500Y175000D02*
D03*
X1029500Y320000D02*
D03*
X999500Y260000D02*
D03*
X949500Y290000D02*
D03*
X1039500Y235000D02*
D03*
X989500Y200000D02*
D03*
X949500Y150000D02*
D03*
X979500Y490000D02*
D03*
X1099500Y270000D02*
D03*
X1489500Y130000D02*
D03*
Y230000D02*
D03*
X1419500Y130000D02*
D03*
Y230000D02*
D03*
X1269500Y130000D02*
D03*
Y230000D02*
D03*
X1079500Y420000D02*
D03*
X1119500Y360000D02*
D03*
D110*
X306250Y595000D02*
D03*
X281250D02*
D03*
X256250D02*
D03*
X231250D02*
D03*
X206250D02*
D03*
X181250D02*
D03*
X306250Y443000D02*
D03*
X281250D02*
D03*
X256250D02*
D03*
X231250D02*
D03*
X206250D02*
D03*
X181250D02*
D03*
D111*
X430000Y60000D02*
D03*
Y670000D02*
D03*
X50000D02*
D03*
Y60000D02*
D03*
D112*
X646000Y1119293D02*
D03*
X570000D02*
D03*
D113*
X611000Y629500D02*
D03*
D114*
X661000D02*
D03*
D115*
X826000Y1024100D02*
D03*
D116*
X775200D02*
D03*
D117*
X799500Y299600D02*
D03*
Y325000D02*
D03*
Y350400D02*
D03*
X699500Y299200D02*
D03*
Y324600D02*
D03*
Y350000D02*
D03*
Y150400D02*
D03*
Y125000D02*
D03*
Y99600D02*
D03*
X799500D02*
D03*
Y125000D02*
D03*
Y150400D02*
D03*
X1224500Y450400D02*
D03*
Y425000D02*
D03*
Y399600D02*
D03*
X599500Y350400D02*
D03*
Y325000D02*
D03*
Y299600D02*
D03*
Y250400D02*
D03*
Y225000D02*
D03*
Y199600D02*
D03*
Y150400D02*
D03*
Y125000D02*
D03*
Y99600D02*
D03*
X699500Y250400D02*
D03*
Y225000D02*
D03*
Y199600D02*
D03*
X799500Y250400D02*
D03*
Y225000D02*
D03*
Y199600D02*
D03*
D118*
X1549500Y50000D02*
D03*
X549500Y450000D02*
D03*
Y50000D02*
D03*
X1549500Y450000D02*
D03*
D119*
X1000600Y338250D02*
D03*
X1026000D02*
D03*
D120*
X1051400D02*
D03*
%TF.MD5,c027190e02bcda5a1dc109038494f51f*%
M02*
