%TF.GenerationSoftware,Altium Limited,Altium Designer,22.10.1 (41)*%
G04 Layer_Color=16711935*
%FSLAX44Y44*%
%MOMM*%
%TF.SameCoordinates,2DC90FC9-1629-497B-A590-D759EEAB8EEE*%
%TF.FilePolarity,Positive*%
%TF.FileFunction,Other,Mechanical_1*%
%TF.Part,CustomerPanel*%
G01*
G75*
%TA.AperFunction,NonConductor*%
%ADD80C,0.0500*%
%ADD161C,0.1000*%
%TA.AperFunction,OtherPad,Free Pad (124.4mm,82.45mm)*%
%ADD162C,0.5000*%
%TA.AperFunction,OtherPad,Free Pad (118.8mm,93.35mm)*%
%ADD163C,0.5000*%
%TA.AperFunction,OtherPad,Free Pad (110.9mm,75.25mm)*%
%ADD164C,0.5000*%
%TA.AperFunction,OtherPad,Free Pad (136.5mm,68.85mm)*%
%ADD165C,0.5000*%
%TA.AperFunction,NonConductor*%
%ADD166C,0.2540*%
D80*
X1089900Y125550D02*
X1064500D01*
Y150950D01*
X1089900Y125550D02*
Y150950D01*
X1058150Y125550D02*
X1064500Y131900D01*
X1058150Y125550D02*
X1045450D01*
X1039100Y131900D01*
Y144600D01*
X1045450Y150950D01*
X1058150D02*
X1045450D01*
X1064500Y144600D02*
X1058150Y150950D01*
X1089900D02*
X1064500D01*
X1039100Y144600D02*
X1032750Y150950D01*
X1020050D01*
X1013700Y144600D02*
X1020050Y150950D01*
X1013700Y131900D02*
Y144600D01*
X1020050Y125550D02*
X1013700Y131900D01*
X1032750Y125550D02*
X1020050D01*
X1032750D02*
X1039100Y131900D01*
X1007350Y125550D02*
X1013700Y131900D01*
X1007350Y125550D02*
X994650D01*
X988300Y131900D01*
Y144600D01*
X994650Y150950D01*
X1007350D02*
X994650D01*
X1013700Y144600D02*
X1007350Y150950D01*
X988300Y144600D02*
X981950Y150950D01*
X969250D01*
X962900Y144600D02*
X969250Y150950D01*
X962900Y131900D02*
Y144600D01*
X969250Y125550D02*
X962900Y131900D01*
X981950Y125550D02*
X969250D01*
X981950D02*
X988300Y131900D01*
X1006950Y325550D02*
X1013300Y331900D01*
X1006950Y325550D02*
X994250D01*
X987900Y331900D01*
Y344600D01*
X994250Y350950D01*
X1006950D02*
X994250D01*
X1013300Y344600D02*
X1006950Y350950D01*
X1064100D02*
X1038700D01*
Y344600D02*
X1032350Y350950D01*
X1019650D01*
X1013300Y344600D02*
X1019650Y350950D01*
X1013300Y331900D02*
Y344600D01*
X1019650Y325550D02*
X1013300Y331900D01*
X1032350Y325550D02*
X1019650D01*
X1032350D02*
X1038700Y331900D01*
X1064100Y325550D02*
Y350950D01*
X1038700Y325550D02*
Y350950D01*
X1064100Y325550D02*
X1038700D01*
D161*
X1317000Y949500D02*
G03*
X1317000Y949500I-13000J0D01*
G01*
X1282000D02*
G03*
X1282000Y949500I-13000J0D01*
G01*
X1249716Y738784D02*
Y830218D01*
X1158282Y738784D02*
X1249716D01*
X1158282D02*
Y830218D01*
X1249716D01*
X1151250Y840500D02*
X1166750D01*
X1151250Y808500D02*
X1166750D01*
X1151250D02*
Y840500D01*
X1166750Y808500D02*
Y840500D01*
X1184002Y929497D02*
Y959498D01*
X1214003D01*
Y929497D02*
Y959498D01*
X1184002Y929497D02*
X1214003D01*
X1308000Y771750D02*
X1340000D01*
X1308000Y787250D02*
X1340000D01*
Y771750D02*
Y787250D01*
X1308000Y771750D02*
Y787250D01*
X1226750Y868500D02*
Y900500D01*
X1211250Y868500D02*
Y900500D01*
X1226750D01*
X1211250Y868500D02*
X1226750D01*
X1113801Y747001D02*
Y812001D01*
X1044201D02*
X1113801D01*
X1044201Y747001D02*
Y812001D01*
Y747001D02*
X1113801D01*
X1280850Y663500D02*
Y695500D01*
X1296350Y663500D02*
Y695500D01*
X1280850Y663500D02*
X1296350D01*
X1280850Y695500D02*
X1296350D01*
X1268750Y591800D02*
X1275100Y598150D01*
X1256050Y591800D02*
X1268750D01*
X1249700Y598150D02*
X1256050Y591800D01*
X1249700Y598150D02*
Y610850D01*
X1256050Y617200D01*
X1268750D01*
X1275100Y610850D01*
X1294150Y617200D02*
X1300500Y610850D01*
X1281450Y617200D02*
X1294150D01*
X1275100Y610850D02*
X1281450Y617200D01*
X1275100Y598150D02*
Y610850D01*
Y598150D02*
X1281450Y591800D01*
X1294150D01*
X1300500Y598150D01*
X1319550Y591800D02*
X1325900Y598150D01*
X1306850Y591800D02*
X1319550D01*
X1300500Y598150D02*
X1306850Y591800D01*
X1300500Y598150D02*
Y610850D01*
X1306850Y617200D01*
X1319550D01*
X1325900Y610850D01*
X1351300Y617200D02*
X1376700D01*
X1344950D02*
X1351300Y610850D01*
X1332250Y617200D02*
X1344950D01*
X1325900Y610850D02*
X1332250Y617200D01*
X1325900Y598150D02*
Y610850D01*
Y598150D02*
X1332250Y591800D01*
X1344950D01*
X1351300Y598150D01*
X1376700Y591800D02*
Y617200D01*
X1351300Y591800D02*
Y617200D01*
Y591800D02*
X1376700D01*
X1166750Y868500D02*
Y900500D01*
X1151250Y868500D02*
Y900500D01*
X1166750D01*
X1151250Y868500D02*
X1166750D01*
X1197250D02*
Y900500D01*
X1181750Y868500D02*
Y900500D01*
X1197250D01*
X1181750Y868500D02*
X1197250D01*
X1193000Y892250D02*
X1225000D01*
X1193000Y876750D02*
X1225000D01*
Y892250D01*
X1193000Y876750D02*
Y892250D01*
X1326500Y915500D02*
Y983500D01*
X1246500Y915500D02*
Y983500D01*
X1326500D01*
X1246500Y915500D02*
X1326500D01*
X1295181Y940191D02*
X1312819Y958809D01*
X1260181Y940191D02*
X1277819Y958809D01*
X1286500Y915500D02*
Y983500D01*
X1306250Y695500D02*
X1321750D01*
X1306250Y663500D02*
X1321750D01*
Y695500D01*
X1306250Y663500D02*
Y695500D01*
X1085350Y707600D02*
X1091700Y713950D01*
Y726650D01*
X1085350Y733000D02*
X1091700Y726650D01*
X1072650Y733000D02*
X1085350D01*
X1066300Y726650D02*
X1072650Y733000D01*
X1066300Y713950D02*
Y726650D01*
Y713950D02*
X1072650Y707600D01*
X1066300Y688550D02*
X1072650Y682200D01*
X1066300Y688550D02*
Y701250D01*
X1072650Y707600D01*
X1085350D01*
X1091700Y701250D01*
Y688550D02*
Y701250D01*
X1085350Y682200D02*
X1091700Y688550D01*
Y631400D02*
Y656800D01*
X1085350D02*
X1091700Y663150D01*
Y675850D01*
X1085350Y682200D02*
X1091700Y675850D01*
X1072650Y682200D02*
X1085350D01*
X1066300Y675850D02*
X1072650Y682200D01*
X1066300Y663150D02*
Y675850D01*
Y663150D02*
X1072650Y656800D01*
X1066300Y631400D02*
X1091700D01*
X1066300Y656800D02*
X1091700D01*
X1066300Y631400D02*
Y656800D01*
X1228000Y771750D02*
X1260000D01*
X1228000Y787250D02*
X1260000D01*
X1228000Y771750D02*
Y787250D01*
X1260000Y771750D02*
Y787250D01*
X1256750Y808500D02*
Y840500D01*
X1241250Y808500D02*
Y840500D01*
Y808500D02*
X1256750D01*
X1241250Y840500D02*
X1256750D01*
X1226750Y808500D02*
Y840500D01*
X1211250Y808500D02*
Y840500D01*
Y808500D02*
X1226750D01*
X1211250Y840500D02*
X1226750D01*
X1196750Y808500D02*
Y840500D01*
X1181250Y808500D02*
Y840500D01*
Y808500D02*
X1196750D01*
X1181250Y840500D02*
X1196750D01*
X1206250Y695500D02*
X1221750D01*
X1206250Y663500D02*
X1221750D01*
Y695500D01*
X1206250Y663500D02*
Y695500D01*
X1083000Y831750D02*
X1115000D01*
X1083000Y847250D02*
X1115000D01*
Y831750D02*
Y847250D01*
X1083000Y831750D02*
Y847250D01*
X1340000Y741750D02*
Y757250D01*
X1308000Y741750D02*
Y757250D01*
Y741750D02*
X1340000D01*
X1308000Y757250D02*
X1340000D01*
X1113000Y722250D02*
X1145000D01*
X1113000Y706750D02*
X1145000D01*
X1113000D02*
Y722250D01*
X1145000Y706750D02*
Y722250D01*
X1143000Y631750D02*
X1175000D01*
X1143000Y647250D02*
X1175000D01*
Y631750D02*
Y647250D01*
X1143000Y631750D02*
Y647250D01*
X1151250Y924500D02*
X1166750D01*
X1151250Y956500D02*
X1166750D01*
X1151250Y924500D02*
Y956500D01*
X1166750Y924500D02*
Y956500D01*
X1256250Y695500D02*
X1271750D01*
X1256250Y663500D02*
X1271750D01*
Y695500D01*
X1256250Y663500D02*
Y695500D01*
X1340000Y801750D02*
Y817250D01*
X1308000Y801750D02*
Y817250D01*
Y801750D02*
X1340000D01*
X1308000Y817250D02*
X1340000D01*
X1338800Y692700D02*
X1369200D01*
X1338800Y666300D02*
Y692700D01*
Y666300D02*
X1369200D01*
Y692700D01*
X1231250Y695500D02*
X1246750D01*
X1231250Y663500D02*
X1246750D01*
Y695500D01*
X1231250Y663500D02*
Y695500D01*
X387300Y1074800D02*
Y1049400D01*
X412700Y1074800D02*
X387300D01*
X412700Y1049400D02*
X387300D01*
X393650Y1074800D02*
X387300Y1081150D01*
Y1093850D02*
Y1081150D01*
X393650Y1100200D02*
X387300Y1093850D01*
X406350Y1100200D02*
X393650D01*
X412700Y1093850D02*
X406350Y1100200D01*
X412700Y1093850D02*
Y1081150D01*
X406350Y1074800D01*
X412700D02*
Y1049400D01*
Y1106550D02*
X406350Y1100200D01*
X412700Y1119250D02*
Y1106550D01*
Y1119250D02*
X406350Y1125600D01*
X393650D01*
X387300Y1119250D01*
Y1106550D01*
X393650Y1100200D02*
X387300Y1106550D01*
X282350Y825200D02*
X276000Y818850D01*
X295050Y825200D02*
X282350D01*
X301400Y818850D02*
X295050Y825200D01*
X301400Y818850D02*
Y806150D01*
X295050Y799800D01*
X282350D01*
X276000Y806150D01*
X256950Y799800D02*
X250600Y806150D01*
X269650Y799800D02*
X256950D01*
X276000Y806150D02*
X269650Y799800D01*
X276000Y818850D02*
Y806150D01*
Y818850D02*
X269650Y825200D01*
X256950D01*
X250600Y818850D01*
X225200Y825200D02*
X199800D01*
X231550D02*
X225200Y818850D01*
X244250Y825200D02*
X231550D01*
X250600Y818850D02*
X244250Y825200D01*
X250600Y818850D02*
Y806150D01*
X244250Y799800D01*
X231550D01*
X225200Y806150D01*
X199800Y825200D02*
Y799800D01*
X225200Y825200D02*
Y799800D01*
X199800D01*
X287070Y1112300D02*
X280720Y1118650D01*
X299770Y1112300D02*
X287070D01*
X306120Y1118650D02*
X299770Y1112300D01*
X306120Y1131350D02*
Y1118650D01*
Y1131350D02*
X299770Y1137700D01*
X287070D01*
X280720Y1131350D01*
X261670Y1137700D02*
X255320Y1131350D01*
X274370Y1137700D02*
X261670D01*
X280720Y1131350D02*
X274370Y1137700D01*
X280720Y1131350D02*
Y1118650D01*
X274370Y1112300D01*
X261670D01*
X255320Y1118650D01*
X229920Y1112300D02*
X204520D01*
X236270D02*
X229920Y1118650D01*
X248970Y1112300D02*
X236270D01*
X255320Y1118650D02*
X248970Y1112300D01*
X255320Y1131350D02*
Y1118650D01*
Y1131350D02*
X248970Y1137700D01*
X236270D01*
X229920Y1131350D01*
X204520Y1137700D02*
Y1112300D01*
X229920Y1137700D02*
Y1112300D01*
Y1137700D02*
X204520D01*
X354550Y1186900D02*
Y1161500D01*
X379950Y1186900D02*
X354550D01*
X379950Y1161500D02*
X354550D01*
X360900Y1186900D02*
X354550Y1193250D01*
Y1205950D02*
Y1193250D01*
X360900Y1212300D02*
X354550Y1205950D01*
X373600Y1212300D02*
X360900D01*
X379950Y1205950D02*
X373600Y1212300D01*
X379950Y1205950D02*
Y1193250D01*
X373600Y1186900D01*
X379950D02*
Y1161500D01*
Y1218650D02*
X373600Y1212300D01*
X379950Y1231350D02*
Y1218650D01*
Y1231350D02*
X373600Y1237700D01*
X360900D01*
X354550Y1231350D01*
Y1218650D01*
X360900Y1212300D02*
X354550Y1218650D01*
X360900Y1237700D02*
X354550Y1244050D01*
Y1256750D02*
Y1244050D01*
X360900Y1263100D02*
X354550Y1256750D01*
X373600Y1263100D02*
X360900D01*
X379950Y1256750D02*
X373600Y1263100D01*
X379950Y1256750D02*
Y1244050D01*
X373600Y1237700D01*
X379950Y1269450D02*
X373600Y1263100D01*
X379950Y1282150D02*
Y1269450D01*
Y1282150D02*
X373600Y1288500D01*
X360900D01*
X354550Y1282150D01*
Y1269450D01*
X360900Y1263100D02*
X354550Y1269450D01*
X124800Y1186900D02*
Y1161500D01*
X150200Y1186900D02*
X124800D01*
X150200Y1161500D02*
X124800D01*
X131150Y1186900D02*
X124800Y1193250D01*
Y1205950D02*
Y1193250D01*
X131150Y1212300D02*
X124800Y1205950D01*
X143850Y1212300D02*
X131150D01*
X150200Y1205950D02*
X143850Y1212300D01*
X150200Y1205950D02*
Y1193250D01*
X143850Y1186900D01*
X150200D02*
Y1161500D01*
Y1218650D02*
X143850Y1212300D01*
X150200Y1231350D02*
Y1218650D01*
Y1231350D02*
X143850Y1237700D01*
X131150D01*
X124800Y1231350D01*
Y1218650D01*
X131150Y1212300D02*
X124800Y1218650D01*
X131150Y1237700D02*
X124800Y1244050D01*
Y1256750D02*
Y1244050D01*
X131150Y1263100D02*
X124800Y1256750D01*
X143850Y1263100D02*
X131150D01*
X150200Y1256750D02*
X143850Y1263100D01*
X150200Y1256750D02*
Y1244050D01*
X143850Y1237700D01*
X150200Y1269450D02*
X143850Y1263100D01*
X150200Y1282150D02*
Y1269450D01*
Y1282150D02*
X143850Y1288500D01*
X131150D01*
X124800Y1282150D01*
Y1269450D01*
X131150Y1263100D02*
X124800Y1269450D01*
X136050Y218600D02*
Y244000D01*
X161450D02*
X136050D01*
X161450Y218600D02*
X136050D01*
X142400Y244000D02*
X136050Y250350D01*
Y263050D01*
X142400Y269400D01*
X155100D02*
X142400D01*
X161450Y263050D02*
X155100Y269400D01*
X161450Y250350D02*
Y263050D01*
X155100Y244000D02*
X161450Y250350D01*
Y218600D02*
Y244000D01*
X155100Y269400D02*
X161450Y275750D01*
Y288450D01*
X155100Y294800D01*
X142400D01*
X136050Y288450D02*
X142400Y294800D01*
X136050Y275750D02*
Y288450D01*
X142400Y269400D02*
X136050Y275750D01*
X142400Y294800D02*
X136050Y301150D01*
Y313850D01*
X142400Y320200D01*
X155100D02*
X142400D01*
X161450Y313850D02*
X155100Y320200D01*
X161450Y301150D02*
Y313850D01*
X155100Y294800D02*
X161450Y301150D01*
X155100Y320200D02*
X161450Y326550D01*
Y339250D01*
X155100Y345600D01*
X142400D01*
X136050Y339250D02*
X142400Y345600D01*
X136050Y326550D02*
Y339250D01*
X142400Y320200D02*
X136050Y326550D01*
Y106699D02*
Y132099D01*
X161450D02*
X136050D01*
X161450Y106699D02*
X136050D01*
X142400Y132099D02*
X136050Y138449D01*
Y151149D01*
X142400Y157499D01*
X155100D02*
X142400D01*
X161450Y151149D02*
X155100Y157499D01*
X161450Y138449D02*
Y151149D01*
X155100Y132099D02*
X161450Y138449D01*
Y106699D02*
Y132099D01*
X155100Y157499D02*
X161450Y163849D01*
Y176549D01*
X155100Y182899D01*
X142400D01*
X136050Y176549D02*
X142400Y182899D01*
X136050Y163849D02*
Y176549D01*
X142400Y157499D02*
X136050Y163849D01*
X142400Y182899D02*
X136050Y189249D01*
Y201949D01*
X142400Y208299D01*
X155100D02*
X142400D01*
X161450Y201949D02*
X155100Y208299D01*
X161450Y189249D02*
Y201949D01*
X155100Y182899D02*
X161450Y189249D01*
X612350Y906800D02*
X618700Y900450D01*
Y887750D01*
X612350Y881400D01*
X599650D02*
X612350D01*
X593300Y887750D02*
X599650Y881400D01*
X593300Y900450D02*
Y887750D01*
X599650Y906800D02*
X593300Y900450D01*
Y957600D02*
Y932200D01*
X599650D02*
X593300Y925850D01*
Y913150D01*
X599650Y906800D01*
X612350D01*
X618700Y913150D02*
X612350Y906800D01*
X618700Y925850D02*
Y913150D01*
X612350Y932200D02*
X618700Y925850D01*
X593300Y957600D02*
X618700D01*
X593300Y932200D02*
X618700D01*
Y957600D02*
Y932200D01*
X585961Y583509D02*
X686036D01*
X585961Y677488D02*
X686036D01*
X598000Y648500D02*
X623000D01*
X649000D02*
X674000D01*
X585961Y677488D02*
Y583509D01*
X686036Y677488D02*
Y583509D01*
X598000Y677488D02*
Y648500D01*
X623000Y677500D02*
Y648500D01*
X649000Y677488D02*
Y648500D01*
X674000Y677488D02*
Y648500D01*
X820450Y652200D02*
X814100Y645850D01*
X820450Y652200D02*
X833150D01*
X839500Y645850D01*
Y633150D01*
X833150Y626800D01*
X820450D02*
X833150D01*
X814100Y633150D02*
X820450Y626800D01*
X788700Y633150D02*
X795050Y626800D01*
X807750D01*
X814100Y633150D02*
X807750Y626800D01*
X814100Y645850D02*
Y633150D01*
X807750Y652200D02*
X814100Y645850D01*
X795050Y652200D02*
X807750D01*
X795050D02*
X788700Y645850D01*
X769650Y652200D02*
X763300Y645850D01*
X769650Y652200D02*
X782350D01*
X788700Y645850D01*
Y633150D01*
X782350Y626800D01*
X769650D02*
X782350D01*
X763300Y633150D02*
X769650Y626800D01*
X712500D02*
X737900D01*
Y633150D02*
X744250Y626800D01*
X756950D01*
X763300Y633150D02*
X756950Y626800D01*
X763300Y645850D02*
Y633150D01*
X756950Y652200D02*
X763300Y645850D01*
X744250Y652200D02*
X756950D01*
X744250D02*
X737900Y645850D01*
X712500Y652200D02*
Y626800D01*
X737900Y652200D02*
Y626800D01*
X712500Y652200D02*
X737900D01*
D162*
X1244000Y824500D02*
D03*
D163*
X1188000Y933500D02*
D03*
D164*
X1109000Y752500D02*
D03*
D165*
X1365000Y688500D02*
D03*
D166*
X989000Y1004500D02*
X989000Y529500D01*
X1314000D02*
X1401500D01*
X1426500D02*
X1439000D01*
X1439000Y1004500D02*
X1439000Y529500D01*
X1401500D02*
X1426500D01*
X989000D02*
X1064000D01*
X1314000D01*
X2339000Y1267000D02*
X2339000Y1267000D01*
X989000Y1004500D02*
X1439000D01*
X956000Y1239500D02*
Y529500D01*
Y1239500D02*
X506000Y1239500D01*
Y529500D01*
X956000Y529500D02*
X506000Y529500D01*
%TF.MD5,c9516bddee6862e70d7bb676f69032da*%
M02*
