%TF.GenerationSoftware,Altium Limited,Altium Designer,22.10.1 (41)*%
G04 Layer_Physical_Order=2*
G04 Layer_Color=16711680*
%FSLAX44Y44*%
%MOMM*%
%TF.SameCoordinates,2DC90FC9-1629-497B-A590-D759EEAB8EEE*%
%TF.FilePolarity,Positive*%
%TF.FileFunction,Copper,L2,Bot,Signal*%
%TF.Part,CustomerPanel*%
G01*
G75*
%TA.AperFunction,SMDPad,CuDef*%
%ADD14R,1.0000X1.6000*%
%ADD15R,1.6000X1.0000*%
%TA.AperFunction,Conductor*%
%ADD19C,0.3000*%
%ADD25C,0.2000*%
%TA.AperFunction,SMDPad,CuDef*%
%ADD28R,1.3800X1.0500*%
%ADD29R,1.7300X0.9700*%
%ADD33R,1.0500X1.3800*%
%ADD35R,0.6000X0.7000*%
%TA.AperFunction,Conductor*%
%ADD37C,0.2540*%
%TA.AperFunction,WasherPad*%
%ADD63O,25.0000X2.5000*%
%ADD64O,2.5000X25.0000*%
%TA.AperFunction,ComponentPad*%
%ADD65C,2.0000*%
%ADD66R,2.0000X2.0000*%
%TA.AperFunction,ViaPad*%
%ADD67C,1.5240*%
%TA.AperFunction,ComponentPad*%
%ADD68R,2.0000X2.0000*%
%TA.AperFunction,ViaPad*%
%ADD69C,0.8000*%
%ADD70C,3.0000*%
%ADD71C,0.6000*%
%TA.AperFunction,ComponentPad*%
%ADD72C,1.5000*%
%TA.AperFunction,WasherPad*%
%ADD73C,3.0000*%
%TA.AperFunction,ComponentPad*%
%ADD74C,1.3580*%
%ADD75C,2.2000*%
G04:AMPARAMS|DCode=76|XSize=2.2mm|YSize=2.2mm|CornerRadius=0mm|HoleSize=0mm|Usage=FLASHONLY|Rotation=180.000|XOffset=0mm|YOffset=0mm|HoleType=Round|Shape=Octagon|*
%AMOCTAGOND76*
4,1,8,-1.1000,0.5500,-1.1000,-0.5500,-0.5500,-1.1000,0.5500,-1.1000,1.1000,-0.5500,1.1000,0.5500,0.5500,1.1000,-0.5500,1.1000,-1.1000,0.5500,0.0*
%
%ADD76OCTAGOND76*%

%ADD77C,1.8500*%
%ADD78R,1.8500X1.8500*%
%ADD79C,1.8000*%
%TA.AperFunction,NonConductor*%
%ADD80C,0.0500*%
%TA.AperFunction,SMDPad,CuDef*%
%ADD81R,0.5500X1.1500*%
%ADD82R,0.3500X1.3800*%
%ADD83R,1.4250X1.5500*%
%ADD84R,1.6500X1.3000*%
%ADD85R,0.7000X1.0000*%
%ADD86R,0.8500X0.8500*%
G36*
X421000Y1298375D02*
X421634Y1295187D01*
X422878Y1292184D01*
X424684Y1289482D01*
X426982Y1287184D01*
X429684Y1285378D01*
X432687Y1284134D01*
X435875Y1283500D01*
X437500D01*
Y804000D01*
X435875D01*
X432687Y803366D01*
X429684Y802122D01*
X426982Y800316D01*
X424684Y798018D01*
X422878Y795316D01*
X421634Y792313D01*
X421000Y789125D01*
Y787500D01*
X91500D01*
Y789125D01*
X90866Y792313D01*
X89622Y795316D01*
X87816Y798018D01*
X85518Y800316D01*
X82816Y802122D01*
X79813Y803366D01*
X76625Y804000D01*
X75000D01*
Y1283500D01*
X76625D01*
X79813Y1284134D01*
X82816Y1285378D01*
X85518Y1287184D01*
X87816Y1289482D01*
X89622Y1292184D01*
X90866Y1295187D01*
X91500Y1298375D01*
Y1300000D01*
X421000D01*
Y1298375D01*
D02*
G37*
G36*
X906000Y579500D02*
X556000D01*
Y1189500D01*
X906000D01*
Y579500D01*
D02*
G37*
G36*
X1396500Y977776D02*
X1397173Y974395D01*
X1398492Y971211D01*
X1400407Y968344D01*
X1402844Y965907D01*
X1405711Y963992D01*
X1408895Y962673D01*
X1412276Y962000D01*
X1414000D01*
Y572000D01*
X1412276D01*
X1408895Y571328D01*
X1405711Y570008D01*
X1402844Y568093D01*
X1400407Y565656D01*
X1398492Y562789D01*
X1397173Y559605D01*
X1396500Y556224D01*
Y554500D01*
X1031500D01*
Y556224D01*
X1030827Y559605D01*
X1029508Y562789D01*
X1027593Y565656D01*
X1025156Y568093D01*
X1022289Y570008D01*
X1019105Y571328D01*
X1015724Y572000D01*
X1014000D01*
Y962000D01*
X1015724D01*
X1019105Y962673D01*
X1022289Y963992D01*
X1025156Y965907D01*
X1027593Y968344D01*
X1029508Y971211D01*
X1030827Y974395D01*
X1031500Y977776D01*
Y979500D01*
X1396500D01*
Y977776D01*
D02*
G37*
G36*
X1574500Y25000D02*
X524500D01*
X524500Y475000D01*
X743282D01*
X744047Y473152D01*
X604549Y333653D01*
X603402Y334420D01*
X599500Y335196D01*
X595598Y334420D01*
X592290Y332210D01*
X590080Y328902D01*
X589304Y325000D01*
X589860Y322207D01*
X567698Y300045D01*
X567145Y299218D01*
X566951Y298243D01*
Y255000D01*
X567145Y254025D01*
X567698Y253197D01*
X590846Y230049D01*
X590080Y228902D01*
X589304Y225000D01*
X590080Y221098D01*
X590846Y219951D01*
X567698Y196802D01*
X567145Y195975D01*
X566951Y195000D01*
Y155000D01*
X567145Y154024D01*
X567698Y153198D01*
X590846Y130049D01*
X590080Y128902D01*
X589304Y125000D01*
X590080Y121098D01*
X592290Y117790D01*
X595598Y115580D01*
X599500Y114804D01*
X603402Y115580D01*
X606710Y117790D01*
X608920Y121098D01*
X609696Y125000D01*
X608920Y128902D01*
X606710Y132210D01*
X603402Y134420D01*
X599500Y135196D01*
X595598Y134420D01*
X594451Y133653D01*
X572049Y156056D01*
Y193944D01*
X594451Y216346D01*
X595598Y215580D01*
X599500Y214804D01*
X603402Y215580D01*
X606710Y217790D01*
X608920Y221098D01*
X609696Y225000D01*
X608920Y228902D01*
X606710Y232209D01*
X603402Y234420D01*
X599500Y235196D01*
X595598Y234420D01*
X594451Y233653D01*
X572049Y256056D01*
Y297187D01*
X592508Y317645D01*
X595598Y315580D01*
X599500Y314804D01*
X603402Y315580D01*
X606710Y317790D01*
X608920Y321098D01*
X609696Y325000D01*
X608920Y328902D01*
X608153Y330049D01*
X753105Y475000D01*
X948282D01*
X949047Y473152D01*
X945444Y469549D01*
X942000D01*
X941754Y469500D01*
X935500D01*
Y461105D01*
X905444Y431049D01*
X901500D01*
X901254Y431000D01*
X895000D01*
Y419000D01*
X896951D01*
Y411056D01*
X881000Y395105D01*
X879000Y395933D01*
Y406000D01*
X870000D01*
Y402549D01*
X849500D01*
X848524Y402355D01*
X847698Y401802D01*
X827698Y381802D01*
X827145Y380975D01*
X826951Y380000D01*
Y356056D01*
X804549Y333653D01*
X803402Y334420D01*
X799500Y335196D01*
X795598Y334420D01*
X792290Y332210D01*
X790080Y328902D01*
X789304Y325000D01*
X790080Y321098D01*
X790846Y319951D01*
X767698Y296802D01*
X767145Y295975D01*
X766951Y295000D01*
Y255000D01*
X767145Y254025D01*
X767698Y253197D01*
X790846Y230049D01*
X790080Y228902D01*
X789304Y225000D01*
X789860Y222207D01*
X767698Y200045D01*
X767145Y199218D01*
X766951Y198243D01*
Y155000D01*
X767145Y154024D01*
X767698Y153198D01*
X790846Y130049D01*
X790080Y128902D01*
X789304Y125000D01*
X790080Y121098D01*
X792290Y117790D01*
X795598Y115580D01*
X799500Y114804D01*
X803402Y115580D01*
X806710Y117790D01*
X808920Y121098D01*
X809696Y125000D01*
X808920Y128902D01*
X806710Y132210D01*
X803402Y134420D01*
X799500Y135196D01*
X795598Y134420D01*
X794451Y133653D01*
X772049Y156056D01*
Y197187D01*
X792507Y217645D01*
X795598Y215580D01*
X799500Y214804D01*
X803402Y215580D01*
X806710Y217790D01*
X808920Y221098D01*
X809696Y225000D01*
X808920Y228902D01*
X806710Y232209D01*
X803402Y234420D01*
X799500Y235196D01*
X795598Y234420D01*
X794451Y233653D01*
X772049Y256056D01*
Y293944D01*
X794451Y316346D01*
X795598Y315580D01*
X799500Y314804D01*
X803402Y315580D01*
X806710Y317790D01*
X808920Y321098D01*
X809696Y325000D01*
X808920Y328902D01*
X808153Y330049D01*
X831302Y353198D01*
X831855Y354025D01*
X832049Y355000D01*
Y378944D01*
X850556Y397451D01*
X870000D01*
Y394000D01*
X877067D01*
X877895Y392000D01*
X868645Y382750D01*
X860500D01*
Y370750D01*
X869500D01*
Y377451D01*
X870475Y377645D01*
X871302Y378198D01*
X895103Y401998D01*
X896951Y401233D01*
Y378108D01*
X896616Y377884D01*
X895732Y376561D01*
X895422Y375000D01*
X895732Y373439D01*
X896616Y372116D01*
X897939Y371232D01*
X899500Y370922D01*
X901061Y371232D01*
X902384Y372116D01*
X903268Y373439D01*
X903578Y375000D01*
X903268Y376561D01*
X902384Y377884D01*
X902049Y378108D01*
Y419000D01*
X904000D01*
Y425951D01*
X906500D01*
X907476Y426145D01*
X908302Y426698D01*
X912000Y430395D01*
X914000Y429567D01*
Y419250D01*
X915951D01*
Y380056D01*
X897698Y361802D01*
X897145Y360975D01*
X896951Y360000D01*
Y336000D01*
X890543D01*
Y324000D01*
X908542D01*
Y336000D01*
X902049D01*
Y358944D01*
X920302Y377198D01*
X920855Y378024D01*
X921049Y379000D01*
Y419250D01*
X923000D01*
Y431250D01*
X915683D01*
X914855Y433250D01*
X939105Y457500D01*
X944500D01*
Y464451D01*
X946500D01*
X947475Y464645D01*
X948302Y465198D01*
X952500Y469395D01*
X954500Y468567D01*
X954500Y468320D01*
X954500Y468320D01*
X954500Y468240D01*
Y457750D01*
X956451D01*
Y390556D01*
X922783Y356887D01*
X922230Y356060D01*
X922036Y355085D01*
Y336000D01*
X915585D01*
Y324000D01*
X933585D01*
Y336000D01*
X927134D01*
Y354029D01*
X960802Y387698D01*
X961355Y388525D01*
X961549Y389500D01*
Y457750D01*
X963500D01*
Y469750D01*
X956010Y469750D01*
X955930D01*
X955683Y469750D01*
X955509Y470171D01*
X954855Y471750D01*
X958105Y475000D01*
X1574500D01*
X1574500Y25000D01*
D02*
G37*
G36*
X459250Y34709D02*
X458291Y33750D01*
X20000D01*
X19500Y33957D01*
X19250Y697352D01*
X20148Y698250D01*
X459250D01*
Y34709D01*
D02*
G37*
%LPC*%
G36*
X368764Y1287300D02*
X365736D01*
X362811Y1286516D01*
X360189Y1285002D01*
X358048Y1282861D01*
X356534Y1280239D01*
X355750Y1277314D01*
Y1274286D01*
X356534Y1271361D01*
X358048Y1268739D01*
X360189Y1266598D01*
X362811Y1265084D01*
X365736Y1264300D01*
X368764D01*
X371689Y1265084D01*
X374311Y1266598D01*
X376452Y1268739D01*
X377966Y1271361D01*
X378750Y1274286D01*
Y1277314D01*
X377966Y1280239D01*
X376452Y1282861D01*
X374311Y1285002D01*
X371689Y1286516D01*
X368764Y1287300D01*
D02*
G37*
G36*
X139014D02*
X135986D01*
X133061Y1286516D01*
X130439Y1285002D01*
X128298Y1282861D01*
X126784Y1280239D01*
X126000Y1277314D01*
Y1274286D01*
X126784Y1271361D01*
X128298Y1268739D01*
X130439Y1266598D01*
X133061Y1265084D01*
X135986Y1264300D01*
X139014D01*
X141939Y1265084D01*
X144561Y1266598D01*
X146702Y1268739D01*
X148216Y1271361D01*
X149000Y1274286D01*
Y1277314D01*
X148216Y1280239D01*
X146702Y1282861D01*
X144561Y1285002D01*
X141939Y1286516D01*
X139014Y1287300D01*
D02*
G37*
G36*
X306000Y1270500D02*
X286500D01*
Y1254500D01*
X306000D01*
Y1270500D01*
D02*
G37*
G36*
X238500D02*
X219000D01*
Y1254500D01*
X238500D01*
Y1270500D01*
D02*
G37*
G36*
X413770Y1255470D02*
Y1251270D01*
X417970D01*
X417197Y1253138D01*
X415638Y1254697D01*
X413770Y1255470D01*
D02*
G37*
G36*
X411230D02*
X409362Y1254697D01*
X407803Y1253138D01*
X407030Y1251270D01*
X411230D01*
Y1255470D01*
D02*
G37*
G36*
X335540Y1257540D02*
X326270D01*
Y1251270D01*
X335540D01*
Y1257540D01*
D02*
G37*
G36*
X323730D02*
X314460D01*
Y1251270D01*
X323730D01*
Y1257540D01*
D02*
G37*
G36*
X417970Y1248730D02*
X413770D01*
Y1244530D01*
X415638Y1245303D01*
X417197Y1246862D01*
X417970Y1248730D01*
D02*
G37*
G36*
X411230D02*
X407030D01*
X407803Y1246862D01*
X409362Y1245303D01*
X411230Y1244530D01*
Y1248730D01*
D02*
G37*
G36*
X210540Y1250040D02*
X201270D01*
Y1243770D01*
X210540D01*
Y1250040D01*
D02*
G37*
G36*
X198730D02*
X189460D01*
Y1243770D01*
X198730D01*
Y1250040D01*
D02*
G37*
G36*
X335540Y1248730D02*
X326270D01*
Y1242460D01*
X335540D01*
Y1248730D01*
D02*
G37*
G36*
X323730D02*
X314460D01*
Y1242460D01*
X323730D01*
Y1248730D01*
D02*
G37*
G36*
X368764Y1261900D02*
X365736D01*
X362811Y1261116D01*
X360189Y1259602D01*
X358048Y1257461D01*
X356534Y1254839D01*
X355750Y1251914D01*
Y1248886D01*
X356534Y1245961D01*
X358048Y1243339D01*
X360189Y1241198D01*
X362811Y1239684D01*
X365736Y1238900D01*
X368764D01*
X371689Y1239684D01*
X374311Y1241198D01*
X376452Y1243339D01*
X377966Y1245961D01*
X378750Y1248886D01*
Y1251914D01*
X377966Y1254839D01*
X376452Y1257461D01*
X374311Y1259602D01*
X371689Y1261116D01*
X368764Y1261900D01*
D02*
G37*
G36*
X139014D02*
X135986D01*
X133061Y1261116D01*
X130439Y1259602D01*
X128298Y1257461D01*
X126784Y1254839D01*
X126000Y1251914D01*
Y1248886D01*
X126784Y1245961D01*
X128298Y1243339D01*
X130439Y1241198D01*
X133061Y1239684D01*
X135986Y1238900D01*
X139014D01*
X141939Y1239684D01*
X144561Y1241198D01*
X146702Y1243339D01*
X148216Y1245961D01*
X149000Y1248886D01*
Y1251914D01*
X148216Y1254839D01*
X146702Y1257461D01*
X144561Y1259602D01*
X141939Y1261116D01*
X139014Y1261900D01*
D02*
G37*
G36*
X101270Y1242970D02*
Y1238770D01*
X105470D01*
X104697Y1240638D01*
X103138Y1242197D01*
X101270Y1242970D01*
D02*
G37*
G36*
X98730D02*
X96862Y1242197D01*
X95303Y1240638D01*
X94530Y1238770D01*
X98730D01*
Y1242970D01*
D02*
G37*
G36*
X210540Y1241230D02*
X201270D01*
Y1234960D01*
X210540D01*
Y1241230D01*
D02*
G37*
G36*
X198730D02*
X189460D01*
Y1234960D01*
X198730D01*
Y1241230D01*
D02*
G37*
G36*
X105470Y1236230D02*
X101270D01*
Y1232030D01*
X103138Y1232803D01*
X104697Y1234362D01*
X105470Y1236230D01*
D02*
G37*
G36*
X98730D02*
X94530D01*
X95303Y1234362D01*
X96862Y1232803D01*
X98730Y1232030D01*
Y1236230D01*
D02*
G37*
G36*
X296000Y1246000D02*
X278750D01*
Y1245340D01*
X276770D01*
Y1235900D01*
Y1226460D01*
X279790D01*
Y1227500D01*
X296000D01*
Y1246000D01*
D02*
G37*
G36*
X246250D02*
X229000D01*
Y1227500D01*
X244980D01*
X246250Y1227500D01*
X246441Y1226309D01*
Y1225500D01*
X246674Y1224330D01*
X247337Y1223337D01*
X260337Y1210337D01*
X261329Y1209674D01*
X262500Y1209441D01*
X262500Y1209441D01*
X284195D01*
X284951Y1208685D01*
X286605Y1208000D01*
X288395D01*
X290049Y1208685D01*
X290805Y1209441D01*
X300000D01*
X301171Y1209674D01*
X302163Y1210337D01*
X302163Y1210337D01*
X308767Y1216941D01*
X315500D01*
Y1213500D01*
X334500D01*
Y1226500D01*
X315500D01*
Y1223059D01*
X307500D01*
X307500Y1223059D01*
X306329Y1222826D01*
X305337Y1222163D01*
X298733Y1215559D01*
X290805D01*
X290049Y1216315D01*
X288395Y1217000D01*
X286605D01*
X284951Y1216315D01*
X284195Y1215559D01*
X263767D01*
X253096Y1226230D01*
X253622Y1227500D01*
X254020Y1227500D01*
X259250Y1227500D01*
X260520Y1227500D01*
X265750Y1227500D01*
X267020Y1227500D01*
X271210D01*
Y1226460D01*
X274230D01*
Y1235900D01*
Y1245340D01*
X271210D01*
Y1244300D01*
X265750Y1244300D01*
X264480Y1244300D01*
X259250Y1244300D01*
X257980Y1244300D01*
X252750Y1244300D01*
X251480Y1244300D01*
X246250Y1244300D01*
X246250Y1245570D01*
Y1246000D01*
D02*
G37*
G36*
X139151Y1237540D02*
X138770D01*
Y1226270D01*
X150040D01*
Y1226651D01*
X149185Y1229840D01*
X147535Y1232700D01*
X145200Y1235034D01*
X142340Y1236685D01*
X139151Y1237540D01*
D02*
G37*
G36*
X136230D02*
X135849D01*
X132660Y1236685D01*
X129800Y1235034D01*
X127465Y1232700D01*
X125815Y1229840D01*
X124960Y1226651D01*
Y1226270D01*
X136230D01*
Y1237540D01*
D02*
G37*
G36*
X413770Y1217970D02*
Y1213770D01*
X417970D01*
X417197Y1215638D01*
X415638Y1217197D01*
X413770Y1217970D01*
D02*
G37*
G36*
X411230D02*
X409362Y1217197D01*
X407803Y1215638D01*
X407030Y1213770D01*
X411230D01*
Y1217970D01*
D02*
G37*
G36*
X368764Y1236500D02*
X365736D01*
X362811Y1235716D01*
X360189Y1234202D01*
X358048Y1232061D01*
X356534Y1229439D01*
X355750Y1226514D01*
Y1223486D01*
X356534Y1220561D01*
X358048Y1217939D01*
X360189Y1215798D01*
X362811Y1214284D01*
X365736Y1213500D01*
X368764D01*
X371689Y1214284D01*
X374311Y1215798D01*
X376452Y1217939D01*
X377966Y1220561D01*
X378750Y1223486D01*
Y1226514D01*
X377966Y1229439D01*
X376452Y1232061D01*
X374311Y1234202D01*
X371689Y1235716D01*
X368764Y1236500D01*
D02*
G37*
G36*
X150040Y1223730D02*
X138770D01*
Y1212460D01*
X139151D01*
X142340Y1213315D01*
X145200Y1214966D01*
X147535Y1217300D01*
X149185Y1220160D01*
X150040Y1223349D01*
Y1223730D01*
D02*
G37*
G36*
X136230D02*
X124960D01*
Y1223349D01*
X125815Y1220160D01*
X127465Y1217300D01*
X129800Y1214966D01*
X132660Y1213315D01*
X135849Y1212460D01*
X136230D01*
Y1223730D01*
D02*
G37*
G36*
X417970Y1211230D02*
X413770D01*
Y1207030D01*
X415638Y1207803D01*
X417197Y1209362D01*
X417970Y1211230D01*
D02*
G37*
G36*
X411230D02*
X407030D01*
X407803Y1209362D01*
X409362Y1207803D01*
X411230Y1207030D01*
Y1211230D01*
D02*
G37*
G36*
X209500Y1219000D02*
X190500D01*
Y1209296D01*
X190441Y1209000D01*
X190441Y1209000D01*
Y1207267D01*
X185833Y1202659D01*
X148586D01*
X148216Y1204039D01*
X146702Y1206661D01*
X144561Y1208802D01*
X141939Y1210316D01*
X139014Y1211100D01*
X135986D01*
X133061Y1210316D01*
X130439Y1208802D01*
X128298Y1206661D01*
X126784Y1204039D01*
X126000Y1201114D01*
Y1198086D01*
X126784Y1195161D01*
X128298Y1192539D01*
X130439Y1190398D01*
X133061Y1188884D01*
X135986Y1188100D01*
X139014D01*
X141939Y1188884D01*
X144561Y1190398D01*
X146702Y1192539D01*
X148216Y1195161D01*
X148586Y1196541D01*
X187100D01*
X187100Y1196541D01*
X188270Y1196774D01*
X189263Y1197437D01*
X189263Y1197437D01*
X195663Y1203837D01*
X196326Y1204829D01*
X196559Y1206000D01*
X196559Y1206000D01*
X209500D01*
Y1209441D01*
X234195D01*
X234951Y1208685D01*
X236605Y1208000D01*
X238395D01*
X240049Y1208685D01*
X241315Y1209951D01*
X242000Y1211605D01*
Y1213395D01*
X241315Y1215049D01*
X240049Y1216315D01*
X238395Y1217000D01*
X236605D01*
X234951Y1216315D01*
X234195Y1215559D01*
X209500D01*
Y1219000D01*
D02*
G37*
G36*
X101270Y1205470D02*
Y1201270D01*
X105470D01*
X104697Y1203138D01*
X103138Y1204697D01*
X101270Y1205470D01*
D02*
G37*
G36*
X98730D02*
X96862Y1204697D01*
X95303Y1203138D01*
X94530Y1201270D01*
X98730D01*
Y1205470D01*
D02*
G37*
G36*
X105470Y1198730D02*
X101270D01*
Y1194530D01*
X103138Y1195303D01*
X104697Y1196862D01*
X105470Y1198730D01*
D02*
G37*
G36*
X98730D02*
X94530D01*
X95303Y1196862D01*
X96862Y1195303D01*
X98730Y1194530D01*
Y1198730D01*
D02*
G37*
G36*
X368764Y1211100D02*
X365736D01*
X362811Y1210316D01*
X360189Y1208802D01*
X358048Y1206661D01*
X356534Y1204039D01*
X355750Y1201114D01*
Y1198086D01*
X356534Y1195161D01*
X358048Y1192539D01*
X360189Y1190398D01*
X362811Y1188884D01*
X365736Y1188100D01*
X368764D01*
X371689Y1188884D01*
X374311Y1190398D01*
X376452Y1192539D01*
X377966Y1195161D01*
X378750Y1198086D01*
Y1201114D01*
X377966Y1204039D01*
X376452Y1206661D01*
X374311Y1208802D01*
X371689Y1210316D01*
X368764Y1211100D01*
D02*
G37*
G36*
X413770Y1180470D02*
Y1176270D01*
X417970D01*
X417197Y1178138D01*
X415638Y1179697D01*
X413770Y1180470D01*
D02*
G37*
G36*
X411230D02*
X409362Y1179697D01*
X407803Y1178138D01*
X407030Y1176270D01*
X411230D01*
Y1180470D01*
D02*
G37*
G36*
X417970Y1173730D02*
X413770D01*
Y1169530D01*
X415638Y1170303D01*
X417197Y1171862D01*
X417970Y1173730D01*
D02*
G37*
G36*
X411230D02*
X407030D01*
X407803Y1171862D01*
X409362Y1170303D01*
X411230Y1169530D01*
Y1173730D01*
D02*
G37*
G36*
X101270Y1167970D02*
Y1163770D01*
X105470D01*
X104697Y1165638D01*
X103138Y1167197D01*
X101270Y1167970D01*
D02*
G37*
G36*
X98730D02*
X96862Y1167197D01*
X95303Y1165638D01*
X94530Y1163770D01*
X98730D01*
Y1167970D01*
D02*
G37*
G36*
X378750Y1185700D02*
X355750D01*
Y1162700D01*
X378750D01*
Y1185700D01*
D02*
G37*
G36*
X149000D02*
X126000D01*
Y1162700D01*
X149000D01*
Y1185700D01*
D02*
G37*
G36*
X105470Y1161230D02*
X101270D01*
Y1157030D01*
X103138Y1157803D01*
X104697Y1159362D01*
X105470Y1161230D01*
D02*
G37*
G36*
X98730D02*
X94530D01*
X95303Y1159362D01*
X96862Y1157803D01*
X98730Y1157030D01*
Y1161230D01*
D02*
G37*
G36*
X101270Y1130470D02*
Y1126270D01*
X105470D01*
X104697Y1128138D01*
X103138Y1129697D01*
X101270Y1130470D01*
D02*
G37*
G36*
X98730D02*
X96862Y1129697D01*
X95303Y1128138D01*
X94530Y1126270D01*
X98730D01*
Y1130470D01*
D02*
G37*
G36*
X295071Y1137540D02*
X294690D01*
Y1126270D01*
X305960D01*
Y1126651D01*
X305105Y1129840D01*
X303454Y1132700D01*
X301120Y1135034D01*
X298260Y1136685D01*
X295071Y1137540D01*
D02*
G37*
G36*
X292150D02*
X291769D01*
X288580Y1136685D01*
X285720Y1135034D01*
X283386Y1132700D01*
X281735Y1129840D01*
X280880Y1126651D01*
Y1126270D01*
X292150D01*
Y1137540D01*
D02*
G37*
G36*
X105470Y1123730D02*
X101270D01*
Y1119530D01*
X103138Y1120303D01*
X104697Y1121862D01*
X105470Y1123730D01*
D02*
G37*
G36*
X98730D02*
X94530D01*
X95303Y1121862D01*
X96862Y1120303D01*
X98730Y1119530D01*
Y1123730D01*
D02*
G37*
G36*
X401651Y1125440D02*
X401270D01*
Y1114170D01*
X412540D01*
Y1114551D01*
X411685Y1117740D01*
X410034Y1120600D01*
X407700Y1122934D01*
X404840Y1124585D01*
X401651Y1125440D01*
D02*
G37*
G36*
X398730D02*
X398349D01*
X395160Y1124585D01*
X392300Y1122934D01*
X389966Y1120600D01*
X388315Y1117740D01*
X387460Y1114551D01*
Y1114170D01*
X398730D01*
Y1125440D01*
D02*
G37*
G36*
X250000Y1152549D02*
X200000D01*
X199025Y1152355D01*
X198198Y1151802D01*
X163395Y1117000D01*
X163395Y1117000D01*
X161605D01*
X159951Y1116315D01*
X158685Y1115049D01*
X158000Y1113395D01*
Y1111605D01*
X158685Y1109951D01*
X159951Y1108685D01*
X161605Y1108000D01*
X163395D01*
X165049Y1108685D01*
X166315Y1109951D01*
X167000Y1111605D01*
Y1113395D01*
X167000Y1113395D01*
X201056Y1147451D01*
X248944D01*
X260933Y1135462D01*
X260678Y1133921D01*
X258818Y1132061D01*
X257304Y1129439D01*
X256520Y1126514D01*
Y1123486D01*
X257304Y1120561D01*
X258818Y1117939D01*
X260959Y1115798D01*
X263581Y1114284D01*
X266506Y1113500D01*
X269534D01*
X272459Y1114284D01*
X275081Y1115798D01*
X277222Y1117939D01*
X278736Y1120561D01*
X279520Y1123486D01*
Y1126514D01*
X278736Y1129439D01*
X277222Y1132061D01*
X275081Y1134202D01*
X272459Y1135716D01*
X269534Y1136500D01*
X266864D01*
X266378Y1137226D01*
X251802Y1151802D01*
X250975Y1152355D01*
X250000Y1152549D01*
D02*
G37*
G36*
X244134Y1136500D02*
X241106D01*
X238181Y1135716D01*
X235559Y1134202D01*
X233418Y1132061D01*
X231904Y1129439D01*
X231120Y1126514D01*
Y1123486D01*
X231904Y1120561D01*
X233418Y1117939D01*
X235559Y1115798D01*
X238181Y1114284D01*
X241106Y1113500D01*
X244134D01*
X247059Y1114284D01*
X249681Y1115798D01*
X251822Y1117939D01*
X253336Y1120561D01*
X254120Y1123486D01*
Y1126514D01*
X253336Y1129439D01*
X251822Y1132061D01*
X249681Y1134202D01*
X247059Y1135716D01*
X244134Y1136500D01*
D02*
G37*
G36*
X228720D02*
X205720D01*
Y1113500D01*
X228720D01*
Y1136500D01*
D02*
G37*
G36*
X305960Y1123730D02*
X294690D01*
Y1112460D01*
X295071D01*
X298260Y1113315D01*
X301120Y1114966D01*
X303454Y1117300D01*
X305105Y1120160D01*
X305960Y1123349D01*
Y1123730D01*
D02*
G37*
G36*
X292150D02*
X280880D01*
Y1123349D01*
X281735Y1120160D01*
X283386Y1117300D01*
X285720Y1114966D01*
X288580Y1113315D01*
X291769Y1112460D01*
X292150D01*
Y1123730D01*
D02*
G37*
G36*
X412540Y1111630D02*
X401270D01*
Y1100360D01*
X401651D01*
X404840Y1101215D01*
X407700Y1102866D01*
X410034Y1105200D01*
X411685Y1108060D01*
X412540Y1111249D01*
Y1111630D01*
D02*
G37*
G36*
X398730D02*
X387460D01*
Y1111249D01*
X388315Y1108060D01*
X389966Y1105200D01*
X392300Y1102866D01*
X395160Y1101215D01*
X398349Y1100360D01*
X398730D01*
Y1111630D01*
D02*
G37*
G36*
X401514Y1099000D02*
X398486D01*
X395561Y1098216D01*
X392939Y1096702D01*
X390798Y1094561D01*
X389284Y1091939D01*
X388777Y1090049D01*
X300000D01*
X299025Y1089855D01*
X298198Y1089302D01*
X275895Y1067000D01*
X275895Y1067000D01*
X274105D01*
X272451Y1066315D01*
X271185Y1065049D01*
X270500Y1063395D01*
Y1061605D01*
X271185Y1059951D01*
X272451Y1058685D01*
X274105Y1058000D01*
X275895D01*
X277549Y1058685D01*
X278815Y1059951D01*
X279500Y1061605D01*
Y1063395D01*
X279500Y1063395D01*
X301056Y1084951D01*
X388777D01*
X389284Y1083061D01*
X390798Y1080439D01*
X392939Y1078298D01*
X395561Y1076784D01*
X398486Y1076000D01*
X401514D01*
X404439Y1076784D01*
X407061Y1078298D01*
X409202Y1080439D01*
X410716Y1083061D01*
X411500Y1085986D01*
Y1089014D01*
X410716Y1091939D01*
X409202Y1094561D01*
X407061Y1096702D01*
X404439Y1098216D01*
X401514Y1099000D01*
D02*
G37*
G36*
X411500Y1073600D02*
X388500D01*
Y1065049D01*
X303815D01*
X303815Y1065049D01*
X302549Y1066315D01*
X300895Y1067000D01*
X299105D01*
X297451Y1066315D01*
X296185Y1065049D01*
X295500Y1063395D01*
Y1061605D01*
X296185Y1059951D01*
X297451Y1058685D01*
X299105Y1058000D01*
X300895D01*
X302549Y1058685D01*
X303815Y1059951D01*
X303815Y1059951D01*
X388500D01*
Y1050600D01*
X411500D01*
Y1073600D01*
D02*
G37*
G36*
X338395Y1054500D02*
X336605D01*
X334951Y1053815D01*
X333685Y1052549D01*
X333000Y1050895D01*
Y1049105D01*
X333685Y1047451D01*
X334441Y1046695D01*
Y1046147D01*
X321957Y1033663D01*
X321957Y1033663D01*
X321294Y1032671D01*
X321061Y1031500D01*
X321061Y1031500D01*
X308120D01*
Y1030559D01*
X289620D01*
Y1034000D01*
X270620D01*
Y1030559D01*
X227120D01*
Y1034000D01*
X214179D01*
X214179Y1034000D01*
X213946Y1035171D01*
X213283Y1036163D01*
X203739Y1045707D01*
Y1047375D01*
X203815Y1047451D01*
X204500Y1049105D01*
Y1050895D01*
X203815Y1052549D01*
X202549Y1053815D01*
X200895Y1054500D01*
X199105D01*
X197451Y1053815D01*
X196185Y1052549D01*
X195500Y1050895D01*
Y1049105D01*
X196185Y1047451D01*
X196941Y1046695D01*
Y1045120D01*
X196941Y1045120D01*
X197174Y1043950D01*
X197837Y1042957D01*
X197837Y1042957D01*
X208061Y1032733D01*
Y1031000D01*
X208061Y1031000D01*
X208120Y1030704D01*
Y1024296D01*
X208061Y1024000D01*
X208061Y1024000D01*
Y1022267D01*
X201253Y1015458D01*
X200587Y1015326D01*
X199594Y1014663D01*
X197837Y1012906D01*
X197837Y1012906D01*
X197174Y1011913D01*
X196941Y1010743D01*
X196941Y1010742D01*
Y940120D01*
X196941Y940120D01*
X197174Y938950D01*
X197837Y937957D01*
X197837Y937957D01*
X208061Y927733D01*
Y926000D01*
X208061Y926000D01*
X208120Y925704D01*
Y916000D01*
X209441D01*
Y913767D01*
X200174Y904500D01*
X199105D01*
X197451Y903815D01*
X196185Y902549D01*
X195500Y900895D01*
Y899105D01*
X196185Y897451D01*
X197451Y896185D01*
X199105Y895500D01*
X200895D01*
X202549Y896185D01*
X203305Y896941D01*
X248733D01*
X258000Y887674D01*
Y887326D01*
X251233Y880559D01*
X247000D01*
Y884000D01*
X228000D01*
Y871000D01*
X247000D01*
Y874441D01*
X252500D01*
X253671Y874674D01*
X254663Y875337D01*
X254663Y875337D01*
X262326Y883000D01*
X263395D01*
X265049Y883685D01*
X266315Y884951D01*
X267000Y886605D01*
Y888395D01*
X266315Y890049D01*
X265049Y891315D01*
X263395Y892000D01*
X262326D01*
X252163Y902163D01*
X252163Y902163D01*
X251171Y902826D01*
X250000Y903059D01*
X209044D01*
X208558Y904232D01*
X214663Y910337D01*
X215326Y911329D01*
X215559Y912500D01*
X215559Y912500D01*
Y916000D01*
X227120D01*
Y919441D01*
X270620D01*
Y916000D01*
X289620D01*
Y919441D01*
X308120D01*
Y916000D01*
X321061D01*
X321061Y916000D01*
X321294Y914829D01*
X321957Y913837D01*
X321957Y913837D01*
X325457Y910337D01*
X326450Y909674D01*
X327620Y909441D01*
X327620Y909441D01*
X334195D01*
X334951Y908685D01*
X336605Y908000D01*
X338395D01*
X339465Y908443D01*
X340441Y907650D01*
Y906000D01*
X340441Y906000D01*
X340500Y905704D01*
Y896000D01*
X359500D01*
Y909000D01*
X346559D01*
X346559Y909000D01*
X346326Y910171D01*
X345663Y911163D01*
X342737Y914089D01*
X341744Y914752D01*
X341410Y914818D01*
X341315Y915049D01*
X340049Y916315D01*
X338395Y917000D01*
X336605D01*
X334951Y916315D01*
X334195Y915559D01*
X328887D01*
X327179Y917267D01*
Y919000D01*
X327179Y919000D01*
X327120Y919296D01*
Y929000D01*
X308120D01*
Y925559D01*
X289620D01*
Y929000D01*
X270620D01*
Y925559D01*
X227120D01*
Y929000D01*
X214179D01*
X214179Y929000D01*
X213946Y930171D01*
X213283Y931163D01*
X203059Y941387D01*
Y1009476D01*
X203125Y1009542D01*
X203790Y1009674D01*
X204783Y1010337D01*
X213283Y1018837D01*
X213946Y1019829D01*
X214179Y1021000D01*
X214179Y1021000D01*
X227120D01*
Y1024441D01*
X270620D01*
Y1021000D01*
X289620D01*
Y1024441D01*
X308120D01*
Y1018500D01*
X327120D01*
Y1028204D01*
X327179Y1028500D01*
X327179Y1028500D01*
Y1030233D01*
X339663Y1042717D01*
X340326Y1043709D01*
X340559Y1044880D01*
X340559Y1044880D01*
Y1046695D01*
X341315Y1047451D01*
X342000Y1049105D01*
Y1050895D01*
X341315Y1052549D01*
X340049Y1053815D01*
X338395Y1054500D01*
D02*
G37*
G36*
X373040Y1032540D02*
X363770D01*
Y1026270D01*
X373040D01*
Y1032540D01*
D02*
G37*
G36*
X361230D02*
X351960D01*
Y1026270D01*
X361230D01*
Y1032540D01*
D02*
G37*
G36*
X373040Y1023730D02*
X363770D01*
Y1017460D01*
X373040D01*
Y1023730D01*
D02*
G37*
G36*
X361230D02*
X351960D01*
Y1017460D01*
X361230D01*
Y1023730D01*
D02*
G37*
G36*
X290660Y1005040D02*
X281390D01*
Y998770D01*
X290660D01*
Y1005040D01*
D02*
G37*
G36*
X278850D02*
X269580D01*
Y998770D01*
X278850D01*
Y1005040D01*
D02*
G37*
G36*
X228160D02*
X218890D01*
Y998770D01*
X228160D01*
Y1005040D01*
D02*
G37*
G36*
X216350D02*
X207080D01*
Y998770D01*
X216350D01*
Y1005040D01*
D02*
G37*
G36*
X328160Y1002540D02*
X318890D01*
Y996270D01*
X328160D01*
Y1002540D01*
D02*
G37*
G36*
X316350D02*
X307080D01*
Y996270D01*
X316350D01*
Y1002540D01*
D02*
G37*
G36*
X290660Y996230D02*
X281390D01*
Y989960D01*
X290660D01*
Y996230D01*
D02*
G37*
G36*
X278850D02*
X269580D01*
Y989960D01*
X278850D01*
Y996230D01*
D02*
G37*
G36*
X228160D02*
X218890D01*
Y989960D01*
X228160D01*
Y996230D01*
D02*
G37*
G36*
X216350D02*
X207080D01*
Y989960D01*
X216350D01*
Y996230D01*
D02*
G37*
G36*
X328160Y993730D02*
X318890D01*
Y987460D01*
X328160D01*
Y993730D01*
D02*
G37*
G36*
X316350D02*
X307080D01*
Y987460D01*
X316350D01*
Y993730D01*
D02*
G37*
G36*
X251270Y980470D02*
Y976270D01*
X255470D01*
X254697Y978138D01*
X253138Y979697D01*
X251270Y980470D01*
D02*
G37*
G36*
X248730D02*
X246862Y979697D01*
X245303Y978138D01*
X244530Y976270D01*
X248730D01*
Y980470D01*
D02*
G37*
G36*
X255470Y973730D02*
X251270D01*
Y969530D01*
X253138Y970303D01*
X254697Y971862D01*
X255470Y973730D01*
D02*
G37*
G36*
X248730D02*
X244530D01*
X245303Y971862D01*
X246862Y970303D01*
X248730Y969530D01*
Y973730D01*
D02*
G37*
G36*
X413770Y967970D02*
Y963770D01*
X417970D01*
X417197Y965638D01*
X415638Y967197D01*
X413770Y967970D01*
D02*
G37*
G36*
X411230D02*
X409362Y967197D01*
X407803Y965638D01*
X407030Y963770D01*
X411230D01*
Y967970D01*
D02*
G37*
G36*
X417970Y961230D02*
X413770D01*
Y957030D01*
X415638Y957803D01*
X417197Y959362D01*
X417970Y961230D01*
D02*
G37*
G36*
X411230D02*
X407030D01*
X407803Y959362D01*
X409362Y957803D01*
X411230Y957030D01*
Y961230D01*
D02*
G37*
G36*
X328160Y960040D02*
X318890D01*
Y953770D01*
X328160D01*
Y960040D01*
D02*
G37*
G36*
X316350D02*
X307080D01*
Y953770D01*
X316350D01*
Y960040D01*
D02*
G37*
G36*
X290660D02*
X281390D01*
Y953770D01*
X290660D01*
Y960040D01*
D02*
G37*
G36*
X278850D02*
X269580D01*
Y953770D01*
X278850D01*
Y960040D01*
D02*
G37*
G36*
X228160D02*
X218890D01*
Y953770D01*
X228160D01*
Y960040D01*
D02*
G37*
G36*
X216350D02*
X207080D01*
Y953770D01*
X216350D01*
Y960040D01*
D02*
G37*
G36*
X361790Y955790D02*
X357770D01*
Y948770D01*
X361790D01*
Y955790D01*
D02*
G37*
G36*
X355230D02*
X351210D01*
Y948770D01*
X355230D01*
Y955790D01*
D02*
G37*
G36*
X372000Y1001500D02*
X353000D01*
Y988500D01*
X361780D01*
Y988172D01*
X361973Y987196D01*
X362526Y986369D01*
X369076Y979819D01*
X369903Y979266D01*
X370879Y979072D01*
X371000D01*
Y965500D01*
X372451D01*
Y953815D01*
X372451Y953815D01*
X371185Y952549D01*
X370500Y950895D01*
Y949105D01*
X371185Y947451D01*
X372451Y946185D01*
X374105Y945500D01*
X375895D01*
X377549Y946185D01*
X378815Y947451D01*
X379500Y949105D01*
Y950895D01*
X378815Y952549D01*
X377549Y953815D01*
X377549Y953815D01*
Y965500D01*
X384000D01*
Y984500D01*
X371605D01*
X368778Y987327D01*
X369264Y988500D01*
X372000D01*
Y1001500D01*
D02*
G37*
G36*
X328160Y951230D02*
X318890D01*
Y944960D01*
X328160D01*
Y951230D01*
D02*
G37*
G36*
X316350D02*
X307080D01*
Y944960D01*
X316350D01*
Y951230D01*
D02*
G37*
G36*
X290660D02*
X281390D01*
Y944960D01*
X290660D01*
Y951230D01*
D02*
G37*
G36*
X278850D02*
X269580D01*
Y944960D01*
X278850D01*
Y951230D01*
D02*
G37*
G36*
X228160D02*
X218890D01*
Y944960D01*
X228160D01*
Y951230D01*
D02*
G37*
G36*
X216350D02*
X207080D01*
Y944960D01*
X216350D01*
Y951230D01*
D02*
G37*
G36*
X354000Y984500D02*
X341000D01*
Y971246D01*
X340951Y971000D01*
Y954750D01*
X339250D01*
Y940250D01*
X347750D01*
Y954750D01*
X346049D01*
Y965500D01*
X354000D01*
Y984500D01*
D02*
G37*
G36*
X361790Y946230D02*
X357770D01*
Y939210D01*
X361790D01*
Y946230D01*
D02*
G37*
G36*
X355230D02*
X351210D01*
Y939210D01*
X355230D01*
Y946230D01*
D02*
G37*
G36*
X375895Y942000D02*
X374105D01*
X372451Y941315D01*
X371185Y940049D01*
X370500Y938395D01*
Y936605D01*
X370500Y936605D01*
X363944Y930049D01*
X354250D01*
Y934750D01*
X345750D01*
Y920250D01*
X354250D01*
Y924951D01*
X365000D01*
X365975Y925145D01*
X366802Y925698D01*
X374105Y933000D01*
X374105Y933000D01*
X375895D01*
X377549Y933685D01*
X378815Y934951D01*
X379500Y936605D01*
Y938395D01*
X378815Y940049D01*
X377549Y941315D01*
X375895Y942000D01*
D02*
G37*
G36*
X413770Y930470D02*
Y926270D01*
X417970D01*
X417197Y928138D01*
X415638Y929697D01*
X413770Y930470D01*
D02*
G37*
G36*
X411230D02*
X409362Y929697D01*
X407803Y928138D01*
X407030Y926270D01*
X411230D01*
Y930470D01*
D02*
G37*
G36*
X417970Y923730D02*
X413770D01*
Y919530D01*
X415638Y920303D01*
X417197Y921862D01*
X417970Y923730D01*
D02*
G37*
G36*
X411230D02*
X407030D01*
X407803Y921862D01*
X409362Y920303D01*
X411230Y919530D01*
Y923730D01*
D02*
G37*
G36*
X413770Y892970D02*
Y888770D01*
X417970D01*
X417197Y890638D01*
X415638Y892197D01*
X413770Y892970D01*
D02*
G37*
G36*
X411230D02*
X409362Y892197D01*
X407803Y890638D01*
X407030Y888770D01*
X411230D01*
Y892970D01*
D02*
G37*
G36*
X417970Y886230D02*
X413770D01*
Y882030D01*
X415638Y882803D01*
X417197Y884362D01*
X417970Y886230D01*
D02*
G37*
G36*
X411230D02*
X407030D01*
X407803Y884362D01*
X409362Y882803D01*
X411230Y882030D01*
Y886230D01*
D02*
G37*
G36*
X359500Y879000D02*
X340500D01*
Y866000D01*
X359500D01*
Y869951D01*
X363944D01*
X370500Y863395D01*
X370500Y863395D01*
Y861605D01*
X371185Y859951D01*
X372451Y858685D01*
X374105Y858000D01*
X375895D01*
X377549Y858685D01*
X378815Y859951D01*
X379500Y861605D01*
Y863395D01*
X378815Y865049D01*
X377549Y866315D01*
X375895Y867000D01*
X374105D01*
X374105Y867000D01*
X366802Y874302D01*
X365975Y874855D01*
X365000Y875049D01*
X359500D01*
Y879000D01*
D02*
G37*
G36*
X413770Y855470D02*
Y851270D01*
X417970D01*
X417197Y853138D01*
X415638Y854697D01*
X413770Y855470D01*
D02*
G37*
G36*
X411230D02*
X409362Y854697D01*
X407803Y853138D01*
X407030Y851270D01*
X411230D01*
Y855470D01*
D02*
G37*
G36*
X417970Y848730D02*
X413770D01*
Y844530D01*
X415638Y845303D01*
X417197Y846862D01*
X417970Y848730D01*
D02*
G37*
G36*
X411230D02*
X407030D01*
X407803Y846862D01*
X409362Y845303D01*
X411230Y844530D01*
Y848730D01*
D02*
G37*
G36*
X163770Y830470D02*
Y826270D01*
X167970D01*
X167197Y828138D01*
X165638Y829697D01*
X163770Y830470D01*
D02*
G37*
G36*
X161230D02*
X159362Y829697D01*
X157803Y828138D01*
X157030Y826270D01*
X161230D01*
Y830470D01*
D02*
G37*
G36*
X126270D02*
Y826270D01*
X130470D01*
X129697Y828138D01*
X128138Y829697D01*
X126270Y830470D01*
D02*
G37*
G36*
X123730D02*
X121862Y829697D01*
X120303Y828138D01*
X119530Y826270D01*
X123730D01*
Y830470D01*
D02*
G37*
G36*
X167970Y823730D02*
X163770D01*
Y819530D01*
X165638Y820303D01*
X167197Y821862D01*
X167970Y823730D01*
D02*
G37*
G36*
X161230D02*
X157030D01*
X157803Y821862D01*
X159362Y820303D01*
X161230Y819530D01*
Y823730D01*
D02*
G37*
G36*
X130470D02*
X126270D01*
Y819530D01*
X128138Y820303D01*
X129697Y821862D01*
X130470Y823730D01*
D02*
G37*
G36*
X123730D02*
X119530D01*
X120303Y821862D01*
X121862Y820303D01*
X123730Y819530D01*
Y823730D01*
D02*
G37*
G36*
X225040Y825040D02*
X213770D01*
Y813770D01*
X225040D01*
Y825040D01*
D02*
G37*
G36*
X211230D02*
X199960D01*
Y813770D01*
X211230D01*
Y825040D01*
D02*
G37*
G36*
X188395Y1004500D02*
X186605D01*
X184951Y1003815D01*
X183685Y1002549D01*
X183000Y1000895D01*
Y999105D01*
X183685Y997451D01*
X184951Y996185D01*
X184951Y996185D01*
Y900000D01*
X185145Y899025D01*
X185698Y898198D01*
X223198Y860698D01*
X224025Y860145D01*
X225000Y859951D01*
X250144D01*
X285289Y824807D01*
X284909Y823390D01*
X284261Y823216D01*
X281639Y821702D01*
X279498Y819561D01*
X277984Y816939D01*
X277200Y814014D01*
Y810986D01*
X277984Y808061D01*
X279498Y805439D01*
X281639Y803298D01*
X284261Y801784D01*
X287186Y801000D01*
X290214D01*
X293139Y801784D01*
X295761Y803298D01*
X297902Y805439D01*
X299416Y808061D01*
X300064Y810480D01*
X300528D01*
X301504Y810674D01*
X302331Y811226D01*
X314302Y823198D01*
X314855Y824025D01*
X315049Y825000D01*
Y846185D01*
X315049Y846185D01*
X316315Y847451D01*
X317000Y849105D01*
Y850895D01*
X316315Y852549D01*
X315049Y853815D01*
X313395Y854500D01*
X311605D01*
X309951Y853815D01*
X308685Y852549D01*
X308000Y850895D01*
Y849105D01*
X308685Y847451D01*
X309951Y846185D01*
X309951Y846185D01*
Y826056D01*
X300627Y816732D01*
X299278Y817179D01*
X297902Y819561D01*
X295761Y821702D01*
X293139Y823216D01*
X291249Y823723D01*
Y825000D01*
X291055Y825975D01*
X290502Y826802D01*
X253002Y864302D01*
X252175Y864855D01*
X251200Y865049D01*
X226056D01*
X190049Y901056D01*
Y996185D01*
X190049Y996185D01*
X191315Y997451D01*
X192000Y999105D01*
Y1000895D01*
X191315Y1002549D01*
X190049Y1003815D01*
X188395Y1004500D01*
D02*
G37*
G36*
X175895Y979500D02*
X174105D01*
X172451Y978815D01*
X171185Y977549D01*
X170500Y975895D01*
Y974105D01*
X171185Y972451D01*
X172451Y971185D01*
X172451Y971185D01*
Y887500D01*
X172645Y886525D01*
X173198Y885698D01*
X210698Y848198D01*
X211525Y847645D01*
X212500Y847451D01*
X228000D01*
Y841000D01*
X234951D01*
Y838300D01*
X235145Y837325D01*
X235698Y836498D01*
X253562Y818633D01*
X252584Y816939D01*
X251800Y814014D01*
Y810986D01*
X252584Y808061D01*
X254098Y805439D01*
X256239Y803298D01*
X258861Y801784D01*
X261786Y801000D01*
X264814D01*
X267739Y801784D01*
X270361Y803298D01*
X272502Y805439D01*
X274016Y808061D01*
X274800Y810986D01*
Y814014D01*
X274016Y816939D01*
X272502Y819561D01*
X270361Y821702D01*
X267739Y823216D01*
X264814Y824000D01*
X261786D01*
X258861Y823216D01*
X257167Y822238D01*
X240049Y839356D01*
Y841000D01*
X247000D01*
Y854000D01*
X228000D01*
Y852549D01*
X213556D01*
X177549Y888556D01*
Y971185D01*
X177549Y971185D01*
X178815Y972451D01*
X179500Y974105D01*
Y975895D01*
X178815Y977549D01*
X177549Y978815D01*
X175895Y979500D01*
D02*
G37*
G36*
X239414Y824000D02*
X236386D01*
X233461Y823216D01*
X230839Y821702D01*
X228698Y819561D01*
X227184Y816939D01*
X226400Y814014D01*
Y810986D01*
X227184Y808061D01*
X228698Y805439D01*
X230839Y803298D01*
X233461Y801784D01*
X236386Y801000D01*
X239414D01*
X242339Y801784D01*
X244961Y803298D01*
X247102Y805439D01*
X248616Y808061D01*
X249400Y810986D01*
Y814014D01*
X248616Y816939D01*
X247102Y819561D01*
X244961Y821702D01*
X242339Y823216D01*
X239414Y824000D01*
D02*
G37*
G36*
X225040Y811230D02*
X213770D01*
Y799960D01*
X225040D01*
Y811230D01*
D02*
G37*
G36*
X211230D02*
X199960D01*
Y799960D01*
X211230D01*
Y811230D01*
D02*
G37*
G36*
X647091Y1127583D02*
X644909D01*
X642800Y1127018D01*
X640910Y1125926D01*
X639366Y1124383D01*
X638275Y1122492D01*
X637710Y1120384D01*
Y1118201D01*
X638275Y1116093D01*
X639366Y1114202D01*
X640910Y1112659D01*
X642800Y1111568D01*
X644909Y1111003D01*
X647091D01*
X649200Y1111568D01*
X651090Y1112659D01*
X652634Y1114202D01*
X653725Y1116093D01*
X654290Y1118201D01*
Y1120384D01*
X653725Y1122492D01*
X652634Y1124383D01*
X651090Y1125926D01*
X649200Y1127018D01*
X647091Y1127583D01*
D02*
G37*
G36*
X571091D02*
X568909D01*
X566800Y1127018D01*
X564910Y1125926D01*
X563366Y1124383D01*
X562275Y1122492D01*
X561710Y1120384D01*
Y1118201D01*
X562275Y1116093D01*
X563366Y1114202D01*
X564910Y1112659D01*
X566800Y1111568D01*
X568909Y1111003D01*
X571091D01*
X573200Y1111568D01*
X575090Y1112659D01*
X576634Y1114202D01*
X577725Y1116093D01*
X578290Y1118201D01*
Y1120384D01*
X577725Y1122492D01*
X576634Y1124383D01*
X575090Y1125926D01*
X573200Y1127018D01*
X571091Y1127583D01*
D02*
G37*
G36*
X786990Y1035890D02*
X776470D01*
Y1025370D01*
X786990D01*
Y1035890D01*
D02*
G37*
G36*
X773930D02*
X763410D01*
Y1025370D01*
X773930D01*
Y1035890D01*
D02*
G37*
G36*
X827415Y1034850D02*
X824585D01*
X821851Y1034117D01*
X819399Y1032702D01*
X817398Y1030701D01*
X815983Y1028249D01*
X815250Y1025515D01*
Y1022685D01*
X815983Y1019951D01*
X817398Y1017499D01*
X819399Y1015498D01*
X821851Y1014083D01*
X824585Y1013350D01*
X827415D01*
X830149Y1014083D01*
X832601Y1015498D01*
X834602Y1017499D01*
X836017Y1019951D01*
X836750Y1022685D01*
Y1025515D01*
X836017Y1028249D01*
X834602Y1030701D01*
X832601Y1032702D01*
X830149Y1034117D01*
X827415Y1034850D01*
D02*
G37*
G36*
X786990Y1022830D02*
X776470D01*
Y1012310D01*
X786990D01*
Y1022830D01*
D02*
G37*
G36*
X773930D02*
X763410D01*
Y1012310D01*
X773930D01*
Y1022830D01*
D02*
G37*
G36*
X617500Y956400D02*
X594500D01*
Y933400D01*
X617500D01*
Y956400D01*
D02*
G37*
G36*
X677270Y914970D02*
Y910770D01*
X681470D01*
X680697Y912638D01*
X679138Y914197D01*
X677270Y914970D01*
D02*
G37*
G36*
X674730D02*
X672862Y914197D01*
X671303Y912638D01*
X670530Y910770D01*
X674730D01*
Y914970D01*
D02*
G37*
G36*
X607514Y931000D02*
X604486D01*
X601561Y930216D01*
X598939Y928702D01*
X596798Y926561D01*
X595284Y923939D01*
X594500Y921014D01*
Y917986D01*
X595284Y915061D01*
X596798Y912439D01*
X598939Y910298D01*
X601561Y908784D01*
X604486Y908000D01*
X607514D01*
X610439Y908784D01*
X613061Y910298D01*
X615202Y912439D01*
X616716Y915061D01*
X617500Y917986D01*
Y921014D01*
X616716Y923939D01*
X615202Y926561D01*
X613061Y928702D01*
X610439Y930216D01*
X607514Y931000D01*
D02*
G37*
G36*
X681470Y908230D02*
X677270D01*
Y904030D01*
X679138Y904803D01*
X680697Y906362D01*
X681470Y908230D01*
D02*
G37*
G36*
X674730D02*
X670530D01*
X671303Y906362D01*
X672862Y904803D01*
X674730Y904030D01*
Y908230D01*
D02*
G37*
G36*
X782270Y904970D02*
Y900770D01*
X786470D01*
X785697Y902638D01*
X784138Y904197D01*
X782270Y904970D01*
D02*
G37*
G36*
X779730D02*
X777862Y904197D01*
X776303Y902638D01*
X775530Y900770D01*
X779730D01*
Y904970D01*
D02*
G37*
G36*
X607651Y906640D02*
X607270D01*
Y895370D01*
X618540D01*
Y895751D01*
X617685Y898940D01*
X616035Y901800D01*
X613700Y904135D01*
X610840Y905785D01*
X607651Y906640D01*
D02*
G37*
G36*
X604730D02*
X604349D01*
X601160Y905785D01*
X598300Y904135D01*
X595965Y901800D01*
X594315Y898940D01*
X593460Y895751D01*
Y895370D01*
X604730D01*
Y906640D01*
D02*
G37*
G36*
X786470Y898230D02*
X782270D01*
Y894030D01*
X784138Y894803D01*
X785697Y896362D01*
X786470Y898230D01*
D02*
G37*
G36*
X779730D02*
X775530D01*
X776303Y896362D01*
X777862Y894803D01*
X779730Y894030D01*
Y898230D01*
D02*
G37*
G36*
X618540Y892830D02*
X607270D01*
Y881560D01*
X607651D01*
X610840Y882415D01*
X613700Y884065D01*
X616035Y886400D01*
X617685Y889260D01*
X618540Y892449D01*
Y892830D01*
D02*
G37*
G36*
X604730D02*
X593460D01*
Y892449D01*
X594315Y889260D01*
X595965Y886400D01*
X598300Y884065D01*
X601160Y882415D01*
X604349Y881560D01*
X604730D01*
Y892830D01*
D02*
G37*
G36*
X777270Y849970D02*
Y845770D01*
X781470D01*
X780697Y847638D01*
X779138Y849197D01*
X777270Y849970D01*
D02*
G37*
G36*
X774730D02*
X772862Y849197D01*
X771303Y847638D01*
X770530Y845770D01*
X774730D01*
Y849970D01*
D02*
G37*
G36*
X781470Y843230D02*
X777270D01*
Y839030D01*
X779138Y839803D01*
X780697Y841362D01*
X781470Y843230D01*
D02*
G37*
G36*
X774730D02*
X770530D01*
X771303Y841362D01*
X772862Y839803D01*
X774730Y839030D01*
Y843230D01*
D02*
G37*
G36*
X687270Y834970D02*
Y830770D01*
X691470D01*
X690697Y832638D01*
X689138Y834197D01*
X687270Y834970D01*
D02*
G37*
G36*
X684730D02*
X682862Y834197D01*
X681303Y832638D01*
X680530Y830770D01*
X684730D01*
Y834970D01*
D02*
G37*
G36*
X857410Y829970D02*
Y825770D01*
X861610D01*
X860837Y827638D01*
X859278Y829197D01*
X857410Y829970D01*
D02*
G37*
G36*
X854870D02*
X853002Y829197D01*
X851443Y827638D01*
X850670Y825770D01*
X854870D01*
Y829970D01*
D02*
G37*
G36*
X691470Y828230D02*
X687270D01*
Y824030D01*
X689138Y824803D01*
X690697Y826362D01*
X691470Y828230D01*
D02*
G37*
G36*
X684730D02*
X680530D01*
X681303Y826362D01*
X682862Y824803D01*
X684730Y824030D01*
Y828230D01*
D02*
G37*
G36*
X861610Y823230D02*
X857410D01*
Y819030D01*
X859278Y819803D01*
X860837Y821362D01*
X861610Y823230D01*
D02*
G37*
G36*
X854870D02*
X850670D01*
X851443Y821362D01*
X853002Y819803D01*
X854870Y819030D01*
Y823230D01*
D02*
G37*
G36*
X597270Y814970D02*
Y810770D01*
X601470D01*
X600697Y812638D01*
X599138Y814197D01*
X597270Y814970D01*
D02*
G37*
G36*
X594730D02*
X592862Y814197D01*
X591303Y812638D01*
X590530Y810770D01*
X594730D01*
Y814970D01*
D02*
G37*
G36*
X601470Y808230D02*
X597270D01*
Y804030D01*
X599138Y804803D01*
X600697Y806362D01*
X601470Y808230D01*
D02*
G37*
G36*
X594730D02*
X590530D01*
X591303Y806362D01*
X592862Y804803D01*
X594730Y804030D01*
Y808230D01*
D02*
G37*
G36*
X682270Y724970D02*
Y720770D01*
X686470D01*
X685697Y722638D01*
X684138Y724197D01*
X682270Y724970D01*
D02*
G37*
G36*
X679730D02*
X677862Y724197D01*
X676303Y722638D01*
X675530Y720770D01*
X679730D01*
Y724970D01*
D02*
G37*
G36*
X597270D02*
Y720770D01*
X601470D01*
X600697Y722638D01*
X599138Y724197D01*
X597270Y724970D01*
D02*
G37*
G36*
X594730D02*
X592862Y724197D01*
X591303Y722638D01*
X590530Y720770D01*
X594730D01*
Y724970D01*
D02*
G37*
G36*
X686470Y718230D02*
X682270D01*
Y714030D01*
X684138Y714803D01*
X685697Y716362D01*
X686470Y718230D01*
D02*
G37*
G36*
X679730D02*
X675530D01*
X676303Y716362D01*
X677862Y714803D01*
X679730Y714030D01*
Y718230D01*
D02*
G37*
G36*
X601470D02*
X597270D01*
Y714030D01*
X599138Y714803D01*
X600697Y716362D01*
X601470Y718230D01*
D02*
G37*
G36*
X594730D02*
X590530D01*
X591303Y716362D01*
X592862Y714803D01*
X594730Y714030D01*
Y718230D01*
D02*
G37*
G36*
X828451Y652040D02*
X828070D01*
Y640770D01*
X839340D01*
Y641151D01*
X838485Y644340D01*
X836834Y647200D01*
X834500Y649535D01*
X831640Y651185D01*
X828451Y652040D01*
D02*
G37*
G36*
X825530D02*
X825149D01*
X821960Y651185D01*
X819100Y649535D01*
X816766Y647200D01*
X815115Y644340D01*
X814260Y641151D01*
Y640770D01*
X825530D01*
Y652040D01*
D02*
G37*
G36*
X612783Y643040D02*
X612270D01*
Y630770D01*
X624540D01*
Y631283D01*
X623617Y634726D01*
X621835Y637814D01*
X619314Y640335D01*
X616226Y642117D01*
X612783Y643040D01*
D02*
G37*
G36*
X609730D02*
X609217D01*
X605774Y642117D01*
X602686Y640335D01*
X600165Y637814D01*
X598383Y634726D01*
X597460Y631283D01*
Y630770D01*
X609730D01*
Y643040D01*
D02*
G37*
G36*
X802914Y651000D02*
X799886D01*
X796961Y650216D01*
X794339Y648702D01*
X792198Y646561D01*
X790684Y643939D01*
X789900Y641014D01*
Y637986D01*
X790684Y635061D01*
X792198Y632439D01*
X794339Y630298D01*
X796961Y628784D01*
X799886Y628000D01*
X802914D01*
X805839Y628784D01*
X808461Y630298D01*
X810602Y632439D01*
X812116Y635061D01*
X812900Y637986D01*
Y641014D01*
X812116Y643939D01*
X810602Y646561D01*
X808461Y648702D01*
X805839Y650216D01*
X802914Y651000D01*
D02*
G37*
G36*
X777514D02*
X774486D01*
X771561Y650216D01*
X768939Y648702D01*
X766798Y646561D01*
X765284Y643939D01*
X764500Y641014D01*
Y637986D01*
X765284Y635061D01*
X766798Y632439D01*
X768939Y630298D01*
X771561Y628784D01*
X774486Y628000D01*
X777514D01*
X780439Y628784D01*
X783061Y630298D01*
X785202Y632439D01*
X786716Y635061D01*
X787500Y637986D01*
Y641014D01*
X786716Y643939D01*
X785202Y646561D01*
X783061Y648702D01*
X780439Y650216D01*
X777514Y651000D01*
D02*
G37*
G36*
X752114D02*
X749086D01*
X746161Y650216D01*
X743539Y648702D01*
X741398Y646561D01*
X739884Y643939D01*
X739100Y641014D01*
Y637986D01*
X739884Y635061D01*
X741398Y632439D01*
X743539Y630298D01*
X746161Y628784D01*
X749086Y628000D01*
X752114D01*
X755039Y628784D01*
X757661Y630298D01*
X759802Y632439D01*
X761316Y635061D01*
X762100Y637986D01*
Y641014D01*
X761316Y643939D01*
X759802Y646561D01*
X757661Y648702D01*
X755039Y650216D01*
X752114Y651000D01*
D02*
G37*
G36*
X736700D02*
X713700D01*
Y628000D01*
X736700D01*
Y651000D01*
D02*
G37*
G36*
X839340Y638230D02*
X828070D01*
Y626960D01*
X828451D01*
X831640Y627815D01*
X834500Y629465D01*
X836834Y631800D01*
X838485Y634660D01*
X839340Y637849D01*
Y638230D01*
D02*
G37*
G36*
X825530D02*
X814260D01*
Y637849D01*
X815115Y634660D01*
X816766Y631800D01*
X819100Y629465D01*
X821960Y627815D01*
X825149Y626960D01*
X825530D01*
Y638230D01*
D02*
G37*
G36*
X667250Y642000D02*
X654750D01*
X648500Y635750D01*
Y623250D01*
X654750Y617000D01*
X667250D01*
X673500Y623250D01*
Y635750D01*
X667250Y642000D01*
D02*
G37*
G36*
X624540Y628230D02*
X612270D01*
Y615960D01*
X612783D01*
X616226Y616883D01*
X619314Y618665D01*
X621835Y621186D01*
X623617Y624274D01*
X624540Y627717D01*
Y628230D01*
D02*
G37*
G36*
X609730D02*
X597460D01*
Y627717D01*
X598383Y624274D01*
X600165Y621186D01*
X602686Y618665D01*
X605774Y616883D01*
X609217Y615960D01*
X609730D01*
Y628230D01*
D02*
G37*
G36*
X1270651Y962040D02*
X1270270D01*
Y950770D01*
X1281540D01*
Y951151D01*
X1280685Y954340D01*
X1279035Y957200D01*
X1276700Y959535D01*
X1273840Y961185D01*
X1270651Y962040D01*
D02*
G37*
G36*
X1267730D02*
X1267349D01*
X1264160Y961185D01*
X1261300Y959535D01*
X1258966Y957200D01*
X1257315Y954340D01*
X1256460Y951151D01*
Y950770D01*
X1267730D01*
Y962040D01*
D02*
G37*
G36*
X1305514Y961000D02*
X1302486D01*
X1299561Y960216D01*
X1296939Y958702D01*
X1294798Y956561D01*
X1293284Y953939D01*
X1292500Y951014D01*
Y947986D01*
X1293284Y945061D01*
X1293998Y943824D01*
X1285733Y935559D01*
X1271217D01*
X1271020Y937059D01*
X1273840Y937815D01*
X1276700Y939465D01*
X1279035Y941800D01*
X1280685Y944660D01*
X1281540Y947849D01*
Y948230D01*
X1269000D01*
X1256460D01*
Y947849D01*
X1257315Y944660D01*
X1258966Y941800D01*
X1261300Y939465D01*
X1264160Y937815D01*
X1266980Y937059D01*
X1266783Y935559D01*
X1231186D01*
X1231163Y935615D01*
X1229615Y937163D01*
X1227594Y938000D01*
X1225406D01*
X1223384Y937163D01*
X1221837Y935615D01*
X1221000Y933594D01*
Y931406D01*
X1221837Y929385D01*
X1223384Y927837D01*
X1225406Y927000D01*
X1227594D01*
X1229615Y927837D01*
X1231163Y929385D01*
X1231186Y929441D01*
X1287000D01*
X1287000Y929441D01*
X1288170Y929674D01*
X1289163Y930337D01*
X1298324Y939498D01*
X1299561Y938784D01*
X1302486Y938000D01*
X1305514D01*
X1308439Y938784D01*
X1311061Y940298D01*
X1313202Y942439D01*
X1314716Y945061D01*
X1315500Y947986D01*
Y951014D01*
X1314716Y953939D01*
X1313202Y956561D01*
X1311061Y958702D01*
X1308439Y960216D01*
X1305514Y961000D01*
D02*
G37*
G36*
X1230500Y894000D02*
X1217500D01*
Y875000D01*
X1220941D01*
Y855767D01*
X1216837Y851663D01*
X1216174Y850670D01*
X1215941Y849500D01*
X1215941Y849500D01*
Y846000D01*
X1209500D01*
Y833000D01*
X1228500D01*
Y836441D01*
X1239500D01*
Y833000D01*
X1258500D01*
Y836441D01*
X1262733D01*
X1265941Y833233D01*
Y790317D01*
X1265500Y789000D01*
X1252500D01*
Y782559D01*
X1249000D01*
X1247829Y782326D01*
X1246837Y781663D01*
X1246837Y781663D01*
X1237926Y772752D01*
X1236540Y773326D01*
Y778230D01*
X1229000D01*
X1221460D01*
Y768960D01*
X1221460D01*
X1221222Y767559D01*
X1193686D01*
X1193663Y767616D01*
X1192115Y769163D01*
X1190094Y770000D01*
X1187906D01*
X1185884Y769163D01*
X1184337Y767616D01*
X1183500Y765594D01*
Y763406D01*
X1184337Y761385D01*
X1185884Y759837D01*
X1187906Y759000D01*
X1190094D01*
X1192115Y759837D01*
X1193663Y761385D01*
X1193686Y761441D01*
X1234000D01*
X1234000Y761441D01*
X1235171Y761674D01*
X1236163Y762337D01*
X1250267Y776441D01*
X1252500D01*
Y770000D01*
X1265500D01*
Y776441D01*
X1267243D01*
X1267243Y776441D01*
X1268413Y776674D01*
X1269406Y777337D01*
X1271163Y779094D01*
X1271163Y779094D01*
X1271826Y780087D01*
X1272059Y781257D01*
X1272059Y781257D01*
Y834500D01*
X1272059Y834500D01*
X1271826Y835670D01*
X1271163Y836663D01*
X1266163Y841663D01*
X1265171Y842326D01*
X1264000Y842559D01*
X1264000Y842559D01*
X1258500D01*
Y846000D01*
X1239500D01*
Y842559D01*
X1228500D01*
Y846000D01*
X1222059D01*
Y848233D01*
X1226163Y852337D01*
X1226826Y853329D01*
X1227059Y854500D01*
X1227059Y854500D01*
Y875000D01*
X1230500D01*
Y881441D01*
X1235941D01*
Y864186D01*
X1235884Y864163D01*
X1234337Y862616D01*
X1233500Y860594D01*
Y858406D01*
X1234337Y856385D01*
X1235884Y854837D01*
X1237906Y854000D01*
X1240094D01*
X1242115Y854837D01*
X1243663Y856385D01*
X1244500Y858406D01*
Y860594D01*
X1243663Y862616D01*
X1242115Y864163D01*
X1242059Y864186D01*
Y882742D01*
X1242059Y882743D01*
X1241826Y883913D01*
X1241163Y884905D01*
X1241163Y884906D01*
X1239406Y886663D01*
X1238413Y887326D01*
X1237243Y887559D01*
X1237243Y887559D01*
X1230500D01*
Y894000D01*
D02*
G37*
G36*
X1200500D02*
X1187500D01*
Y875000D01*
X1190941D01*
Y855767D01*
X1186837Y851663D01*
X1186174Y850670D01*
X1185941Y849500D01*
X1185941Y849500D01*
Y846000D01*
X1179500D01*
Y842559D01*
X1168500D01*
Y846000D01*
X1149500D01*
Y833000D01*
X1155941D01*
Y826743D01*
X1155941Y826743D01*
X1156174Y825572D01*
X1156837Y824580D01*
X1162991Y818426D01*
X1162417Y817040D01*
X1160270D01*
Y809500D01*
Y801960D01*
X1167421D01*
X1167837Y801337D01*
X1176837Y792337D01*
X1176837Y792337D01*
X1177829Y791674D01*
X1179000Y791441D01*
X1184314D01*
X1184337Y791385D01*
X1185884Y789837D01*
X1187906Y789000D01*
X1190094D01*
X1192115Y789837D01*
X1193663Y791385D01*
X1194500Y793406D01*
Y795594D01*
X1193663Y797616D01*
X1192115Y799163D01*
X1190094Y800000D01*
X1187906D01*
X1185884Y799163D01*
X1184337Y797616D01*
X1184314Y797559D01*
X1180267D01*
X1173059Y804767D01*
Y815742D01*
X1173059Y815743D01*
X1172826Y816913D01*
X1172163Y817906D01*
X1162059Y828010D01*
Y833000D01*
X1168500D01*
Y836441D01*
X1179500D01*
Y833000D01*
X1198500D01*
Y846000D01*
X1192059D01*
Y848233D01*
X1196163Y852337D01*
X1196826Y853329D01*
X1197059Y854500D01*
X1197059Y854500D01*
Y875000D01*
X1200500D01*
Y894000D01*
D02*
G37*
G36*
X1259540Y817040D02*
X1250270D01*
Y810770D01*
X1259540D01*
Y817040D01*
D02*
G37*
G36*
X1229540D02*
X1220270D01*
Y810770D01*
X1229540D01*
Y817040D01*
D02*
G37*
G36*
X1199540D02*
X1190270D01*
Y810770D01*
X1199540D01*
Y817040D01*
D02*
G37*
G36*
X1247730D02*
X1238460D01*
Y810770D01*
X1247730D01*
Y817040D01*
D02*
G37*
G36*
X1217730D02*
X1208460D01*
Y810770D01*
X1217730D01*
Y817040D01*
D02*
G37*
G36*
X1187730D02*
X1178460D01*
Y810770D01*
X1187730D01*
Y817040D01*
D02*
G37*
G36*
X1259540Y808230D02*
X1250270D01*
Y801960D01*
X1259540D01*
Y808230D01*
D02*
G37*
G36*
X1247730D02*
X1238460D01*
Y801960D01*
X1247730D01*
Y808230D01*
D02*
G37*
G36*
X1229540D02*
X1220270D01*
Y801960D01*
X1229540D01*
Y808230D01*
D02*
G37*
G36*
X1217730D02*
X1208460D01*
Y801960D01*
X1217730D01*
Y808230D01*
D02*
G37*
G36*
X1199540D02*
X1190270D01*
Y801960D01*
X1199540D01*
Y808230D01*
D02*
G37*
G36*
X1187730D02*
X1178460D01*
Y801960D01*
X1187730D01*
Y808230D01*
D02*
G37*
G36*
X1236540Y790040D02*
X1230270D01*
Y780770D01*
X1236540D01*
Y790040D01*
D02*
G37*
G36*
X1227730D02*
X1221460D01*
Y780770D01*
X1227730D01*
Y790040D01*
D02*
G37*
G36*
X1080514Y731800D02*
X1077486D01*
X1074561Y731016D01*
X1071939Y729502D01*
X1069798Y727361D01*
X1068284Y724739D01*
X1067500Y721814D01*
Y718786D01*
X1068284Y715861D01*
X1069798Y713239D01*
X1071939Y711098D01*
X1074561Y709584D01*
X1077486Y708800D01*
X1080514D01*
X1083439Y709584D01*
X1086061Y711098D01*
X1088202Y713239D01*
X1089716Y715861D01*
X1090500Y718786D01*
Y721814D01*
X1089716Y724739D01*
X1088202Y727361D01*
X1086061Y729502D01*
X1083439Y731016D01*
X1080514Y731800D01*
D02*
G37*
G36*
Y706400D02*
X1077486D01*
X1074561Y705616D01*
X1071939Y704102D01*
X1069798Y701961D01*
X1068284Y699339D01*
X1067500Y696414D01*
Y693386D01*
X1068284Y690461D01*
X1069798Y687839D01*
X1071939Y685698D01*
X1074561Y684184D01*
X1077486Y683400D01*
X1080514D01*
X1083439Y684184D01*
X1086061Y685698D01*
X1088202Y687839D01*
X1089716Y690461D01*
X1090500Y693386D01*
Y696414D01*
X1089716Y699339D01*
X1088202Y701961D01*
X1086061Y704102D01*
X1083439Y705616D01*
X1080514Y706400D01*
D02*
G37*
G36*
X1140094Y930000D02*
X1137906D01*
X1135884Y929163D01*
X1134337Y927616D01*
X1133500Y925594D01*
Y923406D01*
X1134337Y921385D01*
X1135884Y919837D01*
X1135941Y919814D01*
Y812258D01*
X1135941Y812257D01*
X1136174Y811087D01*
X1136837Y810095D01*
X1170941Y775990D01*
Y667429D01*
X1170884Y667405D01*
X1169337Y665858D01*
X1168500Y663837D01*
Y661649D01*
X1169337Y659627D01*
X1170884Y658080D01*
X1172906Y657243D01*
X1175094D01*
X1177115Y658080D01*
X1178663Y659627D01*
X1179500Y661649D01*
Y663837D01*
X1178663Y665858D01*
X1177115Y667405D01*
X1177059Y667429D01*
Y777257D01*
X1176826Y778428D01*
X1176163Y779420D01*
X1176163Y779420D01*
X1155009Y800574D01*
X1155583Y801960D01*
X1157730D01*
Y809500D01*
Y817040D01*
X1148460D01*
Y809083D01*
X1147074Y808509D01*
X1142059Y813524D01*
Y919814D01*
X1142115Y919837D01*
X1143663Y921385D01*
X1144500Y923406D01*
Y925594D01*
X1143663Y927616D01*
X1142115Y929163D01*
X1140094Y930000D01*
D02*
G37*
G36*
X1080514Y681000D02*
X1077486D01*
X1074561Y680216D01*
X1071939Y678702D01*
X1069798Y676561D01*
X1068284Y673939D01*
X1067500Y671014D01*
Y667986D01*
X1068284Y665061D01*
X1069798Y662439D01*
X1071939Y660298D01*
X1074561Y658784D01*
X1076964Y658140D01*
X1076766Y656640D01*
X1066460D01*
Y645370D01*
X1079000D01*
X1091540D01*
Y656640D01*
X1081234D01*
X1081037Y658140D01*
X1083439Y658784D01*
X1086061Y660298D01*
X1088202Y662439D01*
X1089716Y665061D01*
X1090500Y667986D01*
Y671014D01*
X1089716Y673939D01*
X1088202Y676561D01*
X1086061Y678702D01*
X1083439Y680216D01*
X1080514Y681000D01*
D02*
G37*
G36*
X1091540Y642830D02*
X1080270D01*
Y631560D01*
X1091540D01*
Y642830D01*
D02*
G37*
G36*
X1077730D02*
X1066460D01*
Y631560D01*
X1077730D01*
Y642830D01*
D02*
G37*
G36*
X1362730Y617040D02*
X1351460D01*
Y606734D01*
X1349960Y606536D01*
X1349316Y608939D01*
X1347802Y611561D01*
X1345661Y613702D01*
X1343039Y615216D01*
X1340114Y616000D01*
X1337086D01*
X1334161Y615216D01*
X1331539Y613702D01*
X1329398Y611561D01*
X1327884Y608939D01*
X1327100Y606014D01*
Y602986D01*
X1327884Y600061D01*
X1329398Y597439D01*
X1331539Y595298D01*
X1334161Y593784D01*
X1337086Y593000D01*
X1340114D01*
X1343039Y593784D01*
X1345661Y595298D01*
X1347802Y597439D01*
X1349316Y600061D01*
X1349960Y602463D01*
X1351460Y602266D01*
Y591960D01*
X1362730D01*
Y604500D01*
Y617040D01*
D02*
G37*
G36*
X1376540D02*
X1365270D01*
Y605770D01*
X1376540D01*
Y617040D01*
D02*
G37*
G36*
X1314714Y616000D02*
X1311686D01*
X1308761Y615216D01*
X1306139Y613702D01*
X1303998Y611561D01*
X1302484Y608939D01*
X1301700Y606014D01*
Y602986D01*
X1302484Y600061D01*
X1303998Y597439D01*
X1306139Y595298D01*
X1308761Y593784D01*
X1311686Y593000D01*
X1314714D01*
X1317639Y593784D01*
X1320261Y595298D01*
X1322402Y597439D01*
X1323916Y600061D01*
X1324700Y602986D01*
Y606014D01*
X1323916Y608939D01*
X1322402Y611561D01*
X1320261Y613702D01*
X1317639Y615216D01*
X1314714Y616000D01*
D02*
G37*
G36*
X1289314D02*
X1286286D01*
X1283361Y615216D01*
X1280739Y613702D01*
X1278598Y611561D01*
X1277084Y608939D01*
X1276300Y606014D01*
Y602986D01*
X1277084Y600061D01*
X1278598Y597439D01*
X1280739Y595298D01*
X1283361Y593784D01*
X1286286Y593000D01*
X1289314D01*
X1292239Y593784D01*
X1294861Y595298D01*
X1297002Y597439D01*
X1298516Y600061D01*
X1299300Y602986D01*
Y606014D01*
X1298516Y608939D01*
X1297002Y611561D01*
X1294861Y613702D01*
X1292239Y615216D01*
X1289314Y616000D01*
D02*
G37*
G36*
X1263914D02*
X1260886D01*
X1257961Y615216D01*
X1255339Y613702D01*
X1253198Y611561D01*
X1251684Y608939D01*
X1250900Y606014D01*
Y602986D01*
X1251684Y600061D01*
X1253198Y597439D01*
X1255339Y595298D01*
X1257961Y593784D01*
X1260886Y593000D01*
X1263914D01*
X1266839Y593784D01*
X1269461Y595298D01*
X1271602Y597439D01*
X1273116Y600061D01*
X1273900Y602986D01*
Y606014D01*
X1273116Y608939D01*
X1271602Y611561D01*
X1269461Y613702D01*
X1266839Y615216D01*
X1263914Y616000D01*
D02*
G37*
G36*
X1376540Y603230D02*
X1365270D01*
Y591960D01*
X1376540D01*
Y603230D01*
D02*
G37*
G36*
X913500Y454250D02*
X904500D01*
Y450799D01*
X823150D01*
X822175Y450605D01*
X821348Y450052D01*
X704549Y333253D01*
X703402Y334020D01*
X699500Y334796D01*
X695598Y334020D01*
X692290Y331810D01*
X690080Y328502D01*
X689304Y324600D01*
X689793Y322141D01*
X667698Y300045D01*
X667145Y299218D01*
X666951Y298243D01*
Y255000D01*
X667145Y254025D01*
X667698Y253197D01*
X690846Y230049D01*
X690080Y228902D01*
X689304Y225000D01*
X689860Y222207D01*
X667698Y200045D01*
X667145Y199218D01*
X666951Y198243D01*
Y155000D01*
X667145Y154024D01*
X667698Y153198D01*
X690846Y130049D01*
X690080Y128902D01*
X689304Y125000D01*
X690080Y121098D01*
X692290Y117790D01*
X695598Y115580D01*
X699500Y114804D01*
X703402Y115580D01*
X706710Y117790D01*
X708920Y121098D01*
X709696Y125000D01*
X708920Y128902D01*
X706710Y132210D01*
X703402Y134420D01*
X699500Y135196D01*
X695598Y134420D01*
X694451Y133653D01*
X672049Y156056D01*
Y197187D01*
X692507Y217645D01*
X695598Y215580D01*
X699500Y214804D01*
X703402Y215580D01*
X706710Y217790D01*
X708920Y221098D01*
X709696Y225000D01*
X708920Y228902D01*
X706710Y232209D01*
X703402Y234420D01*
X699500Y235196D01*
X695598Y234420D01*
X694451Y233653D01*
X672049Y256056D01*
Y297187D01*
X692256Y317394D01*
X692290Y317390D01*
X695598Y315180D01*
X699500Y314404D01*
X703402Y315180D01*
X706710Y317390D01*
X708920Y320698D01*
X709696Y324600D01*
X708920Y328502D01*
X708153Y329649D01*
X824206Y445701D01*
X904500D01*
Y442250D01*
X913500D01*
Y454250D01*
D02*
G37*
G36*
X1224500Y460596D02*
X1220598Y459820D01*
X1217290Y457609D01*
X1215080Y454302D01*
X1214304Y450400D01*
X1215080Y446498D01*
X1217290Y443190D01*
X1220598Y440980D01*
X1224500Y440204D01*
X1228402Y440980D01*
X1231710Y443190D01*
X1233920Y446498D01*
X1234696Y450400D01*
X1233920Y454302D01*
X1231710Y457609D01*
X1228402Y459820D01*
X1224500Y460596D01*
D02*
G37*
G36*
X1549500Y466642D02*
X1545193Y466075D01*
X1541179Y464413D01*
X1537732Y461768D01*
X1535087Y458321D01*
X1533425Y454307D01*
X1532858Y450000D01*
X1533425Y445693D01*
X1535087Y441679D01*
X1537732Y438232D01*
X1541179Y435587D01*
X1545193Y433925D01*
X1549500Y433358D01*
X1553807Y433925D01*
X1557821Y435587D01*
X1561268Y438232D01*
X1563913Y441679D01*
X1565575Y445693D01*
X1566142Y450000D01*
X1565575Y454307D01*
X1563913Y458321D01*
X1561268Y461768D01*
X1557821Y464413D01*
X1553807Y466075D01*
X1549500Y466642D01*
D02*
G37*
G36*
X549500D02*
X545193Y466075D01*
X541179Y464413D01*
X537732Y461768D01*
X535087Y458321D01*
X533425Y454307D01*
X532858Y450000D01*
X533425Y445693D01*
X535087Y441679D01*
X537732Y438232D01*
X541179Y435587D01*
X545193Y433925D01*
X549500Y433358D01*
X553807Y433925D01*
X557821Y435587D01*
X561268Y438232D01*
X563913Y441679D01*
X565575Y445693D01*
X566142Y450000D01*
X565575Y454307D01*
X563913Y458321D01*
X561268Y461768D01*
X557821Y464413D01*
X553807Y466075D01*
X549500Y466642D01*
D02*
G37*
G36*
X1224500Y435196D02*
X1220598Y434420D01*
X1217290Y432210D01*
X1215080Y428902D01*
X1214304Y425000D01*
X1215080Y421098D01*
X1217290Y417790D01*
X1220598Y415580D01*
X1224500Y414804D01*
X1228402Y415580D01*
X1231710Y417790D01*
X1233920Y421098D01*
X1234696Y425000D01*
X1233920Y428902D01*
X1231710Y432210D01*
X1228402Y434420D01*
X1224500Y435196D01*
D02*
G37*
G36*
Y409796D02*
X1220598Y409020D01*
X1217290Y406810D01*
X1215080Y403502D01*
X1214592Y401049D01*
X1153000D01*
X1152754Y401000D01*
X1140500D01*
Y389000D01*
X1158500D01*
Y395951D01*
X1215030D01*
X1215080Y395698D01*
X1217290Y392390D01*
X1220598Y390180D01*
X1224500Y389404D01*
X1228402Y390180D01*
X1231710Y392390D01*
X1233920Y395698D01*
X1234696Y399600D01*
X1233920Y403502D01*
X1231710Y406810D01*
X1228402Y409020D01*
X1224500Y409796D01*
D02*
G37*
G36*
X1079500Y424078D02*
X1077939Y423768D01*
X1076616Y422884D01*
X1075732Y421561D01*
X1075422Y420000D01*
X1075732Y418439D01*
X1076616Y417116D01*
X1077939Y416232D01*
X1079500Y415922D01*
X1079895Y416000D01*
X1116951Y378944D01*
Y363108D01*
X1116616Y362884D01*
X1115732Y361561D01*
X1115422Y360000D01*
X1115732Y358439D01*
X1116616Y357116D01*
X1117939Y356232D01*
X1119500Y355922D01*
X1121061Y356232D01*
X1122384Y357116D01*
X1123268Y358439D01*
X1123578Y360000D01*
X1123268Y361561D01*
X1122384Y362884D01*
X1122049Y363108D01*
Y380000D01*
X1121855Y380975D01*
X1121302Y381802D01*
X1083500Y419605D01*
X1083578Y420000D01*
X1083268Y421561D01*
X1082384Y422884D01*
X1081061Y423768D01*
X1079500Y424078D01*
D02*
G37*
G36*
X799500Y360596D02*
X795598Y359820D01*
X792290Y357609D01*
X790080Y354302D01*
X789304Y350400D01*
X790080Y346498D01*
X792290Y343190D01*
X795598Y340980D01*
X799500Y340204D01*
X803402Y340980D01*
X806710Y343190D01*
X808920Y346498D01*
X809696Y350400D01*
X808920Y354302D01*
X806710Y357609D01*
X803402Y359820D01*
X799500Y360596D01*
D02*
G37*
G36*
X599500D02*
X595598Y359820D01*
X592290Y357609D01*
X590080Y354302D01*
X589304Y350400D01*
X590080Y346498D01*
X592290Y343190D01*
X595598Y340980D01*
X599500Y340204D01*
X603402Y340980D01*
X606710Y343190D01*
X608920Y346498D01*
X609696Y350400D01*
X608920Y354302D01*
X606710Y357609D01*
X603402Y359820D01*
X599500Y360596D01*
D02*
G37*
G36*
X699500Y360196D02*
X695598Y359420D01*
X692290Y357210D01*
X690080Y353902D01*
X689304Y350000D01*
X690080Y346098D01*
X692290Y342790D01*
X695598Y340580D01*
X699500Y339804D01*
X703402Y340580D01*
X706710Y342790D01*
X708920Y346098D01*
X709696Y350000D01*
X708920Y353902D01*
X706710Y357210D01*
X703402Y359420D01*
X699500Y360196D01*
D02*
G37*
G36*
X999330Y350731D02*
X997326Y350467D01*
X994276Y349204D01*
X991656Y347194D01*
X989646Y344574D01*
X988383Y341524D01*
X988119Y339520D01*
X999330D01*
Y350731D01*
D02*
G37*
G36*
X1029650Y362549D02*
X979500D01*
X978524Y362355D01*
X977698Y361802D01*
X967698Y351802D01*
X967145Y350975D01*
X966951Y350000D01*
Y290000D01*
X967145Y289025D01*
X967698Y288198D01*
X995500Y260395D01*
X995422Y260000D01*
X995732Y258439D01*
X996616Y257116D01*
X997939Y256232D01*
X999500Y255922D01*
X1001061Y256232D01*
X1002384Y257116D01*
X1003268Y258439D01*
X1003578Y260000D01*
X1003268Y261561D01*
X1002384Y262884D01*
X1001061Y263768D01*
X999500Y264078D01*
X999105Y264000D01*
X972049Y291056D01*
Y348944D01*
X980556Y357451D01*
X1028594D01*
X1040400Y345645D01*
Y327250D01*
X1062400D01*
Y349250D01*
X1044005D01*
X1031452Y361802D01*
X1030625Y362355D01*
X1029650Y362549D01*
D02*
G37*
G36*
X1001870Y350731D02*
Y338250D01*
Y325769D01*
X1003874Y326033D01*
X1006924Y327296D01*
X1009544Y329306D01*
X1011554Y331926D01*
X1012817Y334976D01*
X1013068Y336881D01*
X1015085D01*
X1015283Y335378D01*
X1016392Y332702D01*
X1018155Y330405D01*
X1020452Y328642D01*
X1023128Y327533D01*
X1026000Y327155D01*
X1028872Y327533D01*
X1031547Y328642D01*
X1033845Y330405D01*
X1035609Y332702D01*
X1036717Y335378D01*
X1037095Y338250D01*
X1036717Y341121D01*
X1035609Y343797D01*
X1033845Y346095D01*
X1031547Y347859D01*
X1028872Y348967D01*
X1026000Y349345D01*
X1023128Y348967D01*
X1020452Y347859D01*
X1018155Y346095D01*
X1016392Y343797D01*
X1015283Y341121D01*
X1015085Y339619D01*
X1013068D01*
X1012817Y341524D01*
X1011554Y344574D01*
X1009544Y347194D01*
X1006924Y349204D01*
X1003874Y350467D01*
X1001870Y350731D01*
D02*
G37*
G36*
X1516230Y331790D02*
X1510710D01*
Y326270D01*
X1516230D01*
Y331790D01*
D02*
G37*
G36*
X1366230D02*
X1360710D01*
Y326270D01*
X1366230D01*
Y331790D01*
D02*
G37*
G36*
X1223230D02*
X1217710D01*
Y326270D01*
X1223230D01*
Y331790D01*
D02*
G37*
G36*
X999330Y336980D02*
X988119D01*
X988383Y334976D01*
X989646Y331926D01*
X991656Y329306D01*
X994276Y327296D01*
X997326Y326033D01*
X999330Y325769D01*
Y336980D01*
D02*
G37*
G36*
X888500Y383000D02*
X879500D01*
Y374605D01*
X872698Y367802D01*
X872145Y366975D01*
X871951Y366000D01*
Y336000D01*
X865500D01*
Y324000D01*
X883500D01*
Y336000D01*
X877049D01*
Y364944D01*
X883105Y371000D01*
X888500D01*
Y383000D01*
D02*
G37*
G36*
X1158500Y371000D02*
X1140500D01*
Y362605D01*
X1100444Y322549D01*
X1032608D01*
X1032384Y322884D01*
X1031061Y323768D01*
X1029500Y324078D01*
X1027939Y323768D01*
X1026616Y322884D01*
X1025732Y321561D01*
X1025422Y320000D01*
X1025732Y318439D01*
X1026616Y317116D01*
X1027939Y316232D01*
X1029500Y315922D01*
X1031061Y316232D01*
X1032384Y317116D01*
X1032608Y317451D01*
X1101500D01*
X1102475Y317645D01*
X1103302Y318198D01*
X1144105Y359000D01*
X1158500D01*
Y371000D01*
D02*
G37*
G36*
X1516230Y323730D02*
X1510710D01*
Y318210D01*
X1516230D01*
Y323730D01*
D02*
G37*
G36*
X1366230D02*
X1360710D01*
Y318210D01*
X1366230D01*
Y323730D01*
D02*
G37*
G36*
X1223230D02*
X1217710D01*
Y318210D01*
X1223230D01*
Y323730D01*
D02*
G37*
G36*
X799500Y309796D02*
X795598Y309020D01*
X792290Y306810D01*
X790080Y303502D01*
X789304Y299600D01*
X790080Y295698D01*
X792290Y292390D01*
X795598Y290180D01*
X799500Y289404D01*
X803402Y290180D01*
X806710Y292390D01*
X808920Y295698D01*
X809696Y299600D01*
X808920Y303502D01*
X806710Y306810D01*
X803402Y309020D01*
X799500Y309796D01*
D02*
G37*
G36*
X599500D02*
X595598Y309020D01*
X592290Y306810D01*
X590080Y303502D01*
X589304Y299600D01*
X590080Y295698D01*
X592290Y292390D01*
X595598Y290180D01*
X599500Y289404D01*
X603402Y290180D01*
X606710Y292390D01*
X608920Y295698D01*
X609696Y299600D01*
X608920Y303502D01*
X606710Y306810D01*
X603402Y309020D01*
X599500Y309796D01*
D02*
G37*
G36*
X699500Y309396D02*
X695598Y308620D01*
X692290Y306409D01*
X690080Y303102D01*
X689304Y299200D01*
X690080Y295298D01*
X692290Y291990D01*
X695598Y289780D01*
X699500Y289004D01*
X703402Y289780D01*
X706710Y291990D01*
X708920Y295298D01*
X709696Y299200D01*
X708920Y303102D01*
X706710Y306409D01*
X703402Y308620D01*
X699500Y309396D01*
D02*
G37*
G36*
X1032040Y295540D02*
X1025770D01*
Y286270D01*
X1032040D01*
Y295540D01*
D02*
G37*
G36*
X1023230D02*
X1016960D01*
Y286270D01*
X1023230D01*
Y295540D01*
D02*
G37*
G36*
X933585Y306000D02*
X915585D01*
Y294000D01*
X929980D01*
X935783Y288198D01*
X936609Y287645D01*
X937585Y287451D01*
X946392D01*
X946616Y287116D01*
X947939Y286232D01*
X949500Y285922D01*
X951061Y286232D01*
X952384Y287116D01*
X953268Y288439D01*
X953578Y290000D01*
X953268Y291561D01*
X952384Y292884D01*
X951061Y293768D01*
X949500Y294078D01*
X947939Y293768D01*
X946616Y292884D01*
X946392Y292549D01*
X938641D01*
X933585Y297605D01*
Y306000D01*
D02*
G37*
G36*
X1032040Y283730D02*
X1025770D01*
Y274460D01*
X1032040D01*
Y283730D01*
D02*
G37*
G36*
X1023230D02*
X1016960D01*
Y274460D01*
X1023230D01*
Y283730D01*
D02*
G37*
G36*
X908542Y306000D02*
X890543D01*
Y294000D01*
X896993D01*
Y289958D01*
X897188Y288982D01*
X897740Y288155D01*
X907698Y278198D01*
X908524Y277645D01*
X909500Y277451D01*
X936392D01*
X936616Y277116D01*
X937939Y276232D01*
X939007Y276019D01*
Y273980D01*
X937939Y273768D01*
X936616Y272884D01*
X936392Y272549D01*
X890556D01*
X877049Y286056D01*
Y294000D01*
X883500D01*
Y306000D01*
X865500D01*
Y294000D01*
X871951D01*
Y285000D01*
X872145Y284025D01*
X872698Y283198D01*
X887698Y268198D01*
X888524Y267645D01*
X889500Y267451D01*
X936392D01*
X936616Y267116D01*
X937939Y266232D01*
X939500Y265922D01*
X941061Y266232D01*
X942384Y267116D01*
X943268Y268439D01*
X943578Y270000D01*
X943268Y271561D01*
X942384Y272884D01*
X941061Y273768D01*
X939992Y273980D01*
Y276019D01*
X941061Y276232D01*
X942384Y277116D01*
X943268Y278439D01*
X943578Y280000D01*
X943268Y281561D01*
X942384Y282884D01*
X941061Y283768D01*
X939500Y284078D01*
X937939Y283768D01*
X936616Y282884D01*
X936392Y282549D01*
X910556D01*
X902092Y291013D01*
Y294000D01*
X908542D01*
Y306000D01*
D02*
G37*
G36*
X1032040Y265540D02*
X1025770D01*
Y256270D01*
X1032040D01*
Y265540D01*
D02*
G37*
G36*
X1023230D02*
X1016960D01*
Y256270D01*
X1023230D01*
Y265540D01*
D02*
G37*
G36*
X1120040Y257540D02*
X1110770D01*
Y251270D01*
X1120040D01*
Y257540D01*
D02*
G37*
G36*
X1150040D02*
X1140770D01*
Y251270D01*
X1150040D01*
Y257540D01*
D02*
G37*
G36*
X1138230D02*
X1128960D01*
Y251270D01*
X1138230D01*
Y257540D01*
D02*
G37*
G36*
X1032040Y253730D02*
X1025770D01*
Y244460D01*
X1032040D01*
Y253730D01*
D02*
G37*
G36*
X1023230D02*
X1016960D01*
Y244460D01*
X1023230D01*
Y253730D01*
D02*
G37*
G36*
X1150040Y248730D02*
X1140770D01*
Y242460D01*
X1150040D01*
Y248730D01*
D02*
G37*
G36*
X1138230D02*
X1128960D01*
Y242460D01*
X1138230D01*
Y248730D01*
D02*
G37*
G36*
X1120040Y248730D02*
X1110770D01*
Y242460D01*
X1120040D01*
Y248730D01*
D02*
G37*
G36*
X799500Y260596D02*
X795598Y259820D01*
X792290Y257610D01*
X790080Y254302D01*
X789304Y250400D01*
X790080Y246498D01*
X792290Y243190D01*
X795598Y240980D01*
X799500Y240204D01*
X803402Y240980D01*
X806710Y243190D01*
X808920Y246498D01*
X809696Y250400D01*
X808920Y254302D01*
X806710Y257610D01*
X803402Y259820D01*
X799500Y260596D01*
D02*
G37*
G36*
X699500D02*
X695598Y259820D01*
X692290Y257610D01*
X690080Y254302D01*
X689304Y250400D01*
X690080Y246498D01*
X692290Y243190D01*
X695598Y240980D01*
X699500Y240204D01*
X703402Y240980D01*
X706710Y243190D01*
X708920Y246498D01*
X709696Y250400D01*
X708920Y254302D01*
X706710Y257610D01*
X703402Y259820D01*
X699500Y260596D01*
D02*
G37*
G36*
X599500D02*
X595598Y259820D01*
X592290Y257610D01*
X590080Y254302D01*
X589304Y250400D01*
X590080Y246498D01*
X592290Y243190D01*
X595598Y240980D01*
X599500Y240204D01*
X603402Y240980D01*
X606710Y243190D01*
X608920Y246498D01*
X609696Y250400D01*
X608920Y254302D01*
X606710Y257610D01*
X603402Y259820D01*
X599500Y260596D01*
D02*
G37*
G36*
X1040770Y240396D02*
Y236270D01*
X1044896D01*
X1044718Y237162D01*
X1043494Y238994D01*
X1041662Y240219D01*
X1040770Y240396D01*
D02*
G37*
G36*
X1038230D02*
X1037338Y240219D01*
X1035506Y238994D01*
X1034281Y237162D01*
X1034047Y235981D01*
X1033997Y235730D01*
X1033400Y235698D01*
X1031431Y235625D01*
X1031431Y235625D01*
X1031431Y235625D01*
X1025770D01*
Y226355D01*
X1032040D01*
Y233625D01*
X1032040Y233855D01*
X1034040Y234052D01*
X1034103Y233733D01*
X1034281Y232838D01*
X1035506Y231006D01*
X1037338Y229781D01*
X1038230Y229604D01*
Y240396D01*
D02*
G37*
G36*
X1524290Y331790D02*
X1518770D01*
Y325000D01*
Y318210D01*
X1524290D01*
Y319653D01*
X1526250Y319750D01*
X1526290Y319750D01*
X1528951D01*
Y273056D01*
X1489895Y234000D01*
X1489500Y234078D01*
X1487939Y233768D01*
X1486616Y232884D01*
X1485732Y231561D01*
X1485422Y230000D01*
X1485732Y228439D01*
X1486616Y227116D01*
X1486951Y226892D01*
Y133108D01*
X1486616Y132884D01*
X1485732Y131561D01*
X1485422Y130000D01*
X1485732Y128439D01*
X1486616Y127116D01*
X1487939Y126232D01*
X1489500Y125922D01*
X1491061Y126232D01*
X1492384Y127116D01*
X1493268Y128439D01*
X1493578Y130000D01*
X1493268Y131561D01*
X1492384Y132884D01*
X1492049Y133108D01*
Y226892D01*
X1492384Y227116D01*
X1493268Y228439D01*
X1493578Y230000D01*
X1493500Y230395D01*
X1533302Y270198D01*
X1533855Y271025D01*
X1534049Y272000D01*
Y319750D01*
X1536750D01*
Y330250D01*
X1526290D01*
X1526250Y330250D01*
X1524290Y330346D01*
Y331790D01*
D02*
G37*
G36*
X1044896Y233730D02*
X1040770D01*
Y229604D01*
X1041662Y229781D01*
X1043494Y231006D01*
X1044718Y232838D01*
X1044896Y233730D01*
D02*
G37*
G36*
X1023230Y235625D02*
X1016960D01*
Y226355D01*
X1023230D01*
Y235625D01*
D02*
G37*
G36*
X1032040Y223815D02*
X1025770D01*
Y214545D01*
X1032040D01*
Y223815D01*
D02*
G37*
G36*
X1023230D02*
X1016960D01*
Y214545D01*
X1023230D01*
Y223815D01*
D02*
G37*
G36*
X1060500Y294000D02*
X1048500D01*
Y276000D01*
X1051951D01*
Y264000D01*
X1048500D01*
Y246000D01*
X1051951D01*
Y234085D01*
X1048500D01*
Y216085D01*
X1051951D01*
Y209042D01*
X1048500D01*
Y191042D01*
X1051951D01*
Y184000D01*
X1048500D01*
Y166000D01*
X1056895D01*
X1064298Y158597D01*
X1065125Y158045D01*
X1066100Y157851D01*
X1068044D01*
X1074645Y151250D01*
X1074637Y149250D01*
X1066200D01*
Y130855D01*
X1037894Y102549D01*
X975556D01*
X952049Y126056D01*
Y146892D01*
X952384Y147116D01*
X953268Y148439D01*
X953578Y150000D01*
X953268Y151561D01*
X952384Y152884D01*
X951061Y153768D01*
X949500Y154078D01*
X947939Y153768D01*
X946616Y152884D01*
X945732Y151561D01*
X945422Y150000D01*
X945732Y148439D01*
X946616Y147116D01*
X946951Y146892D01*
Y125000D01*
X947145Y124024D01*
X947698Y123198D01*
X972698Y98198D01*
X973524Y97645D01*
X974500Y97451D01*
X1038950D01*
X1039926Y97645D01*
X1040752Y98198D01*
X1069805Y127250D01*
X1088200D01*
Y145645D01*
X1111302Y168748D01*
X1111855Y169575D01*
X1112049Y170550D01*
Y214000D01*
X1118500D01*
Y217451D01*
X1130500D01*
Y214000D01*
X1148500D01*
Y226000D01*
X1130500D01*
Y222549D01*
X1118500D01*
Y226000D01*
X1101933D01*
X1101319Y226923D01*
X1101004Y228000D01*
X1101355Y228524D01*
X1101549Y229500D01*
Y242460D01*
X1108230D01*
Y250000D01*
Y257540D01*
X1101549D01*
Y266558D01*
X1102384Y267116D01*
X1103268Y268439D01*
X1103578Y270000D01*
X1103268Y271561D01*
X1102384Y272884D01*
X1101061Y273768D01*
X1099500Y274078D01*
X1097939Y273768D01*
X1096616Y272884D01*
X1096392Y272549D01*
X1057049D01*
Y276000D01*
X1060500D01*
Y294000D01*
D02*
G37*
G36*
X985040Y217540D02*
X975770D01*
Y211270D01*
X985040D01*
Y217540D01*
D02*
G37*
G36*
X973230D02*
X963960D01*
Y211270D01*
X973230D01*
Y217540D01*
D02*
G37*
G36*
Y208730D02*
X963960D01*
Y202460D01*
X973230D01*
Y208730D01*
D02*
G37*
G36*
X1032040Y210583D02*
X1025770D01*
Y201312D01*
X1032040D01*
Y210583D01*
D02*
G37*
G36*
X1023230D02*
X1016960D01*
Y201312D01*
X1023230D01*
Y210583D01*
D02*
G37*
G36*
X1032040Y198772D02*
X1025770D01*
Y189503D01*
X1032040D01*
Y198772D01*
D02*
G37*
G36*
X1023230D02*
X1016960D01*
Y189503D01*
X1023230D01*
Y198772D01*
D02*
G37*
G36*
X799500Y209796D02*
X795598Y209020D01*
X792290Y206810D01*
X790080Y203502D01*
X789304Y199600D01*
X790080Y195698D01*
X792290Y192390D01*
X795598Y190180D01*
X799500Y189404D01*
X803402Y190180D01*
X806710Y192390D01*
X808920Y195698D01*
X809696Y199600D01*
X808920Y203502D01*
X806710Y206810D01*
X803402Y209020D01*
X799500Y209796D01*
D02*
G37*
G36*
X699500D02*
X695598Y209020D01*
X692290Y206810D01*
X690080Y203502D01*
X689304Y199600D01*
X690080Y195698D01*
X692290Y192390D01*
X695598Y190180D01*
X699500Y189404D01*
X703402Y190180D01*
X706710Y192390D01*
X708920Y195698D01*
X709696Y199600D01*
X708920Y203502D01*
X706710Y206810D01*
X703402Y209020D01*
X699500Y209796D01*
D02*
G37*
G36*
X599500D02*
X595598Y209020D01*
X592290Y206810D01*
X590080Y203502D01*
X589304Y199600D01*
X590080Y195698D01*
X592290Y192390D01*
X595598Y190180D01*
X599500Y189404D01*
X603402Y190180D01*
X606710Y192390D01*
X608920Y195698D01*
X609696Y199600D01*
X608920Y203502D01*
X606710Y206810D01*
X603402Y209020D01*
X599500Y209796D01*
D02*
G37*
G36*
X1032040Y185540D02*
X1025770D01*
Y176270D01*
X1032040D01*
Y185540D01*
D02*
G37*
G36*
X1023230D02*
X1016960D01*
Y176270D01*
X1023230D01*
Y185540D01*
D02*
G37*
G36*
X983500Y246000D02*
X965500D01*
Y236746D01*
X965451Y236500D01*
Y234556D01*
X922698Y191802D01*
X922145Y190975D01*
X921951Y190000D01*
Y178108D01*
X921616Y177884D01*
X920732Y176561D01*
X920422Y175000D01*
X920732Y173439D01*
X921616Y172116D01*
X922939Y171232D01*
X924500Y170922D01*
X926061Y171232D01*
X927384Y172116D01*
X928268Y173439D01*
X928578Y175000D01*
X928268Y176561D01*
X927384Y177884D01*
X927049Y178108D01*
Y188944D01*
X969802Y231698D01*
X970355Y232525D01*
X970549Y233500D01*
Y234000D01*
X983500D01*
Y246000D01*
D02*
G37*
G36*
X1032040Y173730D02*
X1025770D01*
Y164460D01*
X1032040D01*
Y173730D01*
D02*
G37*
G36*
X799500Y160596D02*
X795598Y159820D01*
X792290Y157610D01*
X790080Y154302D01*
X789304Y150400D01*
X790080Y146498D01*
X792290Y143190D01*
X795598Y140980D01*
X799500Y140204D01*
X803402Y140980D01*
X806710Y143190D01*
X808920Y146498D01*
X809696Y150400D01*
X808920Y154302D01*
X806710Y157610D01*
X803402Y159820D01*
X799500Y160596D01*
D02*
G37*
G36*
X699500D02*
X695598Y159820D01*
X692290Y157610D01*
X690080Y154302D01*
X689304Y150400D01*
X690080Y146498D01*
X692290Y143190D01*
X695598Y140980D01*
X699500Y140204D01*
X703402Y140980D01*
X706710Y143190D01*
X708920Y146498D01*
X709696Y150400D01*
X708920Y154302D01*
X706710Y157610D01*
X703402Y159820D01*
X699500Y160596D01*
D02*
G37*
G36*
X599500D02*
X595598Y159820D01*
X592290Y157610D01*
X590080Y154302D01*
X589304Y150400D01*
X590080Y146498D01*
X592290Y143190D01*
X595598Y140980D01*
X599500Y140204D01*
X603402Y140980D01*
X606710Y143190D01*
X608920Y146498D01*
X609696Y150400D01*
X608920Y154302D01*
X606710Y157610D01*
X603402Y159820D01*
X599500Y160596D01*
D02*
G37*
G36*
X974330Y150731D02*
X972326Y150467D01*
X969276Y149204D01*
X966656Y147194D01*
X964646Y144574D01*
X963383Y141524D01*
X963119Y139520D01*
X974330D01*
Y150731D01*
D02*
G37*
G36*
X1039500Y224078D02*
X1037939Y223768D01*
X1036616Y222884D01*
X1035732Y221561D01*
X1035422Y220000D01*
X1035732Y218439D01*
X1036616Y217116D01*
X1036951Y216892D01*
Y150550D01*
X1037145Y149574D01*
X1037698Y148748D01*
X1042390Y144056D01*
X1042191Y143797D01*
X1041083Y141122D01*
X1040705Y138250D01*
X1041083Y135378D01*
X1042191Y132703D01*
X1043955Y130405D01*
X1046253Y128642D01*
X1048928Y127533D01*
X1051800Y127155D01*
X1054672Y127533D01*
X1057347Y128642D01*
X1059645Y130405D01*
X1061408Y132703D01*
X1062517Y135378D01*
X1062895Y138250D01*
X1062517Y141122D01*
X1061408Y143797D01*
X1059645Y146095D01*
X1057347Y147858D01*
X1054672Y148967D01*
X1051800Y149345D01*
X1048928Y148967D01*
X1046253Y147858D01*
X1045994Y147660D01*
X1042049Y151606D01*
Y216892D01*
X1042384Y217116D01*
X1043268Y218439D01*
X1043578Y220000D01*
X1043268Y221561D01*
X1042384Y222884D01*
X1041061Y223768D01*
X1039500Y224078D01*
D02*
G37*
G36*
X985040Y208730D02*
X975770D01*
Y202460D01*
X983840D01*
X984027Y202460D01*
X984173Y202383D01*
X984443Y202049D01*
X984443D01*
Y202049D01*
X985532Y200554D01*
X985422Y200000D01*
X985732Y198439D01*
X986616Y197116D01*
X986951Y196892D01*
Y190000D01*
X987145Y189025D01*
X987698Y188198D01*
X1023851Y152044D01*
Y149009D01*
X1023528Y148967D01*
X1020853Y147858D01*
X1018555Y146095D01*
X1016792Y143797D01*
X1015683Y141122D01*
X1015305Y138250D01*
X1015683Y135378D01*
X1016792Y132703D01*
X1018555Y130405D01*
X1020853Y128642D01*
X1023528Y127533D01*
X1026400Y127155D01*
X1029272Y127533D01*
X1031947Y128642D01*
X1034245Y130405D01*
X1036009Y132703D01*
X1037117Y135378D01*
X1037495Y138250D01*
X1037117Y141122D01*
X1036009Y143797D01*
X1034245Y146095D01*
X1031947Y147858D01*
X1029272Y148967D01*
X1028949Y149009D01*
Y153100D01*
X1028755Y154075D01*
X1028202Y154902D01*
X1020492Y162612D01*
X1021258Y164460D01*
X1023230D01*
Y173730D01*
X1016960D01*
Y168758D01*
X1015112Y167992D01*
X992049Y191056D01*
Y196892D01*
X992384Y197116D01*
X993268Y198439D01*
X993578Y200000D01*
X993268Y201561D01*
X992384Y202884D01*
X991061Y203768D01*
X989500Y204078D01*
X987939Y203768D01*
X987040Y203167D01*
X985546Y203678D01*
X985040Y204053D01*
Y208730D01*
D02*
G37*
G36*
X976870Y150731D02*
Y138250D01*
Y125769D01*
X978874Y126033D01*
X981924Y127296D01*
X984544Y129306D01*
X986554Y131926D01*
X987817Y134976D01*
X988068Y136881D01*
X990085D01*
X990283Y135378D01*
X991392Y132703D01*
X993155Y130405D01*
X995452Y128642D01*
X998128Y127533D01*
X1001000Y127155D01*
X1003872Y127533D01*
X1006547Y128642D01*
X1008845Y130405D01*
X1010609Y132703D01*
X1011717Y135378D01*
X1012095Y138250D01*
X1011717Y141122D01*
X1010609Y143797D01*
X1008845Y146095D01*
X1006547Y147858D01*
X1003872Y148967D01*
X1001000Y149345D01*
X998128Y148967D01*
X995452Y147858D01*
X993155Y146095D01*
X991392Y143797D01*
X990283Y141122D01*
X990085Y139619D01*
X988068D01*
X987817Y141524D01*
X986554Y144574D01*
X984544Y147194D01*
X981924Y149204D01*
X978874Y150467D01*
X976870Y150731D01*
D02*
G37*
G36*
X1374290Y331790D02*
X1368770D01*
Y325000D01*
Y318210D01*
X1374290D01*
Y319653D01*
X1376250Y319750D01*
X1376290Y319750D01*
X1383145D01*
X1416951Y285944D01*
Y233108D01*
X1416616Y232884D01*
X1415732Y231561D01*
X1415422Y230000D01*
X1415732Y228439D01*
X1416616Y227116D01*
X1416951Y226892D01*
Y133108D01*
X1416616Y132884D01*
X1415732Y131561D01*
X1415422Y130000D01*
X1415732Y128439D01*
X1416616Y127116D01*
X1417939Y126232D01*
X1419500Y125922D01*
X1421061Y126232D01*
X1422384Y127116D01*
X1423268Y128439D01*
X1423578Y130000D01*
X1423268Y131561D01*
X1422384Y132884D01*
X1422049Y133108D01*
Y226892D01*
X1422384Y227116D01*
X1423268Y228439D01*
X1423578Y230000D01*
X1423268Y231561D01*
X1422384Y232884D01*
X1422049Y233108D01*
Y287000D01*
X1421855Y287975D01*
X1421302Y288802D01*
X1386750Y323355D01*
Y330250D01*
X1376290D01*
X1376250Y330250D01*
X1374290Y330346D01*
Y331790D01*
D02*
G37*
G36*
X1231290D02*
X1225770D01*
Y325000D01*
Y318210D01*
X1231290D01*
Y319653D01*
X1233250Y319750D01*
X1233290Y319750D01*
X1240145D01*
X1266951Y292944D01*
Y233108D01*
X1266616Y232884D01*
X1265732Y231561D01*
X1265422Y230000D01*
X1265732Y228439D01*
X1266616Y227116D01*
X1266951Y226892D01*
Y133108D01*
X1266616Y132884D01*
X1265732Y131561D01*
X1265422Y130000D01*
X1265732Y128439D01*
X1266616Y127116D01*
X1267939Y126232D01*
X1269500Y125922D01*
X1271061Y126232D01*
X1272384Y127116D01*
X1273268Y128439D01*
X1273578Y130000D01*
X1273268Y131561D01*
X1272384Y132884D01*
X1272049Y133108D01*
Y226892D01*
X1272384Y227116D01*
X1273268Y228439D01*
X1273578Y230000D01*
X1273268Y231561D01*
X1272384Y232884D01*
X1272049Y233108D01*
Y294000D01*
X1271855Y294975D01*
X1271302Y295802D01*
X1243750Y323355D01*
Y330250D01*
X1233290D01*
X1233250Y330250D01*
X1231290Y330346D01*
Y331790D01*
D02*
G37*
G36*
X974330Y136980D02*
X963119D01*
X963383Y134976D01*
X964646Y131926D01*
X966656Y129306D01*
X969276Y127296D01*
X972326Y126033D01*
X974330Y125769D01*
Y136980D01*
D02*
G37*
G36*
X799500Y109796D02*
X795598Y109020D01*
X792290Y106810D01*
X790080Y103502D01*
X789304Y99600D01*
X790080Y95698D01*
X792290Y92390D01*
X795598Y90180D01*
X799500Y89404D01*
X803402Y90180D01*
X806710Y92390D01*
X808920Y95698D01*
X809696Y99600D01*
X808920Y103502D01*
X806710Y106810D01*
X803402Y109020D01*
X799500Y109796D01*
D02*
G37*
G36*
X699500D02*
X695598Y109020D01*
X692290Y106810D01*
X690080Y103502D01*
X689304Y99600D01*
X690080Y95698D01*
X692290Y92390D01*
X695598Y90180D01*
X699500Y89404D01*
X703402Y90180D01*
X706710Y92390D01*
X708920Y95698D01*
X709696Y99600D01*
X708920Y103502D01*
X706710Y106810D01*
X703402Y109020D01*
X699500Y109796D01*
D02*
G37*
G36*
X599500D02*
X595598Y109020D01*
X592290Y106810D01*
X590080Y103502D01*
X589304Y99600D01*
X590080Y95698D01*
X592290Y92390D01*
X595598Y90180D01*
X599500Y89404D01*
X603402Y90180D01*
X606710Y92390D01*
X608920Y95698D01*
X609696Y99600D01*
X608920Y103502D01*
X606710Y106810D01*
X603402Y109020D01*
X599500Y109796D01*
D02*
G37*
G36*
X1549500Y66642D02*
X1545193Y66075D01*
X1541179Y64413D01*
X1537732Y61768D01*
X1535087Y58321D01*
X1533425Y54307D01*
X1532858Y50000D01*
X1533425Y45693D01*
X1535087Y41679D01*
X1537732Y38232D01*
X1541179Y35587D01*
X1545193Y33925D01*
X1549500Y33358D01*
X1553807Y33925D01*
X1557821Y35587D01*
X1561268Y38232D01*
X1563913Y41679D01*
X1565575Y45693D01*
X1566142Y50000D01*
X1565575Y54307D01*
X1563913Y58321D01*
X1561268Y61768D01*
X1557821Y64413D01*
X1553807Y66075D01*
X1549500Y66642D01*
D02*
G37*
G36*
X549500D02*
X545193Y66075D01*
X541179Y64413D01*
X537732Y61768D01*
X535087Y58321D01*
X533425Y54307D01*
X532858Y50000D01*
X533425Y45693D01*
X535087Y41679D01*
X537732Y38232D01*
X541179Y35587D01*
X545193Y33925D01*
X549500Y33358D01*
X553807Y33925D01*
X557821Y35587D01*
X561268Y38232D01*
X563913Y41679D01*
X565575Y45693D01*
X566142Y50000D01*
X565575Y54307D01*
X563913Y58321D01*
X561268Y61768D01*
X557821Y64413D01*
X553807Y66075D01*
X549500Y66642D01*
D02*
G37*
G36*
X430000Y686077D02*
X426863Y685769D01*
X423847Y684854D01*
X421068Y683368D01*
X418632Y681368D01*
X416632Y678932D01*
X415146Y676153D01*
X414231Y673137D01*
X413923Y670000D01*
X414231Y666863D01*
X415146Y663847D01*
X416632Y661068D01*
X418632Y658632D01*
X421068Y656632D01*
X423847Y655146D01*
X426863Y654231D01*
X430000Y653923D01*
X433136Y654231D01*
X436152Y655146D01*
X438932Y656632D01*
X441368Y658632D01*
X443368Y661068D01*
X444854Y663847D01*
X445769Y666863D01*
X446077Y670000D01*
X445769Y673137D01*
X444854Y676153D01*
X443368Y678932D01*
X441368Y681368D01*
X438932Y683368D01*
X436152Y684854D01*
X433136Y685769D01*
X430000Y686077D01*
D02*
G37*
G36*
X50000D02*
X46863Y685769D01*
X43847Y684854D01*
X41068Y683368D01*
X38631Y681368D01*
X36632Y678932D01*
X35146Y676153D01*
X34232Y673137D01*
X33923Y670000D01*
X34232Y666863D01*
X35146Y663847D01*
X36632Y661068D01*
X38631Y658632D01*
X41068Y656632D01*
X43847Y655146D01*
X46863Y654231D01*
X50000Y653923D01*
X53137Y654231D01*
X56153Y655146D01*
X58932Y656632D01*
X61368Y658632D01*
X63368Y661068D01*
X64854Y663847D01*
X65768Y666863D01*
X66077Y670000D01*
X65768Y673137D01*
X64854Y676153D01*
X63368Y678932D01*
X61368Y681368D01*
X58932Y683368D01*
X56153Y684854D01*
X53137Y685769D01*
X50000Y686077D01*
D02*
G37*
G36*
X256250Y603573D02*
X254031Y603281D01*
X251964Y602425D01*
X250188Y601062D01*
X248825Y599287D01*
X247969Y597219D01*
X247677Y595000D01*
X247969Y592781D01*
X248786Y590809D01*
X232292Y574315D01*
X225750D01*
Y576500D01*
X219018D01*
X217819Y576500D01*
X216971Y577448D01*
X227059Y587536D01*
X229031Y586719D01*
X231250Y586427D01*
X233469Y586719D01*
X235537Y587575D01*
X237312Y588938D01*
X238675Y590713D01*
X239531Y592781D01*
X239823Y595000D01*
X239531Y597219D01*
X238675Y599287D01*
X237312Y601062D01*
X235537Y602425D01*
X233469Y603281D01*
X231250Y603573D01*
X229031Y603281D01*
X226963Y602425D01*
X225188Y601062D01*
X223825Y599287D01*
X222969Y597219D01*
X222677Y595000D01*
X222969Y592781D01*
X223786Y590809D01*
X193113Y560136D01*
X192612Y559386D01*
X192435Y558500D01*
Y501650D01*
X185100D01*
Y489950D01*
X204400D01*
Y501650D01*
X197064D01*
Y557541D01*
X216802Y577279D01*
X217750Y576430D01*
X217750Y575259D01*
Y567500D01*
X225750D01*
Y569686D01*
X233250D01*
X234136Y569862D01*
X234887Y570364D01*
X252059Y587536D01*
X254031Y586719D01*
X256250Y586427D01*
X258469Y586719D01*
X260537Y587575D01*
X262312Y588938D01*
X263675Y590713D01*
X264531Y592781D01*
X264823Y595000D01*
X264531Y597219D01*
X263675Y599287D01*
X262312Y601062D01*
X260537Y602425D01*
X258469Y603281D01*
X256250Y603573D01*
D02*
G37*
G36*
X206250D02*
X204031Y603281D01*
X201963Y602425D01*
X200187Y601062D01*
X198825Y599287D01*
X197969Y597219D01*
X197676Y595000D01*
X197969Y592781D01*
X198825Y590713D01*
X200187Y588938D01*
X201963Y587575D01*
X204031Y586719D01*
X206250Y586427D01*
X208469Y586719D01*
X210536Y587575D01*
X212312Y588938D01*
X213675Y590713D01*
X214531Y592781D01*
X214823Y595000D01*
X214531Y597219D01*
X213675Y599287D01*
X212312Y601062D01*
X210536Y602425D01*
X208469Y603281D01*
X206250Y603573D01*
D02*
G37*
G36*
X255750Y625314D02*
X209250D01*
X208364Y625138D01*
X207614Y624636D01*
X185441Y602464D01*
X183469Y603281D01*
X181250Y603573D01*
X179031Y603281D01*
X176963Y602425D01*
X175188Y601062D01*
X173825Y599287D01*
X172969Y597219D01*
X172677Y595000D01*
X172969Y592781D01*
X173825Y590713D01*
X175188Y588938D01*
X176963Y587575D01*
X179031Y586719D01*
X181250Y586427D01*
X183469Y586719D01*
X185537Y587575D01*
X187312Y588938D01*
X188675Y590713D01*
X189531Y592781D01*
X189823Y595000D01*
X189531Y597219D01*
X188714Y599191D01*
X210209Y620686D01*
X254791D01*
X266436Y609041D01*
Y582459D01*
X261476Y577500D01*
X256750D01*
Y568500D01*
X264750D01*
Y574227D01*
X270387Y579864D01*
X270888Y580615D01*
X271064Y581501D01*
Y610000D01*
X270888Y610886D01*
X270387Y611637D01*
X257386Y624636D01*
X256636Y625138D01*
X255750Y625314D01*
D02*
G37*
G36*
X281250Y603573D02*
X279031Y603281D01*
X276963Y602425D01*
X275188Y601062D01*
X273825Y599287D01*
X272969Y597219D01*
X272677Y595000D01*
X272969Y592781D01*
X273825Y590713D01*
X275188Y588938D01*
X276963Y587575D01*
X279031Y586719D01*
X281250Y586427D01*
X283469Y586719D01*
X285441Y587536D01*
X294207Y578769D01*
X293885Y577500D01*
X292750D01*
Y568499D01*
X300749D01*
Y577500D01*
X299064D01*
Y579500D01*
X298888Y580386D01*
X298386Y581137D01*
X288714Y590809D01*
X289531Y592781D01*
X289823Y595000D01*
X289531Y597219D01*
X288675Y599287D01*
X287312Y601062D01*
X285536Y602425D01*
X283469Y603281D01*
X281250Y603573D01*
D02*
G37*
G36*
X306250D02*
X304031Y603281D01*
X301963Y602425D01*
X300188Y601062D01*
X298825Y599287D01*
X297969Y597219D01*
X297677Y595000D01*
X297969Y592781D01*
X298825Y590713D01*
X300188Y588938D01*
X301963Y587575D01*
X303936Y586758D01*
Y563524D01*
X304112Y562638D01*
X304613Y561887D01*
X307828Y558673D01*
X307342Y557500D01*
X302250D01*
Y551773D01*
X299113Y548636D01*
X298612Y547886D01*
X298435Y547000D01*
Y504650D01*
X291100D01*
Y492950D01*
X310400D01*
Y504650D01*
X303064D01*
Y546041D01*
X305523Y548499D01*
X310250D01*
Y554592D01*
X311423Y555078D01*
X332435Y534066D01*
Y504650D01*
X324100D01*
Y492950D01*
X343400D01*
Y504650D01*
X337064D01*
Y535024D01*
X336888Y535910D01*
X336386Y536661D01*
X308564Y564483D01*
Y586758D01*
X310537Y587575D01*
X312312Y588938D01*
X313675Y590713D01*
X314531Y592781D01*
X314823Y595000D01*
X314531Y597219D01*
X313675Y599287D01*
X312312Y601062D01*
X310537Y602425D01*
X308469Y603281D01*
X306250Y603573D01*
D02*
G37*
G36*
X274250Y557500D02*
X266250D01*
Y551773D01*
X265113Y550637D01*
X264612Y549886D01*
X264436Y549001D01*
Y504650D01*
X257100D01*
Y492950D01*
X276400D01*
Y504650D01*
X269064D01*
Y548042D01*
X269523Y548500D01*
X274250D01*
Y557500D01*
D02*
G37*
G36*
X235250Y556500D02*
X227250D01*
Y551273D01*
X223113Y547137D01*
X222612Y546386D01*
X222435Y545500D01*
Y502650D01*
X215100D01*
Y490950D01*
X234400D01*
Y502650D01*
X227064D01*
Y544542D01*
X230023Y547500D01*
X235250D01*
Y556500D01*
D02*
G37*
G36*
X234400Y473050D02*
X215100D01*
Y461350D01*
X231127D01*
X240935Y451541D01*
Y444282D01*
X239666Y444198D01*
X239531Y445219D01*
X238675Y447286D01*
X237312Y449062D01*
X235537Y450424D01*
X233469Y451281D01*
X231250Y451573D01*
X229031Y451281D01*
X226963Y450424D01*
X225188Y449062D01*
X223825Y447286D01*
X222969Y445219D01*
X222677Y443000D01*
X222969Y440781D01*
X223825Y438713D01*
X225188Y436937D01*
X226963Y435575D01*
X229031Y434719D01*
X231250Y434426D01*
X233469Y434719D01*
X235537Y435575D01*
X237312Y436937D01*
X238675Y438713D01*
X239531Y440781D01*
X239666Y441801D01*
X240935Y441718D01*
Y350500D01*
X241112Y349614D01*
X241613Y348863D01*
X277013Y313463D01*
X277764Y312962D01*
X278650Y312785D01*
X311691D01*
X316185Y308291D01*
Y292000D01*
X316362Y291114D01*
X316863Y290363D01*
X325778Y281448D01*
X326529Y280947D01*
X327415Y280770D01*
X331401D01*
X331781Y280201D01*
X333104Y279317D01*
X334665Y279007D01*
X336226Y279317D01*
X337549Y280201D01*
X338433Y281524D01*
X338743Y283085D01*
X338433Y284646D01*
X337549Y285969D01*
X336226Y286853D01*
X334665Y287163D01*
X333104Y286853D01*
X331781Y285969D01*
X331401Y285399D01*
X328374D01*
X320814Y292959D01*
Y309250D01*
X320638Y310136D01*
X320136Y310887D01*
X314287Y316737D01*
X313536Y317238D01*
X312650Y317414D01*
X279609D01*
X245564Y351459D01*
Y452500D01*
X245388Y453386D01*
X244887Y454137D01*
X234400Y464623D01*
Y473050D01*
D02*
G37*
G36*
X306250Y451573D02*
X304031Y451281D01*
X301963Y450424D01*
X300188Y449062D01*
X298825Y447286D01*
X297969Y445219D01*
X297677Y443000D01*
X297969Y440781D01*
X298825Y438713D01*
X300188Y436937D01*
X301963Y435575D01*
X304031Y434719D01*
X306250Y434426D01*
X308469Y434719D01*
X310537Y435575D01*
X312312Y436937D01*
X313675Y438713D01*
X314531Y440781D01*
X314823Y443000D01*
X314531Y445219D01*
X313675Y447286D01*
X312312Y449062D01*
X310537Y450424D01*
X308469Y451281D01*
X306250Y451573D01*
D02*
G37*
G36*
X281250D02*
X279031Y451281D01*
X276963Y450424D01*
X275188Y449062D01*
X273825Y447286D01*
X272969Y445219D01*
X272677Y443000D01*
X272969Y440781D01*
X273825Y438713D01*
X275188Y436937D01*
X276963Y435575D01*
X279031Y434719D01*
X281250Y434426D01*
X283469Y434719D01*
X285536Y435575D01*
X287312Y436937D01*
X288675Y438713D01*
X289531Y440781D01*
X289823Y443000D01*
X289531Y445219D01*
X288675Y447286D01*
X287312Y449062D01*
X285536Y450424D01*
X283469Y451281D01*
X281250Y451573D01*
D02*
G37*
G36*
X206250D02*
X204031Y451281D01*
X201963Y450424D01*
X200187Y449062D01*
X198825Y447286D01*
X197969Y445219D01*
X197676Y443000D01*
X197969Y440781D01*
X198825Y438713D01*
X200187Y436937D01*
X201963Y435575D01*
X204031Y434719D01*
X206250Y434426D01*
X208469Y434719D01*
X210536Y435575D01*
X212312Y436937D01*
X213675Y438713D01*
X214531Y440781D01*
X214823Y443000D01*
X214531Y445219D01*
X213675Y447286D01*
X212312Y449062D01*
X210536Y450424D01*
X208469Y451281D01*
X206250Y451573D01*
D02*
G37*
G36*
X181250D02*
X179031Y451281D01*
X176963Y450424D01*
X175188Y449062D01*
X173825Y447286D01*
X172969Y445219D01*
X172677Y443000D01*
X172969Y440781D01*
X173825Y438713D01*
X175188Y436937D01*
X176963Y435575D01*
X179031Y434719D01*
X181250Y434426D01*
X183469Y434719D01*
X185537Y435575D01*
X187312Y436937D01*
X188675Y438713D01*
X189531Y440781D01*
X189823Y443000D01*
X189531Y445219D01*
X188675Y447286D01*
X187312Y449062D01*
X185537Y450424D01*
X183469Y451281D01*
X181250Y451573D01*
D02*
G37*
G36*
X342750Y490314D02*
X282250D01*
X281364Y490138D01*
X280613Y489636D01*
X270113Y479137D01*
X269612Y478386D01*
X269436Y477500D01*
Y475050D01*
X257100D01*
Y464330D01*
X255830Y463804D01*
X241575Y478059D01*
X240914Y478501D01*
X240133Y478656D01*
X240133Y478656D01*
X194455D01*
X193674Y478501D01*
X193013Y478059D01*
X192571Y477397D01*
X192415Y476617D01*
Y472050D01*
X185100D01*
Y460350D01*
X204400D01*
Y472050D01*
X196494D01*
Y474577D01*
X239289D01*
X264711Y449155D01*
Y447954D01*
X263441Y447592D01*
X262312Y449062D01*
X260537Y450424D01*
X258469Y451281D01*
X256250Y451573D01*
X254031Y451281D01*
X251964Y450424D01*
X250188Y449062D01*
X248825Y447286D01*
X247969Y445219D01*
X247677Y443000D01*
X247969Y440781D01*
X248825Y438713D01*
X250188Y436937D01*
X251964Y435575D01*
X254031Y434719D01*
X256250Y434426D01*
X258469Y434719D01*
X260537Y435575D01*
X262312Y436937D01*
X263441Y438408D01*
X264711Y438046D01*
Y336000D01*
X264711Y336000D01*
X264866Y335220D01*
X265308Y334558D01*
X270308Y329558D01*
X270970Y329116D01*
X271750Y328961D01*
X324052D01*
X324616Y328116D01*
X325939Y327232D01*
X327500Y326922D01*
X329061Y327232D01*
X330384Y328116D01*
X331268Y329439D01*
X331578Y331000D01*
X331268Y332561D01*
X330384Y333884D01*
X329061Y334768D01*
X327500Y335078D01*
X325939Y334768D01*
X324616Y333884D01*
X324052Y333039D01*
X272595D01*
X271406Y334228D01*
X272189Y335232D01*
X273750Y334922D01*
X275311Y335232D01*
X276634Y336116D01*
X277518Y337439D01*
X277828Y339000D01*
X277695Y339672D01*
X335387Y397363D01*
X335888Y398114D01*
X336064Y399000D01*
Y463350D01*
X343400D01*
Y471328D01*
X344573Y471814D01*
X348936Y467452D01*
Y346929D01*
X336613Y334607D01*
X336112Y333856D01*
X335936Y332970D01*
Y330037D01*
X335366Y329657D01*
X334482Y328334D01*
X334172Y326773D01*
X334482Y325212D01*
X335366Y323889D01*
X336689Y323005D01*
X338250Y322695D01*
X339811Y323005D01*
X341134Y323889D01*
X342018Y325212D01*
X342328Y326773D01*
X342018Y328334D01*
X341134Y329657D01*
X340564Y330037D01*
Y332011D01*
X352887Y344333D01*
X353388Y345084D01*
X353564Y345970D01*
Y468410D01*
X353388Y469296D01*
X352887Y470047D01*
X341024Y481909D01*
X340273Y482411D01*
X339387Y482587D01*
X315623D01*
X314737Y482411D01*
X313986Y481909D01*
X307127Y475050D01*
X291100D01*
Y463350D01*
X310400D01*
Y471777D01*
X316581Y477958D01*
X338429D01*
X340164Y476223D01*
X339678Y475050D01*
X324100D01*
Y463350D01*
X331436D01*
Y399959D01*
X274422Y342945D01*
X273750Y343078D01*
X272189Y342768D01*
X270866Y341884D01*
X270726Y341674D01*
X269000Y341364D01*
X268789Y341515D01*
Y450000D01*
X268634Y450780D01*
X268192Y451442D01*
X257554Y462080D01*
X258080Y463350D01*
X276400D01*
Y475050D01*
X274065D01*
Y476541D01*
X283209Y485686D01*
X341791D01*
X386185Y441291D01*
Y355764D01*
X385616Y355384D01*
X384732Y354061D01*
X384422Y352500D01*
X384732Y350939D01*
X385616Y349616D01*
X386939Y348732D01*
X388500Y348422D01*
X390061Y348732D01*
X391384Y349616D01*
X392268Y350939D01*
X392578Y352500D01*
X392268Y354061D01*
X391384Y355384D01*
X390815Y355764D01*
Y442250D01*
X390638Y443136D01*
X390137Y443886D01*
X344387Y489636D01*
X343636Y490138D01*
X342750Y490314D01*
D02*
G37*
G36*
X149250Y343929D02*
Y333400D01*
X159779D01*
X159467Y335771D01*
X158358Y338447D01*
X156595Y340745D01*
X154297Y342508D01*
X151622Y343617D01*
X149250Y343929D01*
D02*
G37*
G36*
X148250D02*
X145878Y343617D01*
X143202Y342508D01*
X140905Y340745D01*
X139142Y338447D01*
X138033Y335771D01*
X137721Y333400D01*
X148250D01*
Y343929D01*
D02*
G37*
G36*
X159779Y332400D02*
X149250D01*
Y321871D01*
X151622Y322183D01*
X154297Y323292D01*
X156595Y325055D01*
X158358Y327352D01*
X159467Y330028D01*
X159779Y332400D01*
D02*
G37*
G36*
X148250D02*
X137721D01*
X138033Y330028D01*
X139142Y327352D01*
X140905Y325055D01*
X143202Y323292D01*
X145878Y322183D01*
X148250Y321871D01*
Y332400D01*
D02*
G37*
G36*
X148750Y318595D02*
X145878Y318217D01*
X143202Y317108D01*
X140905Y315345D01*
X139142Y313047D01*
X138033Y310371D01*
X137655Y307500D01*
X138033Y304628D01*
X139142Y301952D01*
X140905Y299655D01*
X143202Y297892D01*
X145878Y296783D01*
X148750Y296405D01*
X151622Y296783D01*
X154297Y297892D01*
X156595Y299655D01*
X158358Y301952D01*
X159467Y304628D01*
X159540Y305186D01*
X238532D01*
X244547Y299170D01*
X244021Y297900D01*
X232960D01*
Y282100D01*
X245460D01*
Y287370D01*
X246730Y287716D01*
X250062Y284384D01*
X250223Y284143D01*
X257211Y277155D01*
Y271500D01*
X257211Y271500D01*
X257366Y270720D01*
X257808Y270058D01*
X257808Y270058D01*
X263793Y264073D01*
X263307Y262900D01*
X262120D01*
Y247100D01*
X266961D01*
Y233095D01*
X260746Y226880D01*
X259750Y227078D01*
X258189Y226768D01*
X256866Y225884D01*
X255982Y224561D01*
X255672Y223000D01*
X255982Y221439D01*
X256866Y220116D01*
X258189Y219232D01*
X259750Y218922D01*
X261311Y219232D01*
X261554Y219395D01*
X262610Y218338D01*
X263272Y217896D01*
X264052Y217741D01*
X273450D01*
Y213530D01*
X289250D01*
Y226030D01*
X273450D01*
Y221819D01*
X264897D01*
X263885Y222832D01*
X263810Y224176D01*
X270442Y230808D01*
X270442Y230808D01*
X270884Y231470D01*
X271039Y232250D01*
Y247100D01*
X274620D01*
Y262900D01*
X270210D01*
X270134Y263280D01*
X269692Y263942D01*
X261289Y272345D01*
Y278000D01*
X261134Y278780D01*
X260692Y279442D01*
X253268Y286866D01*
X253107Y287107D01*
X248772Y291442D01*
X248110Y291884D01*
X247330Y292039D01*
X245460D01*
Y296461D01*
X246730Y296987D01*
X276854Y266863D01*
X277604Y266362D01*
X278490Y266185D01*
X295236D01*
X295616Y265616D01*
X296939Y264732D01*
X298500Y264422D01*
X300061Y264732D01*
X301384Y265616D01*
X302268Y266939D01*
X302578Y268500D01*
X302268Y270061D01*
X301384Y271384D01*
X300061Y272268D01*
X298500Y272578D01*
X296939Y272268D01*
X295616Y271384D01*
X295236Y270814D01*
X279449D01*
X272687Y277577D01*
X273173Y278750D01*
X286650D01*
Y281420D01*
X287920Y281946D01*
X289703Y280163D01*
X290364Y279721D01*
X291145Y279566D01*
X295302D01*
X295866Y278721D01*
X297189Y277837D01*
X298750Y277527D01*
X299746Y277725D01*
X320413Y257058D01*
X321075Y256616D01*
X321855Y256461D01*
X342750D01*
Y250600D01*
X346961D01*
Y227650D01*
X343500D01*
Y211850D01*
X356000D01*
Y227650D01*
X351039D01*
Y250600D01*
X355250D01*
Y266400D01*
X351039D01*
Y277850D01*
X355370D01*
Y290766D01*
X366937Y302333D01*
X367750Y302172D01*
X369311Y302482D01*
X370634Y303366D01*
X371518Y304689D01*
X371828Y306250D01*
X371518Y307811D01*
X370634Y309134D01*
X369311Y310018D01*
X367750Y310328D01*
X366189Y310018D01*
X364866Y309134D01*
X363982Y307811D01*
X363672Y306250D01*
X363906Y305070D01*
X352486Y293650D01*
X342870D01*
Y280047D01*
X342831Y279850D01*
X342870Y279653D01*
Y277850D01*
X344673D01*
X344870Y277811D01*
X346400D01*
X346961Y276682D01*
Y266400D01*
X342750D01*
Y260539D01*
X322700D01*
X302630Y280609D01*
X302828Y281605D01*
X302518Y283166D01*
X301634Y284489D01*
X300311Y285373D01*
X298750Y285683D01*
X297189Y285373D01*
X295866Y284489D01*
X295302Y283644D01*
X291990D01*
X288942Y286692D01*
X288942Y286692D01*
X288280Y287134D01*
X287500Y287289D01*
X286650Y288132D01*
Y291250D01*
X270850D01*
Y281073D01*
X269677Y280587D01*
X241127Y309137D01*
X240376Y309638D01*
X239490Y309814D01*
X159540D01*
X159467Y310371D01*
X158358Y313047D01*
X156595Y315345D01*
X154297Y317108D01*
X151622Y318217D01*
X148750Y318595D01*
D02*
G37*
G36*
Y293195D02*
X145878Y292817D01*
X143202Y291708D01*
X140905Y289945D01*
X139142Y287647D01*
X138033Y284972D01*
X137655Y282100D01*
X138033Y279228D01*
X139142Y276553D01*
X140905Y274255D01*
X143202Y272491D01*
X145878Y271383D01*
X148750Y271005D01*
X151622Y271383D01*
X154297Y272491D01*
X156595Y274255D01*
X158358Y276553D01*
X159467Y279228D01*
X159845Y282100D01*
X159467Y284972D01*
X158358Y287647D01*
X156595Y289945D01*
X154297Y291708D01*
X151622Y292817D01*
X148750Y293195D01*
D02*
G37*
G36*
X230165Y275163D02*
X228604Y274853D01*
X227281Y273969D01*
X226397Y272646D01*
X226087Y271085D01*
X226220Y270413D01*
X167113Y211307D01*
X166612Y210556D01*
X166436Y209670D01*
Y191158D01*
X154743Y179466D01*
X154297Y179808D01*
X151622Y180916D01*
X148750Y181294D01*
X145878Y180916D01*
X143202Y179808D01*
X140905Y178044D01*
X139142Y175747D01*
X138033Y173071D01*
X137655Y170199D01*
X138033Y167328D01*
X139142Y164652D01*
X140905Y162354D01*
X143202Y160591D01*
X145878Y159482D01*
X148750Y159104D01*
X151622Y159482D01*
X154297Y160591D01*
X156595Y162354D01*
X158358Y164652D01*
X159467Y167328D01*
X159845Y170199D01*
X159467Y173071D01*
X158358Y175747D01*
X158016Y176192D01*
X170387Y188563D01*
X170888Y189314D01*
X171064Y190199D01*
Y208711D01*
X175111Y212758D01*
X175360Y212714D01*
X176436Y211680D01*
Y175758D01*
X154743Y154066D01*
X154297Y154408D01*
X151622Y155516D01*
X148750Y155894D01*
X145878Y155516D01*
X143202Y154408D01*
X140905Y152645D01*
X139142Y150347D01*
X138033Y147671D01*
X137655Y144799D01*
X138033Y141928D01*
X139142Y139252D01*
X140905Y136954D01*
X143202Y135191D01*
X145878Y134082D01*
X148750Y133704D01*
X151622Y134082D01*
X154297Y135191D01*
X156595Y136954D01*
X158358Y139252D01*
X159467Y141928D01*
X159845Y144799D01*
X159467Y147671D01*
X158358Y150347D01*
X158016Y150793D01*
X180387Y173163D01*
X180888Y173913D01*
X181064Y174799D01*
Y210721D01*
X185984Y215641D01*
X204536D01*
X205421Y215817D01*
X206172Y216319D01*
X246993Y257140D01*
X247665Y257007D01*
X249226Y257317D01*
X250549Y258201D01*
X251433Y259524D01*
X251743Y261085D01*
X251433Y262646D01*
X250549Y263969D01*
X249226Y264853D01*
X247665Y265163D01*
X246104Y264853D01*
X244781Y263969D01*
X243897Y262646D01*
X243587Y261085D01*
X243720Y260413D01*
X203577Y220270D01*
X185026D01*
X183992Y221345D01*
X183947Y221594D01*
X229493Y267140D01*
X230165Y267007D01*
X231726Y267317D01*
X233049Y268201D01*
X233933Y269524D01*
X234243Y271085D01*
X233933Y272646D01*
X233049Y273969D01*
X231726Y274853D01*
X230165Y275163D01*
D02*
G37*
G36*
X148750Y267795D02*
X145878Y267417D01*
X143202Y266308D01*
X140905Y264545D01*
X139142Y262247D01*
X138033Y259571D01*
X137655Y256700D01*
X138033Y253828D01*
X139142Y251152D01*
X140905Y248855D01*
X143202Y247092D01*
X145878Y245983D01*
X148750Y245605D01*
X151622Y245983D01*
X154297Y247092D01*
X156595Y248855D01*
X158358Y251152D01*
X159467Y253828D01*
X159845Y256700D01*
X159467Y259571D01*
X158358Y262247D01*
X156595Y264545D01*
X154297Y266308D01*
X151622Y267417D01*
X148750Y267795D01*
D02*
G37*
G36*
X334750Y245578D02*
X333189Y245268D01*
X331866Y244384D01*
X330982Y243061D01*
X330672Y241500D01*
X330805Y240828D01*
X302151Y212174D01*
X252079D01*
X245477Y218777D01*
X244726Y219278D01*
X243840Y219454D01*
X228160D01*
X227274Y219278D01*
X226523Y218777D01*
X203311Y195564D01*
X194014D01*
X193634Y196134D01*
X192311Y197018D01*
X190750Y197328D01*
X189189Y197018D01*
X187866Y196134D01*
X186982Y194811D01*
X186672Y193250D01*
X186982Y191689D01*
X187866Y190366D01*
X189189Y189482D01*
X190750Y189172D01*
X192311Y189482D01*
X193634Y190366D01*
X194014Y190935D01*
X204270D01*
X205155Y191112D01*
X205906Y191613D01*
X229118Y214825D01*
X242882D01*
X249484Y208223D01*
X250235Y207722D01*
X251120Y207546D01*
X303110D01*
X303996Y207722D01*
X304747Y208223D01*
X334078Y237555D01*
X334750Y237422D01*
X336311Y237732D01*
X337634Y238616D01*
X338518Y239939D01*
X338828Y241500D01*
X338518Y243061D01*
X337634Y244384D01*
X336311Y245268D01*
X334750Y245578D01*
D02*
G37*
G36*
X159750Y242300D02*
X137750D01*
Y220300D01*
X159750D01*
Y242300D01*
D02*
G37*
G36*
X149250Y206628D02*
Y196099D01*
X159779D01*
X159467Y198471D01*
X158358Y201147D01*
X156595Y203444D01*
X154297Y205208D01*
X151622Y206316D01*
X149250Y206628D01*
D02*
G37*
G36*
X148250D02*
X145878Y206316D01*
X143202Y205208D01*
X140905Y203444D01*
X139142Y201147D01*
X138033Y198471D01*
X137721Y196099D01*
X148250D01*
Y206628D01*
D02*
G37*
G36*
X159779Y195099D02*
X149250D01*
Y184570D01*
X151622Y184882D01*
X154297Y185991D01*
X156595Y187754D01*
X158358Y190052D01*
X159467Y192728D01*
X159779Y195099D01*
D02*
G37*
G36*
X148250D02*
X137721D01*
X138033Y192728D01*
X139142Y190052D01*
X140905Y187754D01*
X143202Y185991D01*
X145878Y184882D01*
X148250Y184570D01*
Y195099D01*
D02*
G37*
G36*
X159750Y130399D02*
X137750D01*
Y108399D01*
X159750D01*
Y130399D01*
D02*
G37*
G36*
X430000Y76077D02*
X426863Y75768D01*
X423847Y74854D01*
X421068Y73368D01*
X418632Y71368D01*
X416632Y68932D01*
X415146Y66153D01*
X414231Y63137D01*
X413923Y60000D01*
X414231Y56863D01*
X415146Y53847D01*
X416632Y51068D01*
X418632Y48632D01*
X421068Y46632D01*
X423847Y45146D01*
X426863Y44232D01*
X430000Y43923D01*
X433136Y44232D01*
X436152Y45146D01*
X438932Y46632D01*
X441368Y48632D01*
X443368Y51068D01*
X444854Y53847D01*
X445769Y56863D01*
X446077Y60000D01*
X445769Y63137D01*
X444854Y66153D01*
X443368Y68932D01*
X441368Y71368D01*
X438932Y73368D01*
X436152Y74854D01*
X433136Y75768D01*
X430000Y76077D01*
D02*
G37*
G36*
X50000D02*
X46863Y75768D01*
X43847Y74854D01*
X41068Y73368D01*
X38631Y71368D01*
X36632Y68932D01*
X35146Y66153D01*
X34232Y63137D01*
X33923Y60000D01*
X34232Y56863D01*
X35146Y53847D01*
X36632Y51068D01*
X38631Y48632D01*
X41068Y46632D01*
X43847Y45146D01*
X46863Y44232D01*
X50000Y43923D01*
X53137Y44232D01*
X56153Y45146D01*
X58932Y46632D01*
X61368Y48632D01*
X63368Y51068D01*
X64854Y53847D01*
X65768Y56863D01*
X66077Y60000D01*
X65768Y63137D01*
X64854Y66153D01*
X63368Y68932D01*
X61368Y71368D01*
X58932Y73368D01*
X56153Y74854D01*
X53137Y75768D01*
X50000Y76077D01*
D02*
G37*
%LPD*%
D14*
X1224000Y884500D02*
D03*
X1194000D02*
D03*
X1229000Y779500D02*
D03*
X1259000D02*
D03*
X347500Y975000D02*
D03*
X377500D02*
D03*
X1024500Y175000D02*
D03*
X1054500D02*
D03*
X1024500Y200042D02*
D03*
X1054500D02*
D03*
X1024500Y225085D02*
D03*
X1054500D02*
D03*
X1024500Y255000D02*
D03*
X1054500D02*
D03*
X1024500Y285000D02*
D03*
X1054500D02*
D03*
D15*
X1159000Y839500D02*
D03*
Y809500D02*
D03*
X1249000D02*
D03*
Y839500D02*
D03*
X1219000Y809500D02*
D03*
Y839500D02*
D03*
X1189000Y809500D02*
D03*
Y839500D02*
D03*
X237500Y877500D02*
D03*
Y847500D02*
D03*
X362500Y1025000D02*
D03*
Y995000D02*
D03*
X317620Y1025000D02*
D03*
Y995000D02*
D03*
X217620Y922500D02*
D03*
Y952500D02*
D03*
Y1027500D02*
D03*
Y997500D02*
D03*
X280120Y922500D02*
D03*
Y952500D02*
D03*
Y1027500D02*
D03*
Y997500D02*
D03*
X317620Y922500D02*
D03*
Y952500D02*
D03*
X350000Y902500D02*
D03*
Y872500D02*
D03*
X200000Y1212500D02*
D03*
Y1242500D02*
D03*
X325000Y1220000D02*
D03*
Y1250000D02*
D03*
X874500Y300000D02*
D03*
Y330000D02*
D03*
X899542Y300000D02*
D03*
Y330000D02*
D03*
X924585Y300000D02*
D03*
Y330000D02*
D03*
X1109500Y220000D02*
D03*
Y250000D02*
D03*
X1139500Y220000D02*
D03*
Y250000D02*
D03*
X1149500Y365000D02*
D03*
Y395000D02*
D03*
X974500Y210000D02*
D03*
Y240000D02*
D03*
D19*
X1159000Y826743D02*
Y839500D01*
X1179000Y794500D02*
X1189000D01*
X1170000Y803500D02*
X1179000Y794500D01*
X1170000Y803500D02*
Y815743D01*
X1159000Y826743D02*
X1170000Y815743D01*
X1139000Y812257D02*
X1174000Y777257D01*
X1139000Y812257D02*
Y924500D01*
X1219000Y849500D02*
X1224000Y854500D01*
X1219000Y839500D02*
Y849500D01*
X1224000Y854500D02*
Y884500D01*
X1239000Y859500D02*
Y882743D01*
X1287000Y932500D02*
X1304000Y949500D01*
X1226500Y932500D02*
X1287000D01*
X1224000Y884500D02*
X1237243D01*
X1239000Y882743D01*
X1174000Y662743D02*
Y777257D01*
X1189000Y764500D02*
X1234000D01*
X1249000Y779500D02*
X1267243D01*
X1234000Y764500D02*
X1249000Y779500D01*
X1267243D02*
X1269000Y781257D01*
Y834500D01*
X1264000Y839500D02*
X1269000Y834500D01*
X1249000Y839500D02*
X1264000D01*
X1219000D02*
X1249000D01*
X1189000D02*
Y849500D01*
X1194000Y854500D01*
Y884500D01*
X1159000Y839500D02*
X1189000D01*
X211120Y1034000D02*
X200000Y1045120D01*
Y1050000D02*
Y1045120D01*
X217620Y1027500D02*
X214620D01*
X211120Y1031000D01*
Y1034000D02*
Y1031000D01*
X343500Y909000D02*
X340574Y911926D01*
X350000Y902500D02*
X347000D01*
X343500Y906000D01*
Y909000D02*
Y906000D01*
X252500Y877500D02*
X237500D01*
X262500Y887500D02*
X252500Y877500D01*
X327620Y912500D02*
X324120Y916000D01*
X337500Y912500D02*
X327620D01*
X320620Y922500D02*
X317620D01*
X324120Y919000D02*
X320620Y922500D01*
X324120Y919000D02*
Y916000D01*
X337500Y1044880D02*
X324120Y1031500D01*
X337500Y1050000D02*
Y1044880D01*
X320620Y1025000D02*
X317620D01*
X324120Y1028500D02*
X320620Y1025000D01*
X324120Y1031500D02*
Y1028500D01*
X317620Y1025000D02*
X315120Y1027500D01*
X280120D01*
X217620D01*
X280120Y922500D02*
X217620D01*
X216000D02*
X214620D01*
X217620D02*
X216000D01*
X211120Y1024000D02*
Y1021000D01*
X202620Y1012500D01*
X201757D02*
X200000Y1010743D01*
Y940120D01*
X214620Y1027500D02*
X211120Y1024000D01*
X202620Y1012500D02*
X201757D01*
X214620Y922500D02*
X211120Y926000D01*
Y929000D02*
X200000Y940120D01*
X211120Y929000D02*
Y926000D01*
X250000Y900000D02*
X200000D01*
X212500Y919000D02*
Y912500D01*
X200000Y900000D01*
X317620Y922500D02*
X280120D01*
X216000D02*
X212500Y919000D01*
X262500Y887500D02*
X250000Y900000D01*
X237500Y1212500D02*
X200000D01*
X197000D02*
X193500Y1209000D01*
X200000Y1212500D02*
X197000D01*
X187100Y1199600D02*
X137500D01*
X193500Y1206000D02*
X187100Y1199600D01*
X193500Y1209000D02*
Y1206000D01*
X249500Y1235900D02*
Y1225500D01*
X262500Y1212500D02*
X249500Y1225500D01*
X287500Y1212500D02*
X262500D01*
X300000D02*
X287500D01*
X325000Y1220000D02*
X307500D01*
X300000Y1212500D01*
X909500Y280000D02*
X899542Y289958D01*
X939500Y280000D02*
X909500D01*
X918500Y379000D02*
Y425250D01*
X899500Y360000D02*
X918500Y379000D01*
X899500Y330042D02*
Y360000D01*
X899542Y330000D02*
X899500Y330042D01*
X889500Y270000D02*
X874500Y285000D01*
X939500Y270000D02*
X889500D01*
X874500Y366000D02*
X884000Y375500D01*
X874500Y330000D02*
Y366000D01*
X899542Y289958D02*
Y300000D01*
X874500Y285000D02*
Y300000D01*
X884000Y375500D02*
Y377000D01*
X949500Y290000D02*
X937585D01*
X927585Y300000D01*
X924585D01*
X899500Y375000D02*
Y410000D01*
X769500Y255000D02*
Y295000D01*
X799500Y225000D02*
X769500Y255000D01*
X874500Y400000D02*
X849500D01*
X829500Y380000D02*
X849500Y400000D01*
X829500Y355000D02*
Y380000D01*
X799500Y325000D02*
X829500Y355000D01*
X699500Y324600D02*
X695857D01*
X909000Y448250D02*
X823150D01*
X699500Y324600D02*
X823150Y448250D01*
X769500Y295000D02*
X799500Y325000D01*
X869500Y380000D02*
X899500Y410000D01*
X959000Y389500D02*
Y463750D01*
X924585Y355085D02*
X959000Y389500D01*
X924585Y330000D02*
Y355085D01*
X669500Y298243D02*
X695857Y324600D01*
X669500Y255000D02*
Y298243D01*
X699500Y225000D02*
X669500Y255000D01*
X1074500Y185000D02*
Y205000D01*
X1099000Y229500D01*
Y269500D01*
X1099500Y270000D01*
X989500Y210000D02*
X974500D01*
X1220125Y325000D02*
X1229500Y334375D01*
X1101500Y320000D02*
X1029500D01*
X1101500D02*
X1146500Y365000D01*
X999500Y260000D02*
X969500Y290000D01*
X1051400Y338250D02*
X1029650Y360000D01*
X979500D01*
X969500Y350000D02*
X979500Y360000D01*
X969500Y290000D02*
Y350000D01*
X1039500Y150550D02*
Y220000D01*
X1051800Y138250D02*
X1039500Y150550D01*
X949500Y125000D02*
Y150000D01*
X1038950Y100000D02*
X1077200Y138250D01*
X1038950Y100000D02*
X974500D01*
X949500Y125000D01*
X989500Y190000D02*
Y200000D01*
X1026400Y138250D02*
Y153100D01*
X989500Y190000D01*
X924500Y175000D02*
Y190000D01*
X968000Y233500D01*
Y236500D02*
X971500Y240000D01*
X968000Y233500D02*
Y236500D01*
X1024500Y228085D02*
X1028000Y231585D01*
X1031000D02*
X1028000D01*
X1039500Y235000D02*
X1034415D01*
X1031000Y231585D02*
X1034415Y235000D01*
X974500Y240000D02*
X971500D01*
X1149500Y365000D02*
X1146500D01*
X1054500Y200042D02*
Y225085D01*
X1024500D02*
Y228085D01*
Y299675D02*
Y314350D01*
X1000600Y338250D01*
X1059825Y299675D02*
X1024500D01*
Y228085D02*
Y255000D01*
X940000Y463500D02*
Y465000D01*
X942000Y467000D01*
X946500D02*
X942000D01*
X979500Y490000D02*
X969500D01*
X946500Y467000D02*
X969500Y490000D01*
X975600Y138250D02*
Y208900D01*
X974500Y210000D01*
X1054500Y270000D02*
Y285000D01*
Y255000D02*
Y270000D01*
X1099500D02*
X1054500D01*
X1109500Y250000D02*
Y280000D01*
X1100619Y288881D02*
X1070619D01*
X1109500Y280000D02*
X1100619Y288881D01*
X1139500Y250000D02*
X1109500D01*
X1070619Y288881D02*
X1059825Y299675D01*
X1024500Y285000D02*
Y299675D01*
X1531500Y272000D02*
Y325000D01*
X1489500Y230000D02*
X1531500Y272000D01*
X1489500Y130000D02*
Y230000D01*
X1517500Y325000D02*
X1492500Y350000D01*
X1342500D01*
X1419500Y287000D02*
X1381500Y325000D01*
X1419500Y230000D02*
Y287000D01*
Y130000D02*
Y230000D01*
X1220125Y325000D02*
X1215750D01*
X1342500Y350000D02*
X1231257D01*
X1229500Y348243D02*
X1231257Y350000D01*
X1229500Y334375D02*
Y348243D01*
X1367500Y325000D02*
X1342500Y350000D01*
X1146000Y255250D02*
X1215750Y325000D01*
X1146000Y253500D02*
Y255250D01*
X1142500Y250000D02*
X1146000Y253500D01*
X1142500Y250000D02*
X1139500D01*
X1269500Y294000D02*
X1238500Y325000D01*
X1269500Y230000D02*
Y294000D01*
Y130000D02*
Y230000D01*
X865000Y376750D02*
Y378000D01*
X867000Y380000D01*
X869500D02*
X867000D01*
X899500Y410000D02*
Y425000D01*
X940000Y462000D02*
Y463500D01*
X906500Y428500D02*
X940000Y462000D01*
X906500Y428500D02*
X901500D01*
X899500Y426500D02*
X901500Y428500D01*
X899500Y425000D02*
Y426500D01*
X1119500Y360000D02*
Y380000D01*
X1079500Y420000D01*
X1139500Y220000D02*
X1109500D01*
X1077200Y138250D02*
X1109500Y170550D01*
Y220000D01*
X1054500Y172000D02*
Y175000D01*
X1066100Y160400D02*
X1054500Y172000D01*
X1069100Y160400D02*
X1066100D01*
X1077200Y152300D02*
X1069100Y160400D01*
X1077200Y138250D02*
Y152300D01*
X1054500Y225085D02*
Y255000D01*
Y175000D02*
Y200042D01*
X1024500D02*
X999457D01*
X989500Y210000D01*
X1024500Y175000D02*
Y200042D01*
Y225085D01*
Y255000D02*
Y285000D01*
X1223400Y398500D02*
X1224500Y399600D01*
X1223400Y398500D02*
X1153000D01*
X1149500Y395000D02*
X1153000Y398500D01*
X599500Y325000D02*
X761250Y486750D01*
X949500D02*
X761250D01*
X769500Y155000D02*
Y198243D01*
X799500Y225000D02*
X796257D01*
X769500Y198243D02*
X796257Y225000D01*
X799500Y125000D02*
X769500Y155000D01*
X669500Y198243D02*
X696257Y225000D01*
X699500Y125000D02*
X669500Y155000D01*
Y198243D01*
X699500Y225000D02*
X696257D01*
X569500Y255000D02*
Y298243D01*
X599500Y325000D02*
X596257D01*
X569500Y298243D02*
X596257Y325000D01*
X599500Y225000D02*
X569500Y255000D01*
Y195000D02*
X599500Y225000D01*
X569500Y155000D02*
Y195000D01*
X599500Y125000D02*
X569500Y155000D01*
D25*
X300000Y1087500D02*
X275000Y1062500D01*
X400000Y1087500D02*
X300000D01*
X399600Y1062500D02*
X300000D01*
X400000Y1062100D02*
X399600Y1062500D01*
X263300Y812500D02*
X237500Y838300D01*
Y847500D02*
Y838300D01*
X311735Y849235D02*
Y848035D01*
X288700Y825000D02*
Y812500D01*
Y825000D02*
X251200Y862500D01*
X312500Y850000D02*
X311735Y849235D01*
X251200Y862500D02*
X225000D01*
X237500Y847500D02*
X235000Y850000D01*
X359879Y1025000D02*
X355879Y1021000D01*
X362500Y1025000D02*
X359879D01*
X365121D02*
X362500D01*
X369121Y1029000D02*
X365121Y1025000D01*
X377500Y977621D02*
X373500Y981621D01*
X370879D02*
X364328Y988172D01*
Y993171D02*
Y988172D01*
X377500Y977621D02*
Y975000D01*
X373500Y981621D02*
X370879D01*
X364328Y993171D02*
X362500Y995000D01*
X375000Y972500D02*
Y950000D01*
X377500Y975000D02*
X375000Y972500D01*
X343500Y971000D02*
Y947500D01*
X347500Y975000D02*
X343500Y971000D01*
X324241Y948500D02*
X320241Y952500D01*
X317620D01*
X356500Y947500D02*
Y944879D01*
X354750Y943129D01*
X375000Y937500D02*
X365000Y927500D01*
X350000D01*
X375000Y862500D02*
X365000Y872500D01*
X350000D01*
X225000Y862500D02*
X187500Y900000D01*
Y1000000D02*
Y900000D01*
X317620Y995000D02*
X315120Y997500D01*
X224241Y993500D02*
X220241Y997500D01*
X217620D01*
X212500Y850000D02*
X175000Y887500D01*
Y975000D02*
Y887500D01*
X235000Y850000D02*
X212500D01*
X312500D02*
Y825000D01*
X289228Y813028D02*
X288700Y812500D01*
X300528Y813028D02*
X289228D01*
X312500Y825000D02*
X300528Y813028D01*
X264576Y1135424D02*
Y1128444D01*
Y1135424D02*
X250000Y1150000D01*
X268020Y1125000D02*
X264576Y1128444D01*
X250000Y1150000D02*
X200000D01*
X162500Y1112500D01*
X281350Y219780D02*
X264052D01*
X260832Y223000D01*
X259750D01*
X349120Y285750D02*
Y287400D01*
X367750Y306030D01*
Y306250D01*
X345635Y280615D02*
X349000Y283980D01*
X344870Y279850D02*
X345635Y280615D01*
X269000Y232250D02*
Y254370D01*
X259750Y223000D02*
X269000Y232250D01*
X349000Y220500D02*
Y258500D01*
X349750Y219750D02*
X349000Y220500D01*
Y283980D02*
X349120Y284100D01*
X349000Y283980D02*
Y285630D01*
Y258500D02*
Y283980D01*
Y285630D02*
X349120Y285750D01*
X321855Y258500D02*
X298750Y281605D01*
X349120Y284100D02*
Y285750D01*
X346400Y279850D02*
X344870D01*
X349000Y258500D02*
X321855D01*
X268370Y255000D02*
X268250Y255119D01*
X269000Y254370D02*
X268370Y255000D01*
X268250Y255119D02*
Y262500D01*
X259250Y271500D01*
Y278000D01*
X251665Y285585D02*
Y285665D01*
X259250Y278000D02*
X251665Y285585D01*
X247330Y290000D02*
X239210D01*
X251665Y285665D02*
X247330Y290000D01*
X278750Y285000D02*
X279000Y285250D01*
X287500D02*
X279000D01*
X298750Y281605D02*
X291145D01*
X287500Y285250D01*
X327500Y331000D02*
X271750D01*
X266750Y336000D01*
Y450000D02*
X240133Y476617D01*
X266750Y336000D02*
Y450000D01*
X240133Y476617D02*
X194455D01*
Y466495D02*
Y476617D01*
X194750Y466200D02*
X194455Y466495D01*
D28*
X278750Y285000D02*
D03*
Y302760D02*
D03*
X281350Y219780D02*
D03*
Y202020D02*
D03*
D29*
X266750Y469200D02*
D03*
Y498800D02*
D03*
X333750Y469200D02*
D03*
Y498800D02*
D03*
X300750Y469200D02*
D03*
Y498800D02*
D03*
X224750Y496800D02*
D03*
Y467200D02*
D03*
X194750Y495800D02*
D03*
Y466200D02*
D03*
D33*
X349750Y219750D02*
D03*
X367510D02*
D03*
X349120Y285750D02*
D03*
X366880D02*
D03*
X239210Y290000D02*
D03*
X221450D02*
D03*
X366760Y258500D02*
D03*
X349000D02*
D03*
X286130Y255000D02*
D03*
X268370D02*
D03*
D35*
X296749Y572999D02*
D03*
X287250Y552999D02*
D03*
X306250D02*
D03*
X231250Y552000D02*
D03*
X212250D02*
D03*
X221750Y572000D02*
D03*
X260750Y573000D02*
D03*
X251250Y553000D02*
D03*
X270250D02*
D03*
D37*
X231748Y551998D02*
Y552498D01*
X229520Y549770D02*
X231748Y551998D01*
X388500Y442250D02*
X342750Y488000D01*
X388500Y352500D02*
Y442250D01*
X342750Y488000D02*
X282250D01*
X318500Y292000D02*
Y309250D01*
X312650Y315100D02*
X278650D01*
X318500Y309250D02*
X312650Y315100D01*
X334665Y283085D02*
X327415D01*
X318500Y292000D01*
X204536Y217955D02*
X247665Y261085D01*
X298500Y268500D02*
X278490D01*
X303110Y209860D02*
X334750Y241500D01*
X168750Y209670D02*
X230165Y271085D01*
X278650Y315100D02*
X243250Y350500D01*
X204270Y193250D02*
X190750D01*
X204270D02*
X228160Y217140D01*
X278490Y268500D02*
X239490Y307500D01*
X148750D01*
X178750Y211680D02*
X185026Y217955D01*
X178750Y174799D02*
Y211680D01*
X204536Y217955D02*
X185026D01*
X251120Y209860D02*
X243840Y217140D01*
X303110Y209860D02*
X251120D01*
X243840Y217140D02*
X228160D01*
X338250Y332970D02*
X351250Y345970D01*
X338250Y326773D02*
Y332970D01*
X351250Y345970D02*
Y468410D01*
X273750Y339000D02*
X333750Y399000D01*
Y469200D01*
X228550Y467200D02*
X224750D01*
X243250Y452500D02*
X228550Y467200D01*
X243250Y350500D02*
Y452500D01*
X351250Y468410D02*
X339387Y480273D01*
X304550Y469200D02*
X315623Y480273D01*
X339387D02*
X315623D01*
X304550Y469200D02*
X300750D01*
X271750Y477500D02*
X282250Y488000D01*
X271750Y472780D02*
Y477500D01*
X268170Y469200D02*
X266750D01*
X268170D02*
X271750Y472780D01*
X148750Y170199D02*
X168750Y190199D01*
Y209670D01*
X148750Y144799D02*
X178750Y174799D01*
X148750Y231300D02*
X152450Y235000D01*
X181250Y595000D02*
X209250Y623000D01*
X296749Y579500D02*
X281250Y595000D01*
X334750Y500000D02*
Y535024D01*
X306250Y563524D01*
Y595000D01*
X194750Y558500D02*
X231250Y595000D01*
X194750Y495800D02*
Y558500D01*
X255750Y623000D02*
X209250D01*
X268750Y610000D02*
X255750Y623000D01*
X268750Y581501D02*
Y610000D01*
X260750Y573000D02*
Y573500D01*
X268750Y581501D01*
X233250Y572000D02*
X221750D01*
X233250D02*
X256250Y595000D01*
X296749Y572999D02*
Y579500D01*
X266750Y498800D02*
Y549001D01*
X270250Y552500D01*
Y553000D01*
X224750Y496800D02*
Y545500D01*
X229020Y549770D01*
X229520D02*
X229020D01*
X300750Y499800D02*
Y547000D01*
X306250Y552500D01*
Y552999D01*
D63*
X1204000Y1021000D02*
D03*
X1464000Y514000D02*
D03*
X1183000Y515000D02*
D03*
X913000D02*
D03*
X638000D02*
D03*
X62500Y737500D02*
D03*
X337500D02*
D03*
D64*
X1458000Y1209000D02*
D03*
X1613000Y387000D02*
D03*
X1612000Y120000D02*
D03*
X1457000Y942000D02*
D03*
X1456000Y675000D02*
D03*
X969000Y970000D02*
D03*
X970000Y1237000D02*
D03*
X973000Y668000D02*
D03*
X487500Y887500D02*
D03*
Y1212500D02*
D03*
Y587500D02*
D03*
Y312500D02*
D03*
Y37500D02*
D03*
D65*
X1313200Y604500D02*
D03*
X1338600D02*
D03*
X1287800D02*
D03*
X1262400D02*
D03*
X1304000Y949500D02*
D03*
X1269000D02*
D03*
X1079000Y694900D02*
D03*
Y669500D02*
D03*
Y720300D02*
D03*
X400000Y1087500D02*
D03*
Y1112900D02*
D03*
X263300Y812500D02*
D03*
X237900D02*
D03*
X288700D02*
D03*
X268020Y1125000D02*
D03*
X242620D02*
D03*
X293420D02*
D03*
X367250Y1275800D02*
D03*
Y1250400D02*
D03*
Y1199600D02*
D03*
Y1225000D02*
D03*
X137500Y1275800D02*
D03*
Y1250400D02*
D03*
Y1199600D02*
D03*
Y1225000D02*
D03*
X148750Y332900D02*
D03*
Y307500D02*
D03*
Y256700D02*
D03*
Y282100D02*
D03*
Y195599D02*
D03*
Y144799D02*
D03*
Y170199D02*
D03*
X606000Y894100D02*
D03*
Y919500D02*
D03*
X776000Y639500D02*
D03*
X750600D02*
D03*
X801400D02*
D03*
X826800D02*
D03*
X975600Y138250D02*
D03*
X1001000D02*
D03*
X1051800D02*
D03*
X1026400D02*
D03*
X1000600Y338250D02*
D03*
X1026000D02*
D03*
D66*
X1364000Y604500D02*
D03*
X212500Y812500D02*
D03*
X217220Y1125000D02*
D03*
X725200Y639500D02*
D03*
X1077200Y138250D02*
D03*
X1051400Y338250D02*
D03*
D67*
X1414000Y554500D02*
D03*
X1014000Y979500D02*
D03*
X1414000D02*
D03*
X1014000Y554500D02*
D03*
D68*
X1079000Y644100D02*
D03*
X400000Y1062100D02*
D03*
X367250Y1174200D02*
D03*
X137500D02*
D03*
X148750Y231300D02*
D03*
Y119399D02*
D03*
X606000Y944900D02*
D03*
D69*
X1099000Y734500D02*
D03*
X1064000Y579500D02*
D03*
X1089000Y604500D02*
D03*
X1039000D02*
D03*
X1389000Y904500D02*
D03*
X1339000D02*
D03*
Y953939D02*
D03*
X1389000Y954500D02*
D03*
X1089000D02*
D03*
Y904500D02*
D03*
X1039000D02*
D03*
Y954500D02*
D03*
X1189000Y794500D02*
D03*
X1210523Y854500D02*
D03*
X1239000Y859500D02*
D03*
X1226500Y932500D02*
D03*
X1139000Y924500D02*
D03*
X1174000Y662743D02*
D03*
X1189000Y764500D02*
D03*
D70*
X75000Y787500D02*
D03*
X437500D02*
D03*
Y1300000D02*
D03*
X75000D02*
D03*
D71*
X100000Y1237500D02*
D03*
Y1200000D02*
D03*
X412500Y1250000D02*
D03*
Y1212500D02*
D03*
Y1175000D02*
D03*
Y962500D02*
D03*
Y925000D02*
D03*
Y887500D02*
D03*
Y850000D02*
D03*
X125000Y825000D02*
D03*
X162500D02*
D03*
X100000Y1162500D02*
D03*
Y1125000D02*
D03*
X375000Y950000D02*
D03*
Y937500D02*
D03*
Y862500D02*
D03*
X187500Y1000000D02*
D03*
X250000Y975000D02*
D03*
X200000Y900000D02*
D03*
X312500Y850000D02*
D03*
X237500Y1212500D02*
D03*
X287500D02*
D03*
X262500Y887500D02*
D03*
X337500Y912500D02*
D03*
X175000Y975000D02*
D03*
X200000Y1050000D02*
D03*
X337500D02*
D03*
X300000Y1062500D02*
D03*
X275000D02*
D03*
X162500Y1112500D02*
D03*
X420000Y350000D02*
D03*
Y300000D02*
D03*
Y250000D02*
D03*
Y199590D02*
D03*
X168500Y95000D02*
D03*
X169750Y249500D02*
D03*
X330500Y352000D02*
D03*
X258946Y312423D02*
D03*
X324250Y271250D02*
D03*
X246500Y173750D02*
D03*
X145750Y443500D02*
D03*
Y493500D02*
D03*
Y543500D02*
D03*
Y593500D02*
D03*
X420000Y400000D02*
D03*
X400000Y100000D02*
D03*
X370000D02*
D03*
X340000D02*
D03*
X310000D02*
D03*
X280000D02*
D03*
X118250Y400000D02*
D03*
X88250D02*
D03*
X57915D02*
D03*
X367750Y306250D02*
D03*
X259750Y223000D02*
D03*
X388500Y352500D02*
D03*
X338250Y326773D02*
D03*
X298750Y281605D02*
D03*
X247665Y261085D02*
D03*
X334750Y241500D02*
D03*
X298500Y268500D02*
D03*
X273750Y339000D02*
D03*
X327500Y331000D02*
D03*
X230165Y271085D02*
D03*
X334665Y283085D02*
D03*
X190750Y193250D02*
D03*
X596000Y719500D02*
D03*
X681000D02*
D03*
X596000Y809500D02*
D03*
X856140Y824500D02*
D03*
X781000Y899500D02*
D03*
X776000Y844500D02*
D03*
X686000Y829500D02*
D03*
X676000Y909500D02*
D03*
X939500Y280000D02*
D03*
X899500Y375000D02*
D03*
X939500Y270000D02*
D03*
X1074500Y185000D02*
D03*
X1039500Y220000D02*
D03*
X924500Y175000D02*
D03*
X1029500Y320000D02*
D03*
X999500Y260000D02*
D03*
X949500Y290000D02*
D03*
X1039500Y235000D02*
D03*
X989500Y200000D02*
D03*
X949500Y150000D02*
D03*
X979500Y490000D02*
D03*
X1099500Y270000D02*
D03*
X1489500Y130000D02*
D03*
Y230000D02*
D03*
X1419500Y130000D02*
D03*
Y230000D02*
D03*
X1269500Y130000D02*
D03*
Y230000D02*
D03*
X1079500Y420000D02*
D03*
X1119500Y360000D02*
D03*
D72*
X306250Y595000D02*
D03*
X281250D02*
D03*
X256250D02*
D03*
X231250D02*
D03*
X206250D02*
D03*
X181250D02*
D03*
X306250Y443000D02*
D03*
X281250D02*
D03*
X256250D02*
D03*
X231250D02*
D03*
X206250D02*
D03*
X181250D02*
D03*
D73*
X430000Y60000D02*
D03*
Y670000D02*
D03*
X50000D02*
D03*
Y60000D02*
D03*
D74*
X646000Y1119293D02*
D03*
X570000D02*
D03*
D75*
X611000Y629500D02*
D03*
D76*
X661000D02*
D03*
D77*
X826000Y1024100D02*
D03*
D78*
X775200D02*
D03*
D79*
X799500Y299600D02*
D03*
Y325000D02*
D03*
Y350400D02*
D03*
X699500Y299200D02*
D03*
Y324600D02*
D03*
Y350000D02*
D03*
Y150400D02*
D03*
Y125000D02*
D03*
Y99600D02*
D03*
X799500D02*
D03*
Y125000D02*
D03*
Y150400D02*
D03*
X1224500Y450400D02*
D03*
Y425000D02*
D03*
Y399600D02*
D03*
X599500Y350400D02*
D03*
Y325000D02*
D03*
Y299600D02*
D03*
Y250400D02*
D03*
Y225000D02*
D03*
Y199600D02*
D03*
Y150400D02*
D03*
Y125000D02*
D03*
Y99600D02*
D03*
X699500Y250400D02*
D03*
Y225000D02*
D03*
Y199600D02*
D03*
X799500Y250400D02*
D03*
Y225000D02*
D03*
Y199600D02*
D03*
D80*
X1650000Y1100000D02*
Y1100000D01*
D81*
X350000Y927500D02*
D03*
X356500Y947500D02*
D03*
X343500D02*
D03*
D82*
X249500Y1235900D02*
D03*
X256000D02*
D03*
X262500D02*
D03*
X269000D02*
D03*
X275500D02*
D03*
D83*
X287375Y1236750D02*
D03*
X237625D02*
D03*
D84*
X228750Y1262500D02*
D03*
X296250D02*
D03*
D85*
X874500Y400000D02*
D03*
X884000Y377000D02*
D03*
X865000Y376750D02*
D03*
X909000Y448250D02*
D03*
X918500Y425250D02*
D03*
X899500Y425000D02*
D03*
X949500Y486750D02*
D03*
X959000Y463750D02*
D03*
X940000Y463500D02*
D03*
D86*
X1531500Y325000D02*
D03*
X1517500D02*
D03*
X1381500D02*
D03*
X1367500D02*
D03*
X1238500D02*
D03*
X1224500D02*
D03*
%TF.MD5,85a9165edb03bf9eba11a3cf0bbd108a*%
M02*
