%TF.GenerationSoftware,Altium Limited,Altium Designer,22.10.1 (41)*%
G04 Layer_Color=8388736*
%FSLAX44Y44*%
%MOMM*%
%TF.SameCoordinates,2DC90FC9-1629-497B-A590-D759EEAB8EEE*%
%TF.FilePolarity,Negative*%
%TF.FileFunction,Soldermask,Top*%
%TF.Part,CustomerPanel*%
G01*
G75*
%TA.AperFunction,SMDPad,CuDef*%
%ADD87R,1.8032X1.2032*%
%ADD88R,1.2032X1.8032*%
%ADD93R,1.9332X1.1732*%
%ADD94R,1.5832X1.2532*%
%ADD95R,1.2532X1.5832*%
%ADD96R,0.8032X0.9032*%
%ADD97R,1.7000X1.1000*%
%ADD99R,1.1000X1.7000*%
%TA.AperFunction,WasherPad*%
%ADD101O,25.2032X2.7032*%
%ADD102O,2.7032X25.2032*%
%TA.AperFunction,ComponentPad*%
%ADD103C,2.2032*%
%ADD104R,2.2032X2.2032*%
%TA.AperFunction,ViaPad*%
%ADD105C,1.7272*%
%TA.AperFunction,ComponentPad*%
%ADD106R,2.2032X2.2032*%
%TA.AperFunction,ViaPad*%
%ADD107C,1.0032*%
%ADD108C,3.2032*%
%ADD109C,0.8032*%
%TA.AperFunction,ComponentPad*%
%ADD110C,1.7032*%
%TA.AperFunction,WasherPad*%
%ADD111C,3.2032*%
%TA.AperFunction,ComponentPad*%
%ADD112C,1.5612*%
%ADD113C,2.4032*%
G04:AMPARAMS|DCode=114|XSize=2.4032mm|YSize=2.4032mm|CornerRadius=0mm|HoleSize=0mm|Usage=FLASHONLY|Rotation=180.000|XOffset=0mm|YOffset=0mm|HoleType=Round|Shape=Octagon|*
%AMOCTAGOND114*
4,1,8,-1.2016,0.6008,-1.2016,-0.6008,-0.6008,-1.2016,0.6008,-1.2016,1.2016,-0.6008,1.2016,0.6008,0.6008,1.2016,-0.6008,1.2016,-1.2016,0.6008,0.0*
%
%ADD114OCTAGOND114*%

%ADD115C,2.0532*%
%ADD116R,2.0532X2.0532*%
%ADD117C,2.0032*%
%TA.AperFunction,WasherPad*%
%ADD118C,0.2032*%
%TA.AperFunction,ComponentPad*%
%ADD119C,2.1000*%
%ADD120R,2.1000X2.1000*%
%TA.AperFunction,SMDPad,CuDef*%
G04:AMPARAMS|DCode=121|XSize=0.6032mm|YSize=1.6032mm|CornerRadius=0.3016mm|HoleSize=0mm|Usage=FLASHONLY|Rotation=0.000|XOffset=0mm|YOffset=0mm|HoleType=Round|Shape=RoundedRectangle|*
%AMROUNDEDRECTD121*
21,1,0.6032,1.0000,0,0,0.0*
21,1,0.0000,1.6032,0,0,0.0*
1,1,0.6032,0.0000,-0.5000*
1,1,0.6032,0.0000,-0.5000*
1,1,0.6032,0.0000,0.5000*
1,1,0.6032,0.0000,0.5000*
%
%ADD121ROUNDEDRECTD121*%
G04:AMPARAMS|DCode=122|XSize=0.6032mm|YSize=1.6032mm|CornerRadius=0.3016mm|HoleSize=0mm|Usage=FLASHONLY|Rotation=270.000|XOffset=0mm|YOffset=0mm|HoleType=Round|Shape=RoundedRectangle|*
%AMROUNDEDRECTD122*
21,1,0.6032,1.0000,0,0,270.0*
21,1,0.0000,1.6032,0,0,270.0*
1,1,0.6032,-0.5000,0.0000*
1,1,0.6032,-0.5000,0.0000*
1,1,0.6032,0.5000,0.0000*
1,1,0.6032,0.5000,0.0000*
%
%ADD122ROUNDEDRECTD122*%
%ADD123R,0.8032X1.2032*%
%ADD124R,2.6032X1.2032*%
%ADD125R,2.6032X3.5032*%
%ADD126R,2.2032X1.6032*%
%ADD127R,1.1532X1.5032*%
%ADD128R,3.4532X1.5032*%
%ADD129R,1.6782X0.5032*%
%ADD130R,0.5032X1.6782*%
%ADD131R,1.8032X2.3832*%
%ADD132R,2.1832X3.4332*%
%ADD133R,2.1832X1.1332*%
%ADD134R,1.7632X0.4832*%
%ADD135R,0.4832X1.7632*%
%ADD136R,1.1732X1.9332*%
%ADD137R,2.6032X1.8032*%
%ADD138R,5.7032X2.2032*%
%ADD139R,0.9032X0.8032*%
%ADD140R,1.6032X1.4032*%
%ADD141R,1.1532X1.8532*%
%ADD142R,3.4532X1.8532*%
%ADD143R,2.0032X0.9032*%
%ADD144R,0.8532X0.8432*%
%ADD145R,1.4032X1.6032*%
%ADD146R,0.8432X0.8532*%
G04:AMPARAMS|DCode=147|XSize=1.41mm|YSize=1.03mm|CornerRadius=0.1198mm|HoleSize=0mm|Usage=FLASHONLY|Rotation=270.000|XOffset=0mm|YOffset=0mm|HoleType=Round|Shape=RoundedRectangle|*
%AMROUNDEDRECTD147*
21,1,1.4100,0.7905,0,0,270.0*
21,1,1.1705,1.0300,0,0,270.0*
1,1,0.2395,-0.3953,-0.5853*
1,1,0.2395,-0.3953,0.5853*
1,1,0.2395,0.3953,0.5853*
1,1,0.2395,0.3953,-0.5853*
%
%ADD147ROUNDEDRECTD147*%
G04:AMPARAMS|DCode=148|XSize=1.41mm|YSize=3.34mm|CornerRadius=0.1483mm|HoleSize=0mm|Usage=FLASHONLY|Rotation=270.000|XOffset=0mm|YOffset=0mm|HoleType=Round|Shape=RoundedRectangle|*
%AMROUNDEDRECTD148*
21,1,1.4100,3.0435,0,0,270.0*
21,1,1.1135,3.3400,0,0,270.0*
1,1,0.2965,-1.5218,-0.5568*
1,1,0.2965,-1.5218,0.5568*
1,1,0.2965,1.5218,0.5568*
1,1,0.2965,1.5218,-0.5568*
%
%ADD148ROUNDEDRECTD148*%
%ADD149R,1.9032X1.4032*%
%ADD150R,1.9032X1.8032*%
%ADD151R,1.0032X1.5032*%
%ADD152R,0.9632X1.5032*%
%ADD153R,0.9032X1.5032*%
%ADD154R,2.4032X1.8032*%
%ADD155R,0.4826X1.6764*%
%ADD156R,1.6764X0.4826*%
%ADD157R,2.1000X1.3000*%
%ADD158R,1.1000X0.8000*%
%ADD159R,1.1000X1.3500*%
%TA.AperFunction,ConnectorPad*%
%ADD160R,2.1000X1.3000*%
G36*
X226750Y78500D02*
Y71500D01*
X220750D01*
Y78500D01*
X226750D01*
D02*
G37*
G36*
X236250Y98500D02*
Y91500D01*
X230250D01*
Y98500D01*
X236250D01*
D02*
G37*
G36*
X217250D02*
Y91500D01*
X211250D01*
Y98500D01*
X217250D01*
D02*
G37*
D87*
X1219000Y899500D02*
D03*
Y869500D02*
D03*
X1288600Y664500D02*
D03*
Y694500D02*
D03*
X1159000Y869500D02*
D03*
Y899500D02*
D03*
X1189500Y869500D02*
D03*
Y899500D02*
D03*
X1314000Y694500D02*
D03*
Y664500D02*
D03*
X1214000Y694500D02*
D03*
Y664500D02*
D03*
X1159000Y925500D02*
D03*
Y955500D02*
D03*
X1264000Y694500D02*
D03*
Y664500D02*
D03*
X1239000Y694500D02*
D03*
Y664500D02*
D03*
X375000Y915000D02*
D03*
Y885000D02*
D03*
X175000Y937500D02*
D03*
Y907500D02*
D03*
X187500Y1135000D02*
D03*
Y1165000D02*
D03*
X167620Y1090000D02*
D03*
Y1060000D02*
D03*
X137500Y965000D02*
D03*
Y935000D02*
D03*
X150000Y1007500D02*
D03*
Y1037500D02*
D03*
D88*
X1309000Y779500D02*
D03*
X1339000D02*
D03*
X1114000Y839500D02*
D03*
X1084000D02*
D03*
X1339000Y749500D02*
D03*
X1309000D02*
D03*
X1114000Y714500D02*
D03*
X1144000D02*
D03*
X1174000Y639500D02*
D03*
X1144000D02*
D03*
X1339000Y809500D02*
D03*
X1309000D02*
D03*
X310000Y1175000D02*
D03*
X340000D02*
D03*
X290000Y862500D02*
D03*
X260000D02*
D03*
X125000Y875000D02*
D03*
X155000D02*
D03*
X232620Y1087500D02*
D03*
X202620D02*
D03*
X367500Y1137500D02*
D03*
X337500D02*
D03*
D93*
X116250Y152700D02*
D03*
Y182300D02*
D03*
X231500Y221450D02*
D03*
Y251050D02*
D03*
X166250Y394800D02*
D03*
Y365200D02*
D03*
X189050Y280200D02*
D03*
Y309800D02*
D03*
X116250Y252700D02*
D03*
Y282300D02*
D03*
X191250Y222700D02*
D03*
Y252300D02*
D03*
X242500Y366950D02*
D03*
Y396550D02*
D03*
X346250Y367700D02*
D03*
Y397300D02*
D03*
X312000Y367950D02*
D03*
Y397550D02*
D03*
X282500Y367700D02*
D03*
Y397300D02*
D03*
X203750Y365200D02*
D03*
Y394800D02*
D03*
D94*
X116250Y308619D02*
D03*
Y326380D02*
D03*
X106250Y111120D02*
D03*
Y128880D02*
D03*
X188750Y96380D02*
D03*
Y78620D02*
D03*
D95*
X282370Y185000D02*
D03*
X300130D02*
D03*
X339870Y190000D02*
D03*
X357630D02*
D03*
D96*
X223750Y75000D02*
D03*
X214250Y95000D02*
D03*
X233250D02*
D03*
X647000Y838543D02*
D03*
X666000D02*
D03*
X656500Y858543D02*
D03*
D97*
X1101000Y353250D02*
D03*
Y323250D02*
D03*
X1099500Y80000D02*
D03*
Y50000D02*
D03*
X949500Y80000D02*
D03*
Y50000D02*
D03*
X1101000Y383250D02*
D03*
Y413250D02*
D03*
X1149500Y450000D02*
D03*
Y420000D02*
D03*
D99*
X904500Y235170D02*
D03*
X874500D02*
D03*
X904500Y260213D02*
D03*
X874500D02*
D03*
X904500Y210128D02*
D03*
X874500D02*
D03*
X904500Y185085D02*
D03*
X874500D02*
D03*
Y160042D02*
D03*
X904500D02*
D03*
X874500Y135000D02*
D03*
X904500D02*
D03*
X1066000Y463250D02*
D03*
X1036000D02*
D03*
X1004500Y375000D02*
D03*
X974500D02*
D03*
D101*
X1204000Y1021000D02*
D03*
X1464000Y514000D02*
D03*
X1183000Y515000D02*
D03*
X913000D02*
D03*
X638000D02*
D03*
X62500Y737500D02*
D03*
X337500D02*
D03*
D102*
X1458000Y1209000D02*
D03*
X1613000Y387000D02*
D03*
X1612000Y120000D02*
D03*
X1457000Y942000D02*
D03*
X1456000Y675000D02*
D03*
X969000Y970000D02*
D03*
X970000Y1237000D02*
D03*
X973000Y668000D02*
D03*
X487500Y887500D02*
D03*
Y1212500D02*
D03*
Y587500D02*
D03*
Y312500D02*
D03*
Y37500D02*
D03*
D103*
X1313200Y604500D02*
D03*
X1338600D02*
D03*
X1287800D02*
D03*
X1262400D02*
D03*
X1304000Y949500D02*
D03*
X1269000D02*
D03*
X1079000Y694900D02*
D03*
Y669500D02*
D03*
Y720300D02*
D03*
X400000Y1087500D02*
D03*
Y1112900D02*
D03*
X263300Y812500D02*
D03*
X237900D02*
D03*
X288700D02*
D03*
X268020Y1125000D02*
D03*
X242620D02*
D03*
X293420D02*
D03*
X367250Y1275800D02*
D03*
Y1250400D02*
D03*
Y1199600D02*
D03*
Y1225000D02*
D03*
X137500Y1275800D02*
D03*
Y1250400D02*
D03*
Y1199600D02*
D03*
Y1225000D02*
D03*
X148750Y332900D02*
D03*
Y307500D02*
D03*
Y256700D02*
D03*
Y282100D02*
D03*
Y195599D02*
D03*
Y144799D02*
D03*
Y170199D02*
D03*
X606000Y894100D02*
D03*
Y919500D02*
D03*
X776000Y639500D02*
D03*
X750600D02*
D03*
X801400D02*
D03*
X826800D02*
D03*
X975600Y138250D02*
D03*
X1001000D02*
D03*
X1051800D02*
D03*
X1026400D02*
D03*
D104*
X1364000Y604500D02*
D03*
X212500Y812500D02*
D03*
X217220Y1125000D02*
D03*
X725200Y639500D02*
D03*
X1077200Y138250D02*
D03*
D105*
X1414000Y554500D02*
D03*
X1014000Y979500D02*
D03*
X1414000D02*
D03*
X1014000Y554500D02*
D03*
D106*
X1079000Y644100D02*
D03*
X400000Y1062100D02*
D03*
X367250Y1174200D02*
D03*
X137500D02*
D03*
X148750Y231300D02*
D03*
Y119399D02*
D03*
X606000Y944900D02*
D03*
D107*
X1099000Y734500D02*
D03*
X1064000Y579500D02*
D03*
X1089000Y604500D02*
D03*
X1039000D02*
D03*
X1389000Y904500D02*
D03*
X1339000D02*
D03*
Y953939D02*
D03*
X1389000Y954500D02*
D03*
X1089000D02*
D03*
Y904500D02*
D03*
X1039000D02*
D03*
Y954500D02*
D03*
X1189000Y794500D02*
D03*
X1210523Y854500D02*
D03*
X1239000Y859500D02*
D03*
X1226500Y932500D02*
D03*
X1139000Y924500D02*
D03*
X1174000Y662743D02*
D03*
X1189000Y764500D02*
D03*
D108*
X75000Y787500D02*
D03*
X437500D02*
D03*
Y1300000D02*
D03*
X75000D02*
D03*
D109*
X100000Y1237500D02*
D03*
Y1200000D02*
D03*
X412500Y1250000D02*
D03*
Y1212500D02*
D03*
Y1175000D02*
D03*
Y962500D02*
D03*
Y925000D02*
D03*
Y887500D02*
D03*
Y850000D02*
D03*
X125000Y825000D02*
D03*
X162500D02*
D03*
X100000Y1162500D02*
D03*
Y1125000D02*
D03*
X375000Y950000D02*
D03*
Y937500D02*
D03*
Y862500D02*
D03*
X187500Y1000000D02*
D03*
X250000Y975000D02*
D03*
X200000Y900000D02*
D03*
X312500Y850000D02*
D03*
X237500Y1212500D02*
D03*
X287500D02*
D03*
X262500Y887500D02*
D03*
X337500Y912500D02*
D03*
X175000Y975000D02*
D03*
X200000Y1050000D02*
D03*
X337500D02*
D03*
X300000Y1062500D02*
D03*
X275000D02*
D03*
X162500Y1112500D02*
D03*
X420000Y350000D02*
D03*
Y300000D02*
D03*
Y250000D02*
D03*
Y199590D02*
D03*
X596000Y719500D02*
D03*
X681000D02*
D03*
X596000Y809500D02*
D03*
X856140Y824500D02*
D03*
X781000Y899500D02*
D03*
X776000Y844500D02*
D03*
X686000Y829500D02*
D03*
X676000Y909500D02*
D03*
X939500Y280000D02*
D03*
X899500Y375000D02*
D03*
X939500Y270000D02*
D03*
X1074500Y185000D02*
D03*
X1039500Y220000D02*
D03*
X924500Y175000D02*
D03*
X1029500Y320000D02*
D03*
X999500Y260000D02*
D03*
X949500Y290000D02*
D03*
X1039500Y235000D02*
D03*
X989500Y200000D02*
D03*
X949500Y150000D02*
D03*
X979500Y490000D02*
D03*
X1099500Y270000D02*
D03*
X1489500Y130000D02*
D03*
Y230000D02*
D03*
X1419500Y130000D02*
D03*
Y230000D02*
D03*
X1269500Y130000D02*
D03*
Y230000D02*
D03*
X1079500Y420000D02*
D03*
X1119500Y360000D02*
D03*
D110*
X306250Y595000D02*
D03*
X281250D02*
D03*
X256250D02*
D03*
X231250D02*
D03*
X206250D02*
D03*
X181250D02*
D03*
X306250Y443000D02*
D03*
X281250D02*
D03*
X256250D02*
D03*
X231250D02*
D03*
X206250D02*
D03*
X181250D02*
D03*
D111*
X430000Y60000D02*
D03*
Y670000D02*
D03*
X50000D02*
D03*
Y60000D02*
D03*
D112*
X646000Y1119293D02*
D03*
X570000D02*
D03*
D113*
X611000Y629500D02*
D03*
D114*
X661000D02*
D03*
D115*
X826000Y1024100D02*
D03*
D116*
X775200D02*
D03*
D117*
X799500Y299600D02*
D03*
Y325000D02*
D03*
Y350400D02*
D03*
X699500Y299200D02*
D03*
Y324600D02*
D03*
Y350000D02*
D03*
Y150400D02*
D03*
Y125000D02*
D03*
Y99600D02*
D03*
X799500D02*
D03*
Y125000D02*
D03*
Y150400D02*
D03*
X1224500Y450400D02*
D03*
Y425000D02*
D03*
Y399600D02*
D03*
X599500Y350400D02*
D03*
Y325000D02*
D03*
Y299600D02*
D03*
Y250400D02*
D03*
Y225000D02*
D03*
Y199600D02*
D03*
Y150400D02*
D03*
Y125000D02*
D03*
Y99600D02*
D03*
X699500Y250400D02*
D03*
Y225000D02*
D03*
Y199600D02*
D03*
X799500Y250400D02*
D03*
Y225000D02*
D03*
Y199600D02*
D03*
D118*
X1549500Y50000D02*
D03*
X549500Y450000D02*
D03*
Y50000D02*
D03*
X1549500Y450000D02*
D03*
D119*
X1000600Y338250D02*
D03*
X1026000D02*
D03*
D120*
X1051400D02*
D03*
D121*
X1232000Y827500D02*
D03*
X1224000D02*
D03*
X1216000D02*
D03*
X1208000D02*
D03*
X1200000D02*
D03*
X1192000D02*
D03*
X1184000D02*
D03*
X1176000D02*
D03*
Y741500D02*
D03*
X1184000D02*
D03*
X1192000D02*
D03*
X1208000D02*
D03*
X1216000D02*
D03*
X1224000D02*
D03*
X1232000D02*
D03*
X1200000D02*
D03*
D122*
X1161000Y812500D02*
D03*
Y804500D02*
D03*
Y796500D02*
D03*
Y788500D02*
D03*
Y780500D02*
D03*
Y772500D02*
D03*
Y764500D02*
D03*
Y756500D02*
D03*
X1247000D02*
D03*
Y764500D02*
D03*
Y772500D02*
D03*
Y780500D02*
D03*
Y788500D02*
D03*
Y796500D02*
D03*
Y804500D02*
D03*
Y812500D02*
D03*
D123*
X1208500Y932500D02*
D03*
X1199000D02*
D03*
X1189500D02*
D03*
Y956500D02*
D03*
X1208500D02*
D03*
X1363500Y691500D02*
D03*
X1354000Y667500D02*
D03*
X1344500Y691500D02*
D03*
D124*
X1108000Y802500D02*
D03*
Y779500D02*
D03*
Y756500D02*
D03*
D125*
X1050000Y779500D02*
D03*
D126*
X1208000Y604500D02*
D03*
X1120000D02*
D03*
D127*
X239600Y1191500D02*
D03*
X262500D02*
D03*
X285400D02*
D03*
D128*
X262500Y1258500D02*
D03*
D129*
X210240Y937500D02*
D03*
Y942500D02*
D03*
Y947500D02*
D03*
Y952500D02*
D03*
Y957500D02*
D03*
Y962500D02*
D03*
Y967500D02*
D03*
Y972500D02*
D03*
Y977500D02*
D03*
Y982500D02*
D03*
Y987500D02*
D03*
Y992500D02*
D03*
Y997500D02*
D03*
Y1002500D02*
D03*
Y1007500D02*
D03*
Y1012500D02*
D03*
X325000D02*
D03*
Y1007500D02*
D03*
Y1002500D02*
D03*
Y997500D02*
D03*
Y992500D02*
D03*
Y987500D02*
D03*
Y982500D02*
D03*
Y977500D02*
D03*
Y972500D02*
D03*
Y967500D02*
D03*
Y962500D02*
D03*
Y957500D02*
D03*
Y952500D02*
D03*
Y947500D02*
D03*
Y942500D02*
D03*
Y937500D02*
D03*
X698620Y917000D02*
D03*
Y912000D02*
D03*
Y907000D02*
D03*
Y902000D02*
D03*
Y897000D02*
D03*
Y892000D02*
D03*
Y887000D02*
D03*
Y882000D02*
D03*
Y877000D02*
D03*
Y872000D02*
D03*
Y867000D02*
D03*
Y862000D02*
D03*
Y857000D02*
D03*
Y852000D02*
D03*
Y847000D02*
D03*
Y842000D02*
D03*
X813380D02*
D03*
Y847000D02*
D03*
Y852000D02*
D03*
Y857000D02*
D03*
Y862000D02*
D03*
Y867000D02*
D03*
Y872000D02*
D03*
Y877000D02*
D03*
Y882000D02*
D03*
Y887000D02*
D03*
Y892000D02*
D03*
Y897000D02*
D03*
Y902000D02*
D03*
Y907000D02*
D03*
Y912000D02*
D03*
Y917000D02*
D03*
D130*
X230120Y1032380D02*
D03*
X235120D02*
D03*
X240120D02*
D03*
X245120D02*
D03*
X250120D02*
D03*
X255120D02*
D03*
X260120D02*
D03*
X265120D02*
D03*
X270120D02*
D03*
X275120D02*
D03*
X280120D02*
D03*
X285120D02*
D03*
X290120D02*
D03*
X295120D02*
D03*
X300120D02*
D03*
X305120D02*
D03*
Y917620D02*
D03*
X300120D02*
D03*
X295120D02*
D03*
X290120D02*
D03*
X285120D02*
D03*
X280120D02*
D03*
X275120D02*
D03*
X270120D02*
D03*
X265120D02*
D03*
X260120D02*
D03*
X255120D02*
D03*
X250120D02*
D03*
X245120D02*
D03*
X240120D02*
D03*
X235120D02*
D03*
X230120D02*
D03*
X793500Y936880D02*
D03*
X788500D02*
D03*
X783500D02*
D03*
X778500D02*
D03*
X718500D02*
D03*
X723500D02*
D03*
X773500D02*
D03*
X768500D02*
D03*
X763500D02*
D03*
X758500D02*
D03*
X753500D02*
D03*
X748500D02*
D03*
X743500D02*
D03*
X738500D02*
D03*
X733500D02*
D03*
X728500D02*
D03*
X718500Y822120D02*
D03*
X723500D02*
D03*
X728500D02*
D03*
X733500D02*
D03*
X738500D02*
D03*
X743500D02*
D03*
X748500D02*
D03*
X753500D02*
D03*
X758500D02*
D03*
X763500D02*
D03*
X768500D02*
D03*
X773500D02*
D03*
X778500D02*
D03*
X783500D02*
D03*
X788500D02*
D03*
X793500D02*
D03*
D131*
X112500Y1083500D02*
D03*
Y991500D02*
D03*
X73750Y203500D02*
D03*
Y111500D02*
D03*
X73750Y239000D02*
D03*
Y331000D02*
D03*
D132*
X253900Y145000D02*
D03*
D133*
X193600Y122000D02*
D03*
Y145000D02*
D03*
Y168000D02*
D03*
D134*
X270950Y235500D02*
D03*
Y240500D02*
D03*
Y245500D02*
D03*
Y250500D02*
D03*
Y255500D02*
D03*
Y260500D02*
D03*
Y265500D02*
D03*
Y270500D02*
D03*
Y275500D02*
D03*
Y280500D02*
D03*
Y285500D02*
D03*
Y290499D02*
D03*
X354550D02*
D03*
Y285500D02*
D03*
Y280500D02*
D03*
Y275500D02*
D03*
Y270500D02*
D03*
Y265500D02*
D03*
Y260500D02*
D03*
Y255500D02*
D03*
Y250500D02*
D03*
Y245500D02*
D03*
Y240500D02*
D03*
Y235500D02*
D03*
D135*
X285250Y304800D02*
D03*
X290250D02*
D03*
X295250D02*
D03*
X300250D02*
D03*
X305250D02*
D03*
X310250D02*
D03*
X315250D02*
D03*
X320249D02*
D03*
X325250D02*
D03*
X330249D02*
D03*
X335250D02*
D03*
X340250D02*
D03*
Y221200D02*
D03*
X335250D02*
D03*
X330249D02*
D03*
X325250D02*
D03*
X320249D02*
D03*
X315250D02*
D03*
X310250D02*
D03*
X305250D02*
D03*
X300250D02*
D03*
X295250D02*
D03*
X290250D02*
D03*
X285250D02*
D03*
D136*
X221450Y290000D02*
D03*
X251050D02*
D03*
X233550Y195000D02*
D03*
X203950D02*
D03*
D137*
X116250Y203250D02*
D03*
Y231750D02*
D03*
D138*
X302250Y150000D02*
D03*
X400250D02*
D03*
D139*
X606000Y1029000D02*
D03*
X626000Y1038500D02*
D03*
Y1019500D02*
D03*
D140*
X676000Y1037500D02*
D03*
Y1019500D02*
D03*
Y969500D02*
D03*
Y987500D02*
D03*
X706000Y1080500D02*
D03*
Y1098500D02*
D03*
X856000Y908500D02*
D03*
Y890500D02*
D03*
D141*
X613000Y737993D02*
D03*
X636000D02*
D03*
X659000D02*
D03*
D142*
X636000Y800993D02*
D03*
D143*
X576000Y757000D02*
D03*
Y779500D02*
D03*
D144*
X620457Y709500D02*
D03*
X611457D02*
D03*
X731500Y959500D02*
D03*
X740500D02*
D03*
X731500Y979500D02*
D03*
X740500D02*
D03*
Y999500D02*
D03*
X731500D02*
D03*
X695000Y804508D02*
D03*
X686000D02*
D03*
X661500Y719500D02*
D03*
X670500D02*
D03*
X791500Y779500D02*
D03*
X800500D02*
D03*
X791500Y799500D02*
D03*
X800500D02*
D03*
X870500Y809500D02*
D03*
X861500D02*
D03*
D145*
X598000Y829500D02*
D03*
X616000D02*
D03*
X746000Y779500D02*
D03*
X728000D02*
D03*
X637000Y699500D02*
D03*
X655000D02*
D03*
X875000Y849500D02*
D03*
X857000D02*
D03*
D146*
X836000Y865000D02*
D03*
Y874000D02*
D03*
Y905000D02*
D03*
Y914000D02*
D03*
D147*
X923900Y355150D02*
D03*
X901000D02*
D03*
X878100D02*
D03*
D148*
X901000Y288250D02*
D03*
D149*
X1006200Y433250D02*
D03*
X895800D02*
D03*
D150*
X1006200Y469250D02*
D03*
X895800D02*
D03*
D151*
X978500Y430350D02*
D03*
X923500D02*
D03*
D152*
X966200D02*
D03*
X935800D02*
D03*
D153*
X956000D02*
D03*
X946000D02*
D03*
D154*
X980500Y50000D02*
D03*
X1068500D02*
D03*
D155*
X988408Y182116D02*
D03*
X993488D02*
D03*
X998568D02*
D03*
X1003394D02*
D03*
X1008474D02*
D03*
X1013554D02*
D03*
X1018380D02*
D03*
X1023460D02*
D03*
X1028540D02*
D03*
X1033620D02*
D03*
X1038446D02*
D03*
X1043526D02*
D03*
X1048606D02*
D03*
X1053432D02*
D03*
X1058512D02*
D03*
X1063592D02*
D03*
Y294384D02*
D03*
X1058512D02*
D03*
X1053432D02*
D03*
X1048606D02*
D03*
X1043526D02*
D03*
X1038446D02*
D03*
X1033620D02*
D03*
X1028540D02*
D03*
X1023460D02*
D03*
X1018380D02*
D03*
X1013554D02*
D03*
X1008474D02*
D03*
X1003394D02*
D03*
X998568D02*
D03*
X993488D02*
D03*
X988408D02*
D03*
D156*
X1082134Y200658D02*
D03*
Y205738D02*
D03*
Y210818D02*
D03*
Y215644D02*
D03*
Y220724D02*
D03*
Y225804D02*
D03*
Y230630D02*
D03*
Y235710D02*
D03*
Y240790D02*
D03*
Y245870D02*
D03*
Y250696D02*
D03*
Y255776D02*
D03*
Y260856D02*
D03*
Y265682D02*
D03*
Y270762D02*
D03*
Y275842D02*
D03*
X969866D02*
D03*
Y270762D02*
D03*
Y265682D02*
D03*
Y260856D02*
D03*
Y255776D02*
D03*
Y250696D02*
D03*
Y245870D02*
D03*
Y240790D02*
D03*
Y235710D02*
D03*
Y230630D02*
D03*
Y225804D02*
D03*
Y220724D02*
D03*
Y215644D02*
D03*
Y210818D02*
D03*
Y205738D02*
D03*
Y200658D02*
D03*
D157*
X1412000Y102500D02*
D03*
X1337000D02*
D03*
Y147500D02*
D03*
X1412000D02*
D03*
X1337000Y202500D02*
D03*
X1412000D02*
D03*
Y247500D02*
D03*
X1337000D02*
D03*
X1412000Y347500D02*
D03*
X1337000D02*
D03*
Y302500D02*
D03*
X1412000D02*
D03*
X1262000Y347500D02*
D03*
X1187000D02*
D03*
Y302500D02*
D03*
X1262000D02*
D03*
X1187750Y202250D02*
D03*
X1262750D02*
D03*
Y247250D02*
D03*
X1187750D02*
D03*
X1262000Y147500D02*
D03*
X1187000D02*
D03*
Y102500D02*
D03*
X1262000D02*
D03*
D158*
X1047500Y390500D02*
D03*
X1024500Y400000D02*
D03*
X1024250Y381000D02*
D03*
D159*
X1085042Y463250D02*
D03*
X1105042D02*
D03*
D160*
X1562000Y147500D02*
D03*
X1487000D02*
D03*
Y102500D02*
D03*
X1562000D02*
D03*
X1487000Y202500D02*
D03*
X1562000D02*
D03*
Y247500D02*
D03*
X1487000D02*
D03*
X1562000Y347500D02*
D03*
X1487000D02*
D03*
Y302500D02*
D03*
X1562000D02*
D03*
%TF.MD5,4b1dacd7ec0e460a7596e757cb305db2*%
M02*
