G04*
G04 #@! TF.GenerationSoftware,Altium Limited,Altium Designer,24.2.2 (26)*
G04*
G04 Layer_Color=65535*
%FSLAX44Y44*%
%MOMM*%
G71*
G04*
G04 #@! TF.SameCoordinates,E132748E-00BF-457D-A5CC-83FA1D806D28*
G04*
G04*
G04 #@! TF.FilePolarity,Positive*
G04*
G01*
G75*
%ADD22C,0.2540*%
%ADD23C,0.3500*%
%ADD24C,0.2500*%
%ADD25C,0.2000*%
%ADD83C,0.1100*%
%ADD84C,0.1000*%
%ADD85C,0.1270*%
%ADD86C,0.0500*%
%ADD87R,0.8000X1.0000*%
%ADD88C,0.1524*%
D22*
X2064000Y294750D02*
Y667250D01*
X1874000D02*
X2064000D01*
X1874000Y294750D02*
Y667250D01*
Y294750D02*
X2064000D01*
X1665170Y345749D02*
Y337751D01*
X1669168D01*
X1670501Y339084D01*
Y344416D01*
X1669168Y345749D01*
X1665170D01*
X1673167D02*
Y337751D01*
X1677166D01*
X1678499Y339084D01*
Y344416D01*
X1677166Y345749D01*
X1673167D01*
X1681165Y337751D02*
X1683830D01*
X1682497D01*
Y345749D01*
X1681165Y344416D01*
X1875220Y684951D02*
Y676954D01*
Y680953D01*
X1880552D01*
Y684951D01*
Y676954D01*
X1888549Y683618D02*
X1887216Y684951D01*
X1884550D01*
X1883217Y683618D01*
Y678287D01*
X1884550Y676954D01*
X1887216D01*
X1888549Y678287D01*
Y680953D01*
X1885883D01*
X1891215Y676954D02*
X1893881D01*
X1892548D01*
Y684951D01*
X1891215Y683618D01*
X1563920Y448499D02*
X1569251D01*
Y447166D01*
X1563920Y441834D01*
Y440501D01*
X1569251D01*
X1577249Y441834D02*
Y447166D01*
X1575916Y448499D01*
X1573250D01*
X1571917Y447166D01*
Y441834D01*
X1573250Y440501D01*
X1575916D01*
X1574583Y443167D02*
X1577249Y440501D01*
X1575916D02*
X1577249Y441834D01*
X1579915Y440501D02*
X1582580D01*
X1581247D01*
Y448499D01*
X1579915Y447166D01*
X1558736Y604941D02*
X1564068Y596944D01*
Y604941D02*
X1558736Y596944D01*
X1572065Y603609D02*
X1570732Y604941D01*
X1568066D01*
X1566733Y603609D01*
Y602276D01*
X1568066Y600943D01*
X1570732D01*
X1572065Y599610D01*
Y598277D01*
X1570732Y596944D01*
X1568066D01*
X1566733Y598277D01*
X1574731Y596944D02*
X1577397D01*
X1576064D01*
Y604941D01*
X1574731Y603609D01*
X1776420Y559749D02*
X1781751Y551751D01*
Y559749D02*
X1776420Y551751D01*
X1784417D02*
Y559749D01*
X1788416D01*
X1789749Y558416D01*
Y555750D01*
X1788416Y554417D01*
X1784417D01*
X1792415Y551751D02*
X1795080D01*
X1793747D01*
Y559749D01*
X1792415Y558416D01*
X1535920Y482249D02*
Y476917D01*
X1538586Y474251D01*
X1541251Y476917D01*
Y482249D01*
X1543917D02*
X1549249D01*
X1546583D01*
Y474251D01*
X1551915D02*
X1554580D01*
X1553247D01*
Y482249D01*
X1551915Y480916D01*
X1684464Y685904D02*
X1683131Y687237D01*
X1680465D01*
X1679132Y685904D01*
Y684572D01*
X1680465Y683239D01*
X1683131D01*
X1684464Y681906D01*
Y680573D01*
X1683131Y679240D01*
X1680465D01*
X1679132Y680573D01*
X1687129Y687237D02*
Y679240D01*
X1689795Y681906D01*
X1692461Y679240D01*
Y687237D01*
X1700458Y679240D02*
X1695127D01*
X1700458Y684572D01*
Y685904D01*
X1699126Y687237D01*
X1696460D01*
X1695127Y685904D01*
X1556956D02*
X1555623Y687237D01*
X1552957D01*
X1551624Y685904D01*
Y684572D01*
X1552957Y683239D01*
X1555623D01*
X1556956Y681906D01*
Y680573D01*
X1555623Y679240D01*
X1552957D01*
X1551624Y680573D01*
X1559621Y687237D02*
Y679240D01*
X1562287Y681906D01*
X1564953Y679240D01*
Y687237D01*
X1567619Y679240D02*
X1570285D01*
X1568952D01*
Y687237D01*
X1567619Y685904D01*
X1664003Y510501D02*
Y518499D01*
X1668002D01*
X1669335Y517166D01*
Y514500D01*
X1668002Y513167D01*
X1664003D01*
X1666669D02*
X1669335Y510501D01*
X1672001D02*
X1674666D01*
X1673334D01*
Y518499D01*
X1672001Y517166D01*
X1683997Y518499D02*
X1678665D01*
Y514500D01*
X1681331Y515833D01*
X1682664D01*
X1683997Y514500D01*
Y511834D01*
X1682664Y510501D01*
X1679998D01*
X1678665Y511834D01*
X1777253Y501501D02*
Y509499D01*
X1781252D01*
X1782585Y508166D01*
Y505500D01*
X1781252Y504167D01*
X1777253D01*
X1779919D02*
X1782585Y501501D01*
X1785251D02*
X1787916D01*
X1786584D01*
Y509499D01*
X1785251Y508166D01*
X1795914Y501501D02*
Y509499D01*
X1791915Y505500D01*
X1797247D01*
X1783503Y376751D02*
Y384749D01*
X1787502D01*
X1788835Y383416D01*
Y380750D01*
X1787502Y379417D01*
X1783503D01*
X1786169D02*
X1788835Y376751D01*
X1791501D02*
X1794166D01*
X1792834D01*
Y384749D01*
X1791501Y383416D01*
X1798165D02*
X1799498Y384749D01*
X1802164D01*
X1803497Y383416D01*
Y382083D01*
X1802164Y380750D01*
X1800831D01*
X1802164D01*
X1803497Y379417D01*
Y378084D01*
X1802164Y376751D01*
X1799498D01*
X1798165Y378084D01*
X1784836Y427251D02*
Y435249D01*
X1788835D01*
X1790168Y433916D01*
Y431250D01*
X1788835Y429917D01*
X1784836D01*
X1787502D02*
X1790168Y427251D01*
X1792834D02*
X1795499D01*
X1794167D01*
Y435249D01*
X1792834Y433916D01*
X1799498Y427251D02*
X1802164D01*
X1800831D01*
Y435249D01*
X1799498Y433916D01*
X1724503Y553001D02*
Y560999D01*
X1728502D01*
X1729835Y559666D01*
Y557000D01*
X1728502Y555667D01*
X1724503D01*
X1727169D02*
X1729835Y553001D01*
X1732501D02*
X1735166D01*
X1733834D01*
Y560999D01*
X1732501Y559666D01*
X1739165D02*
X1740498Y560999D01*
X1743164D01*
X1744497Y559666D01*
Y554334D01*
X1743164Y553001D01*
X1740498D01*
X1739165Y554334D01*
Y559666D01*
X1786835Y460001D02*
Y467999D01*
X1790834D01*
X1792167Y466666D01*
Y464000D01*
X1790834Y462667D01*
X1786835D01*
X1789501D02*
X1792167Y460001D01*
X1794833Y461334D02*
X1796166Y460001D01*
X1798832D01*
X1800164Y461334D01*
Y466666D01*
X1798832Y467999D01*
X1796166D01*
X1794833Y466666D01*
Y465333D01*
X1796166Y464000D01*
X1800164D01*
X1710585Y510251D02*
Y518249D01*
X1714584D01*
X1715917Y516916D01*
Y514250D01*
X1714584Y512917D01*
X1710585D01*
X1713251D02*
X1715917Y510251D01*
X1718583Y516916D02*
X1719916Y518249D01*
X1722582D01*
X1723914Y516916D01*
Y515583D01*
X1722582Y514250D01*
X1723914Y512917D01*
Y511584D01*
X1722582Y510251D01*
X1719916D01*
X1718583Y511584D01*
Y512917D01*
X1719916Y514250D01*
X1718583Y515583D01*
Y516916D01*
X1719916Y514250D02*
X1722582D01*
X1780836Y536251D02*
Y544249D01*
X1784834D01*
X1786167Y542916D01*
Y540250D01*
X1784834Y538917D01*
X1780836D01*
X1783501D02*
X1786167Y536251D01*
X1788833Y544249D02*
X1794164D01*
Y542916D01*
X1788833Y537584D01*
Y536251D01*
X1703336Y623001D02*
Y630999D01*
X1707334D01*
X1708667Y629666D01*
Y627000D01*
X1707334Y625667D01*
X1703336D01*
X1706001D02*
X1708667Y623001D01*
X1716664Y630999D02*
X1711333D01*
Y627000D01*
X1713999Y628333D01*
X1715332D01*
X1716664Y627000D01*
Y624334D01*
X1715332Y623001D01*
X1712666D01*
X1711333Y624334D01*
X1808926Y578910D02*
Y586907D01*
X1812925D01*
X1814258Y585574D01*
Y582909D01*
X1812925Y581576D01*
X1808926D01*
X1811592D02*
X1814258Y578910D01*
X1820922D02*
Y586907D01*
X1816923Y582909D01*
X1822255D01*
X1666432Y553764D02*
Y561761D01*
X1670431D01*
X1671764Y560429D01*
Y557763D01*
X1670431Y556430D01*
X1666432D01*
X1669098D02*
X1671764Y553764D01*
X1674429Y560429D02*
X1675762Y561761D01*
X1678428D01*
X1679761Y560429D01*
Y559096D01*
X1678428Y557763D01*
X1677095D01*
X1678428D01*
X1679761Y556430D01*
Y555097D01*
X1678428Y553764D01*
X1675762D01*
X1674429Y555097D01*
X1636575Y542251D02*
Y550249D01*
X1640574D01*
X1641906Y548916D01*
Y546250D01*
X1640574Y544917D01*
X1636575D01*
X1639241D02*
X1641906Y542251D01*
X1649904D02*
X1644572D01*
X1649904Y547583D01*
Y548916D01*
X1648571Y550249D01*
X1645905D01*
X1644572Y548916D01*
X1599668Y623001D02*
Y630999D01*
X1603667D01*
X1605000Y629666D01*
Y627000D01*
X1603667Y625667D01*
X1599668D01*
X1602334D02*
X1605000Y623001D01*
X1607666D02*
X1610332D01*
X1608999D01*
Y630999D01*
X1607666Y629666D01*
X1662670Y637499D02*
Y629501D01*
Y633500D01*
X1668001D01*
Y637499D01*
Y629501D01*
X1670667Y637499D02*
Y629501D01*
X1675999D01*
X1678665D02*
X1681330D01*
X1679998D01*
Y637499D01*
X1678665Y636166D01*
X1562170Y558999D02*
Y551001D01*
X1566168D01*
X1567501Y552334D01*
Y557666D01*
X1566168Y558999D01*
X1562170D01*
X1570167Y551001D02*
Y556333D01*
X1572833Y558999D01*
X1575499Y556333D01*
Y551001D01*
Y555000D01*
X1570167D01*
X1578165Y551001D02*
X1580830D01*
X1579498D01*
Y558999D01*
X1578165Y557666D01*
X1778335Y631166D02*
X1777002Y632499D01*
X1774336D01*
X1773003Y631166D01*
Y625834D01*
X1774336Y624501D01*
X1777002D01*
X1778335Y625834D01*
X1781001Y624501D02*
X1783666D01*
X1782334D01*
Y632499D01*
X1781001Y631166D01*
X1792997Y624501D02*
X1787665D01*
X1792997Y629833D01*
Y631166D01*
X1791664Y632499D01*
X1788998D01*
X1787665Y631166D01*
X1539917Y617666D02*
X1538584Y618999D01*
X1535918D01*
X1534586Y617666D01*
Y612334D01*
X1535918Y611001D01*
X1538584D01*
X1539917Y612334D01*
X1542583Y618999D02*
X1547914D01*
Y617666D01*
X1542583Y612334D01*
Y611001D01*
X1637474Y408028D02*
X1636141Y409361D01*
X1633475D01*
X1632142Y408028D01*
Y402697D01*
X1633475Y401364D01*
X1636141D01*
X1637474Y402697D01*
X1644138Y401364D02*
Y409361D01*
X1640139Y405363D01*
X1645471D01*
X1641917Y459916D02*
X1640584Y461249D01*
X1637918D01*
X1636586Y459916D01*
Y454584D01*
X1637918Y453251D01*
X1640584D01*
X1641917Y454584D01*
X1644583Y459916D02*
X1645916Y461249D01*
X1648582D01*
X1649915Y459916D01*
Y458583D01*
X1648582Y457250D01*
X1647249D01*
X1648582D01*
X1649915Y455917D01*
Y454584D01*
X1648582Y453251D01*
X1645916D01*
X1644583Y454584D01*
X1528750Y556166D02*
X1527417Y557499D01*
X1524751D01*
X1523418Y556166D01*
Y550834D01*
X1524751Y549501D01*
X1527417D01*
X1528750Y550834D01*
X1531416Y549501D02*
X1534082D01*
X1532749D01*
Y557499D01*
X1531416Y556166D01*
X1873500Y805000D02*
G03*
X1873500Y805000I-1000J0D01*
G01*
X1908500Y809000D02*
Y831000D01*
X1874500Y809000D02*
X1908500D01*
X1874500D02*
Y831000D01*
X1908500D01*
X1881382Y863476D02*
X1896617D01*
X1889000D01*
Y873633D01*
X1881382D01*
X1896617D01*
X1881382Y878711D02*
X1896617D01*
Y888868D01*
Y893946D02*
Y899024D01*
Y896485D01*
X1881382D01*
X1883922Y893946D01*
X1983158Y950217D02*
X1989823Y940220D01*
Y950217D02*
X1983158Y940220D01*
X1999819Y948551D02*
X1998153Y950217D01*
X1994821D01*
X1993155Y948551D01*
Y946885D01*
X1994821Y945218D01*
X1998153D01*
X1999819Y943552D01*
Y941886D01*
X1998153Y940220D01*
X1994821D01*
X1993155Y941886D01*
X2003152Y940220D02*
X2006484D01*
X2004818D01*
Y950217D01*
X2003152Y948551D01*
X1700171Y823998D02*
X1706835Y814002D01*
Y823998D02*
X1700171Y814002D01*
X1710168D02*
Y823998D01*
X1715166D01*
X1716832Y822332D01*
Y819000D01*
X1715166Y817334D01*
X1710168D01*
X1726829Y814002D02*
X1720164D01*
X1726829Y820666D01*
Y822332D01*
X1725163Y823998D01*
X1721831D01*
X1720164Y822332D01*
X2008812Y1102109D02*
X2015477Y1092112D01*
Y1102109D02*
X2008812Y1092112D01*
X2018809D02*
Y1102109D01*
X2023807D01*
X2025473Y1100443D01*
Y1097110D01*
X2023807Y1095444D01*
X2018809D01*
X2028806Y1092112D02*
X2032138D01*
X2030472D01*
Y1102109D01*
X2028806Y1100443D01*
X1793087Y880248D02*
Y873584D01*
X1796419Y870252D01*
X1799752Y873584D01*
Y880248D01*
X1803084D02*
X1809748D01*
X1806416D01*
Y870252D01*
X1813081D02*
X1816413D01*
X1814747D01*
Y880248D01*
X1813081Y878582D01*
X1630921Y1104253D02*
X1629254Y1105919D01*
X1625922D01*
X1624256Y1104253D01*
Y1102587D01*
X1625922Y1100920D01*
X1629254D01*
X1630921Y1099254D01*
Y1097588D01*
X1629254Y1095922D01*
X1625922D01*
X1624256Y1097588D01*
X1634253Y1095922D02*
X1637585D01*
X1635919D01*
Y1105919D01*
X1634253Y1104253D01*
X1952424Y915582D02*
Y925579D01*
X1957422D01*
X1959088Y923913D01*
Y920580D01*
X1957422Y918914D01*
X1952424D01*
X1955756D02*
X1959088Y915582D01*
X1969085Y925579D02*
X1962421D01*
Y920580D01*
X1965753Y922246D01*
X1967419D01*
X1969085Y920580D01*
Y917248D01*
X1967419Y915582D01*
X1964087D01*
X1962421Y917248D01*
X1801669Y845002D02*
Y854998D01*
X1806668D01*
X1808334Y853332D01*
Y850000D01*
X1806668Y848334D01*
X1801669D01*
X1805002D02*
X1808334Y845002D01*
X1816664D02*
Y854998D01*
X1811666Y850000D01*
X1818331D01*
X1891669Y975002D02*
Y984998D01*
X1896668D01*
X1898334Y983332D01*
Y980000D01*
X1896668Y978334D01*
X1891669D01*
X1895002D02*
X1898334Y975002D01*
X1901666Y983332D02*
X1903332Y984998D01*
X1906664D01*
X1908331Y983332D01*
Y981666D01*
X1906664Y980000D01*
X1904998D01*
X1906664D01*
X1908331Y978334D01*
Y976668D01*
X1906664Y975002D01*
X1903332D01*
X1901666Y976668D01*
X1744652Y1117512D02*
Y1127509D01*
X1749650D01*
X1751317Y1125843D01*
Y1122510D01*
X1749650Y1120844D01*
X1744652D01*
X1747984D02*
X1751317Y1117512D01*
X1761313D02*
X1754649D01*
X1761313Y1124176D01*
Y1125843D01*
X1759647Y1127509D01*
X1756315D01*
X1754649Y1125843D01*
X1802564Y1135546D02*
Y1145543D01*
X1807562D01*
X1809229Y1143877D01*
Y1140544D01*
X1807562Y1138878D01*
X1802564D01*
X1805896D02*
X1809229Y1135546D01*
X1812561D02*
X1815893D01*
X1814227D01*
Y1145543D01*
X1812561Y1143877D01*
X1709170Y1064998D02*
X1712502D01*
X1710836D01*
Y1055002D01*
X1709170D01*
X1712502D01*
X1724165Y1063332D02*
X1722499Y1064998D01*
X1719167D01*
X1717501Y1063332D01*
Y1056668D01*
X1719167Y1055002D01*
X1722499D01*
X1724165Y1056668D01*
X1727498Y1055002D02*
X1730830D01*
X1729164D01*
Y1064998D01*
X1727498Y1063332D01*
X1535587Y943498D02*
Y933502D01*
Y938500D01*
X1542252D01*
Y943498D01*
Y933502D01*
X1545584D02*
Y940166D01*
X1548916Y943498D01*
X1552248Y940166D01*
Y933502D01*
Y938500D01*
X1545584D01*
X1555581Y933502D02*
X1558913D01*
X1557247D01*
Y943498D01*
X1555581Y941832D01*
X1888337Y929998D02*
Y920002D01*
X1893336D01*
X1895002Y921668D01*
Y928332D01*
X1893336Y929998D01*
X1888337D01*
X1898334Y920002D02*
Y926666D01*
X1901666Y929998D01*
X1904998Y926666D01*
Y920002D01*
Y925000D01*
X1898334D01*
X1908331Y920002D02*
X1911663D01*
X1909997D01*
Y929998D01*
X1908331Y928332D01*
X1854187Y1135495D02*
X1852520Y1137161D01*
X1849188D01*
X1847522Y1135495D01*
Y1128830D01*
X1849188Y1127164D01*
X1852520D01*
X1854187Y1128830D01*
X1857519Y1127164D02*
X1860851D01*
X1859185D01*
Y1137161D01*
X1857519Y1135495D01*
X1865849Y1127164D02*
X1869182D01*
X1867516D01*
Y1137161D01*
X1865849Y1135495D01*
X1684169Y963332D02*
X1682502Y964998D01*
X1679170D01*
X1677504Y963332D01*
Y956668D01*
X1679170Y955002D01*
X1682502D01*
X1684169Y956668D01*
X1687501Y955002D02*
X1690833D01*
X1689167D01*
Y964998D01*
X1687501Y963332D01*
X1695831D02*
X1697498Y964998D01*
X1700830D01*
X1702496Y963332D01*
Y956668D01*
X1700830Y955002D01*
X1697498D01*
X1695831Y956668D01*
Y963332D01*
X1678334Y1003332D02*
X1676668Y1004998D01*
X1673336D01*
X1671669Y1003332D01*
Y996668D01*
X1673336Y995002D01*
X1676668D01*
X1678334Y996668D01*
X1681666D02*
X1683332Y995002D01*
X1686664D01*
X1688331Y996668D01*
Y1003332D01*
X1686664Y1004998D01*
X1683332D01*
X1681666Y1003332D01*
Y1001666D01*
X1683332Y1000000D01*
X1688331D01*
X1878334Y1063332D02*
X1876668Y1064998D01*
X1873336D01*
X1871669Y1063332D01*
Y1056668D01*
X1873336Y1055002D01*
X1876668D01*
X1878334Y1056668D01*
X1881666Y1063332D02*
X1883332Y1064998D01*
X1886664D01*
X1888331Y1063332D01*
Y1061666D01*
X1886664Y1060000D01*
X1888331Y1058334D01*
Y1056668D01*
X1886664Y1055002D01*
X1883332D01*
X1881666Y1056668D01*
Y1058334D01*
X1883332Y1060000D01*
X1881666Y1061666D01*
Y1063332D01*
X1883332Y1060000D02*
X1886664D01*
X1858834Y957332D02*
X1857168Y958998D01*
X1853835D01*
X1852169Y957332D01*
Y950668D01*
X1853835Y949002D01*
X1857168D01*
X1858834Y950668D01*
X1862166Y958998D02*
X1868831D01*
Y957332D01*
X1862166Y950668D01*
Y949002D01*
X1848334Y1063332D02*
X1846668Y1064998D01*
X1843336D01*
X1841669Y1063332D01*
Y1056668D01*
X1843336Y1055002D01*
X1846668D01*
X1848334Y1056668D01*
X1858331Y1064998D02*
X1854998Y1063332D01*
X1851666Y1060000D01*
Y1056668D01*
X1853332Y1055002D01*
X1856664D01*
X1858331Y1056668D01*
Y1058334D01*
X1856664Y1060000D01*
X1851666D01*
X1787584Y1098082D02*
X1785918Y1099748D01*
X1782585D01*
X1780919Y1098082D01*
Y1091418D01*
X1782585Y1089752D01*
X1785918D01*
X1787584Y1091418D01*
X1797581Y1099748D02*
X1790916D01*
Y1094750D01*
X1794248Y1096416D01*
X1795914D01*
X1797581Y1094750D01*
Y1091418D01*
X1795914Y1089752D01*
X1792582D01*
X1790916Y1091418D01*
X1728334Y1093332D02*
X1726668Y1094998D01*
X1723336D01*
X1721669Y1093332D01*
Y1086668D01*
X1723336Y1085002D01*
X1726668D01*
X1728334Y1086668D01*
X1736664Y1085002D02*
Y1094998D01*
X1731666Y1090000D01*
X1738331D01*
X1638334Y983332D02*
X1636668Y984998D01*
X1633336D01*
X1631669Y983332D01*
Y976668D01*
X1633336Y975002D01*
X1636668D01*
X1638334Y976668D01*
X1641666Y983332D02*
X1643332Y984998D01*
X1646664D01*
X1648331Y983332D01*
Y981666D01*
X1646664Y980000D01*
X1644998D01*
X1646664D01*
X1648331Y978334D01*
Y976668D01*
X1646664Y975002D01*
X1643332D01*
X1641666Y976668D01*
X1938168Y882334D02*
X1936502Y880668D01*
Y877336D01*
X1938168Y875669D01*
X1944832D01*
X1946498Y877336D01*
Y880668D01*
X1944832Y882334D01*
X1946498Y892331D02*
Y885666D01*
X1939834Y892331D01*
X1938168D01*
X1936502Y890665D01*
Y887332D01*
X1938168Y885666D01*
X1930000Y943332D02*
X1928334Y944998D01*
X1925002D01*
X1923336Y943332D01*
Y936668D01*
X1925002Y935002D01*
X1928334D01*
X1930000Y936668D01*
X1933332Y935002D02*
X1936664D01*
X1934998D01*
Y944998D01*
X1933332Y943332D01*
X817900Y1389400D02*
G03*
X817900Y1389400I-2500J0D01*
G01*
X762000Y1086000D02*
X841000D01*
Y984000D02*
Y1086000D01*
X762000Y984000D02*
X841000D01*
X762000D02*
Y1086000D01*
X1361836Y978499D02*
X1366501Y971501D01*
Y978499D02*
X1361836Y971501D01*
X1373499Y977333D02*
X1372333Y978499D01*
X1370000D01*
X1368834Y977333D01*
Y976166D01*
X1370000Y975000D01*
X1372333D01*
X1373499Y973834D01*
Y972667D01*
X1372333Y971501D01*
X1370000D01*
X1368834Y972667D01*
X1375831Y971501D02*
X1378164D01*
X1376998D01*
Y978499D01*
X1375831Y977333D01*
X1250418Y879336D02*
X1255083Y872338D01*
Y879336D02*
X1250418Y872338D01*
X1257416D02*
Y879336D01*
X1260915D01*
X1262081Y878169D01*
Y875837D01*
X1260915Y874671D01*
X1257416D01*
X1269079Y872338D02*
X1264414D01*
X1269079Y877003D01*
Y878169D01*
X1267912Y879336D01*
X1265580D01*
X1264414Y878169D01*
X1050520Y903974D02*
X1055185Y896976D01*
Y903974D02*
X1050520Y896976D01*
X1057518D02*
Y903974D01*
X1061017D01*
X1062183Y902807D01*
Y900475D01*
X1061017Y899309D01*
X1057518D01*
X1064516Y896976D02*
X1066848D01*
X1065682D01*
Y903974D01*
X1064516Y902807D01*
X1316836Y843499D02*
Y838834D01*
X1319169Y836501D01*
X1321501Y838834D01*
Y843499D01*
X1323834D02*
X1328499D01*
X1326166D01*
Y836501D01*
X1330831D02*
X1333164D01*
X1331998D01*
Y843499D01*
X1330831Y842333D01*
X1042419Y687333D02*
X1041253Y688499D01*
X1038920D01*
X1037754Y687333D01*
Y686166D01*
X1038920Y685000D01*
X1041253D01*
X1042419Y683834D01*
Y682667D01*
X1041253Y681501D01*
X1038920D01*
X1037754Y682667D01*
X1044752Y688499D02*
Y681501D01*
X1047084Y683834D01*
X1049417Y681501D01*
Y688499D01*
X1051749Y681501D02*
X1054082D01*
X1052916D01*
Y688499D01*
X1051749Y687333D01*
X1057581D02*
X1058747Y688499D01*
X1061080D01*
X1062246Y687333D01*
Y682667D01*
X1061080Y681501D01*
X1058747D01*
X1057581Y682667D01*
Y687333D01*
X1045335Y537333D02*
X1044169Y538499D01*
X1041836D01*
X1040670Y537333D01*
Y536166D01*
X1041836Y535000D01*
X1044169D01*
X1045335Y533834D01*
Y532667D01*
X1044169Y531501D01*
X1041836D01*
X1040670Y532667D01*
X1047667Y538499D02*
Y531501D01*
X1050000Y533834D01*
X1052333Y531501D01*
Y538499D01*
X1054665Y532667D02*
X1055832Y531501D01*
X1058164D01*
X1059330Y532667D01*
Y537333D01*
X1058164Y538499D01*
X1055832D01*
X1054665Y537333D01*
Y536166D01*
X1055832Y535000D01*
X1059330D01*
X1045335Y387333D02*
X1044169Y388499D01*
X1041836D01*
X1040670Y387333D01*
Y386166D01*
X1041836Y385000D01*
X1044169D01*
X1045335Y383834D01*
Y382668D01*
X1044169Y381501D01*
X1041836D01*
X1040670Y382668D01*
X1047667Y388499D02*
Y381501D01*
X1050000Y383834D01*
X1052333Y381501D01*
Y388499D01*
X1054665Y387333D02*
X1055832Y388499D01*
X1058164D01*
X1059330Y387333D01*
Y386166D01*
X1058164Y385000D01*
X1059330Y383834D01*
Y382668D01*
X1058164Y381501D01*
X1055832D01*
X1054665Y382668D01*
Y383834D01*
X1055832Y385000D01*
X1054665Y386166D01*
Y387333D01*
X1055832Y385000D02*
X1058164D01*
X1145335Y687333D02*
X1144169Y688499D01*
X1141836D01*
X1140670Y687333D01*
Y686166D01*
X1141836Y685000D01*
X1144169D01*
X1145335Y683834D01*
Y682667D01*
X1144169Y681501D01*
X1141836D01*
X1140670Y682667D01*
X1147667Y688499D02*
Y681501D01*
X1150000Y683834D01*
X1152333Y681501D01*
Y688499D01*
X1154665D02*
X1159330D01*
Y687333D01*
X1154665Y682667D01*
Y681501D01*
X1140335Y542333D02*
X1139169Y543499D01*
X1136836D01*
X1135670Y542333D01*
Y541166D01*
X1136836Y540000D01*
X1139169D01*
X1140335Y538834D01*
Y537668D01*
X1139169Y536501D01*
X1136836D01*
X1135670Y537668D01*
X1142667Y543499D02*
Y536501D01*
X1145000Y538834D01*
X1147333Y536501D01*
Y543499D01*
X1154330D02*
X1151998Y542333D01*
X1149665Y540000D01*
Y537668D01*
X1150832Y536501D01*
X1153164D01*
X1154330Y537668D01*
Y538834D01*
X1153164Y540000D01*
X1149665D01*
X1140335Y392333D02*
X1139169Y393499D01*
X1136836D01*
X1135670Y392333D01*
Y391166D01*
X1136836Y390000D01*
X1139169D01*
X1140335Y388834D01*
Y387667D01*
X1139169Y386501D01*
X1136836D01*
X1135670Y387667D01*
X1142667Y393499D02*
Y386501D01*
X1145000Y388834D01*
X1147333Y386501D01*
Y393499D01*
X1154330D02*
X1149665D01*
Y390000D01*
X1151998Y391166D01*
X1153164D01*
X1154330Y390000D01*
Y387667D01*
X1153164Y386501D01*
X1150832D01*
X1149665Y387667D01*
X1245335Y687333D02*
X1244169Y688499D01*
X1241836D01*
X1240670Y687333D01*
Y686166D01*
X1241836Y685000D01*
X1244169D01*
X1245335Y683834D01*
Y682667D01*
X1244169Y681501D01*
X1241836D01*
X1240670Y682667D01*
X1247667Y688499D02*
Y681501D01*
X1250000Y683834D01*
X1252333Y681501D01*
Y688499D01*
X1258164Y681501D02*
Y688499D01*
X1254665Y685000D01*
X1259330D01*
X1245335Y537333D02*
X1244169Y538499D01*
X1241836D01*
X1240670Y537333D01*
Y536166D01*
X1241836Y535000D01*
X1244169D01*
X1245335Y533834D01*
Y532667D01*
X1244169Y531501D01*
X1241836D01*
X1240670Y532667D01*
X1247667Y538499D02*
Y531501D01*
X1250000Y533834D01*
X1252333Y531501D01*
Y538499D01*
X1254665Y537333D02*
X1255832Y538499D01*
X1258164D01*
X1259330Y537333D01*
Y536166D01*
X1258164Y535000D01*
X1256998D01*
X1258164D01*
X1259330Y533834D01*
Y532667D01*
X1258164Y531501D01*
X1255832D01*
X1254665Y532667D01*
X1245335Y387333D02*
X1244169Y388499D01*
X1241836D01*
X1240670Y387333D01*
Y386166D01*
X1241836Y385000D01*
X1244169D01*
X1245335Y383834D01*
Y382668D01*
X1244169Y381501D01*
X1241836D01*
X1240670Y382668D01*
X1247667Y388499D02*
Y381501D01*
X1250000Y383834D01*
X1252333Y381501D01*
Y388499D01*
X1259330Y381501D02*
X1254665D01*
X1259330Y386166D01*
Y387333D01*
X1258164Y388499D01*
X1255832D01*
X1254665Y387333D01*
X940501Y827333D02*
X939335Y828499D01*
X937002D01*
X935836Y827333D01*
Y826166D01*
X937002Y825000D01*
X939335D01*
X940501Y823834D01*
Y822667D01*
X939335Y821501D01*
X937002D01*
X935836Y822667D01*
X942834Y828499D02*
Y821501D01*
X945166Y823834D01*
X947499Y821501D01*
Y828499D01*
X949831Y821501D02*
X952164D01*
X950998D01*
Y828499D01*
X949831Y827333D01*
X1176253Y986501D02*
Y993499D01*
X1179752D01*
X1180918Y992333D01*
Y990000D01*
X1179752Y988834D01*
X1176253D01*
X1178586D02*
X1180918Y986501D01*
X1183251D02*
X1185583D01*
X1184417D01*
Y993499D01*
X1183251Y992333D01*
X1189082D02*
X1190248Y993499D01*
X1192581D01*
X1193747Y992333D01*
Y991166D01*
X1192581Y990000D01*
X1193747Y988834D01*
Y987667D01*
X1192581Y986501D01*
X1190248D01*
X1189082Y987667D01*
Y988834D01*
X1190248Y990000D01*
X1189082Y991166D01*
Y992333D01*
X1190248Y990000D02*
X1192581D01*
X1151253Y986501D02*
Y993499D01*
X1154752D01*
X1155918Y992333D01*
Y990000D01*
X1154752Y988834D01*
X1151253D01*
X1153586D02*
X1155918Y986501D01*
X1158251D02*
X1160583D01*
X1159417D01*
Y993499D01*
X1158251Y992333D01*
X1164082Y993499D02*
X1168747D01*
Y992333D01*
X1164082Y987667D01*
Y986501D01*
X1126253D02*
Y993499D01*
X1129752D01*
X1130918Y992333D01*
Y990000D01*
X1129752Y988834D01*
X1126253D01*
X1128586D02*
X1130918Y986501D01*
X1133251D02*
X1135583D01*
X1134417D01*
Y993499D01*
X1133251Y992333D01*
X1143747Y993499D02*
X1141415Y992333D01*
X1139082Y990000D01*
Y987667D01*
X1140248Y986501D01*
X1142581D01*
X1143747Y987667D01*
Y988834D01*
X1142581Y990000D01*
X1139082D01*
X1101253Y986501D02*
Y993499D01*
X1104752D01*
X1105918Y992333D01*
Y990000D01*
X1104752Y988834D01*
X1101253D01*
X1103586D02*
X1105918Y986501D01*
X1108251D02*
X1110583D01*
X1109417D01*
Y993499D01*
X1108251Y992333D01*
X1118747Y993499D02*
X1114082D01*
Y990000D01*
X1116415Y991166D01*
X1117581D01*
X1118747Y990000D01*
Y987667D01*
X1117581Y986501D01*
X1115248D01*
X1114082Y987667D01*
X1076253Y986501D02*
Y993499D01*
X1079752D01*
X1080918Y992333D01*
Y990000D01*
X1079752Y988834D01*
X1076253D01*
X1078586D02*
X1080918Y986501D01*
X1083251D02*
X1085583D01*
X1084417D01*
Y993499D01*
X1083251Y992333D01*
X1092581Y986501D02*
Y993499D01*
X1089082Y990000D01*
X1093747D01*
X1051253Y986501D02*
Y993499D01*
X1054752D01*
X1055918Y992333D01*
Y990000D01*
X1054752Y988834D01*
X1051253D01*
X1053586D02*
X1055918Y986501D01*
X1058251D02*
X1060583D01*
X1059417D01*
Y993499D01*
X1058251Y992333D01*
X1064082D02*
X1065248Y993499D01*
X1067581D01*
X1068747Y992333D01*
Y991166D01*
X1067581Y990000D01*
X1066415D01*
X1067581D01*
X1068747Y988834D01*
Y987667D01*
X1067581Y986501D01*
X1065248D01*
X1064082Y987667D01*
X1239169Y766501D02*
Y773499D01*
X1242667D01*
X1243834Y772333D01*
Y770000D01*
X1242667Y768834D01*
X1239169D01*
X1241501D02*
X1243834Y766501D01*
X1246166Y772333D02*
X1247333Y773499D01*
X1249665D01*
X1250832Y772333D01*
Y771166D01*
X1249665Y770000D01*
X1250832Y768834D01*
Y767667D01*
X1249665Y766501D01*
X1247333D01*
X1246166Y767667D01*
Y768834D01*
X1247333Y770000D01*
X1246166Y771166D01*
Y772333D01*
X1247333Y770000D02*
X1249665D01*
X1339318Y718922D02*
Y725920D01*
X1342817D01*
X1343983Y724753D01*
Y722421D01*
X1342817Y721255D01*
X1339318D01*
X1341651D02*
X1343983Y718922D01*
X1346316Y725920D02*
X1350981D01*
Y724753D01*
X1346316Y720088D01*
Y718922D01*
X1302488Y767436D02*
Y774434D01*
X1305987D01*
X1307153Y773268D01*
Y770935D01*
X1305987Y769769D01*
X1302488D01*
X1304821D02*
X1307153Y767436D01*
X1314151Y774434D02*
X1311818Y773268D01*
X1309486Y770935D01*
Y768602D01*
X1310652Y767436D01*
X1312985D01*
X1314151Y768602D01*
Y769769D01*
X1312985Y770935D01*
X1309486D01*
X974169Y721501D02*
Y728499D01*
X977667D01*
X978834Y727333D01*
Y725000D01*
X977667Y723834D01*
X974169D01*
X976501D02*
X978834Y721501D01*
X984665D02*
Y728499D01*
X981166Y725000D01*
X985832D01*
X1079320Y1298499D02*
Y1291501D01*
Y1295000D01*
X1083986D01*
Y1298499D01*
Y1291501D01*
X1086318Y1298499D02*
Y1291501D01*
X1090983D01*
X1093316D02*
X1095648D01*
X1094482D01*
Y1298499D01*
X1093316Y1297333D01*
X1099147Y1291501D02*
X1101480D01*
X1100314D01*
Y1298499D01*
X1099147Y1297333D01*
X1085670Y1098499D02*
Y1091501D01*
Y1095000D01*
X1090335D01*
Y1098499D01*
Y1091501D01*
X1092667Y1098499D02*
Y1091501D01*
X1097333D01*
X1099665Y1092667D02*
X1100832Y1091501D01*
X1103164D01*
X1104330Y1092667D01*
Y1097333D01*
X1103164Y1098499D01*
X1100832D01*
X1099665Y1097333D01*
Y1096166D01*
X1100832Y1095000D01*
X1104330D01*
X1082754Y1188499D02*
Y1181501D01*
Y1185000D01*
X1087419D01*
Y1188499D01*
Y1181501D01*
X1089752Y1188499D02*
Y1181501D01*
X1094417D01*
X1096749D02*
X1099082D01*
X1097916D01*
Y1188499D01*
X1096749Y1187333D01*
X1102581D02*
X1103747Y1188499D01*
X1106080D01*
X1107246Y1187333D01*
Y1182667D01*
X1106080Y1181501D01*
X1103747D01*
X1102581Y1182667D01*
Y1187333D01*
X1180670Y1298499D02*
Y1291501D01*
Y1295000D01*
X1185335D01*
Y1298499D01*
Y1291501D01*
X1187667Y1298499D02*
Y1291501D01*
X1192333D01*
X1194665Y1297333D02*
X1195832Y1298499D01*
X1198164D01*
X1199330Y1297333D01*
Y1296166D01*
X1198164Y1295000D01*
X1199330Y1293834D01*
Y1292667D01*
X1198164Y1291501D01*
X1195832D01*
X1194665Y1292667D01*
Y1293834D01*
X1195832Y1295000D01*
X1194665Y1296166D01*
Y1297333D01*
X1195832Y1295000D02*
X1198164D01*
X1180670Y1193499D02*
Y1186501D01*
Y1190000D01*
X1185335D01*
Y1193499D01*
Y1186501D01*
X1187667Y1193499D02*
Y1186501D01*
X1192333D01*
X1194665Y1193499D02*
X1199330D01*
Y1192333D01*
X1194665Y1187667D01*
Y1186501D01*
X1185670Y1088499D02*
Y1081501D01*
Y1085000D01*
X1190335D01*
Y1088499D01*
Y1081501D01*
X1192667Y1088499D02*
Y1081501D01*
X1197333D01*
X1204330Y1088499D02*
X1201998Y1087333D01*
X1199665Y1085000D01*
Y1082667D01*
X1200832Y1081501D01*
X1203164D01*
X1204330Y1082667D01*
Y1083834D01*
X1203164Y1085000D01*
X1199665D01*
X1285670Y1298499D02*
Y1291501D01*
Y1295000D01*
X1290335D01*
Y1298499D01*
Y1291501D01*
X1292668Y1298499D02*
Y1291501D01*
X1297333D01*
X1304330Y1298499D02*
X1299665D01*
Y1295000D01*
X1301998Y1296166D01*
X1303164D01*
X1304330Y1295000D01*
Y1292667D01*
X1303164Y1291501D01*
X1300831D01*
X1299665Y1292667D01*
X1285670Y1193499D02*
Y1186501D01*
Y1190000D01*
X1290335D01*
Y1193499D01*
Y1186501D01*
X1292668Y1193499D02*
Y1186501D01*
X1297333D01*
X1303164D02*
Y1193499D01*
X1299665Y1190000D01*
X1304330D01*
X1290670Y1088499D02*
Y1081501D01*
Y1085000D01*
X1295335D01*
Y1088499D01*
Y1081501D01*
X1297668Y1088499D02*
Y1081501D01*
X1302333D01*
X1304665Y1087333D02*
X1305831Y1088499D01*
X1308164D01*
X1309330Y1087333D01*
Y1086166D01*
X1308164Y1085000D01*
X1306998D01*
X1308164D01*
X1309330Y1083834D01*
Y1082667D01*
X1308164Y1081501D01*
X1305831D01*
X1304665Y1082667D01*
X1380670Y668499D02*
Y661501D01*
Y665000D01*
X1385335D01*
Y668499D01*
Y661501D01*
X1387668Y668499D02*
Y661501D01*
X1392333D01*
X1399330D02*
X1394665D01*
X1399330Y666166D01*
Y667333D01*
X1398164Y668499D01*
X1395831D01*
X1394665Y667333D01*
X1401836Y764499D02*
Y757501D01*
Y761000D01*
X1406501D01*
Y764499D01*
Y757501D01*
X1408834Y764499D02*
Y757501D01*
X1413499D01*
X1415831D02*
X1418164D01*
X1416998D01*
Y764499D01*
X1415831Y763333D01*
X1091836Y893499D02*
Y886501D01*
X1095335D01*
X1096501Y887667D01*
Y892333D01*
X1095335Y893499D01*
X1091836D01*
X1098834D02*
Y886501D01*
X1102333D01*
X1103499Y887667D01*
Y892333D01*
X1102333Y893499D01*
X1098834D01*
X1105832Y886501D02*
X1108164D01*
X1106998D01*
Y893499D01*
X1105832Y892333D01*
X1236836Y998499D02*
Y991501D01*
X1240335D01*
X1241501Y992667D01*
Y997333D01*
X1240335Y998499D01*
X1236836D01*
X1243834Y991501D02*
Y996166D01*
X1246166Y998499D01*
X1248499Y996166D01*
Y991501D01*
Y995000D01*
X1243834D01*
X1250832Y991501D02*
X1253164D01*
X1251998D01*
Y998499D01*
X1250832Y997333D01*
X1407834Y820333D02*
X1406667Y821499D01*
X1404335D01*
X1403169Y820333D01*
Y815667D01*
X1404335Y814501D01*
X1406667D01*
X1407834Y815667D01*
X1410166D02*
X1411333Y814501D01*
X1413665D01*
X1414832Y815667D01*
Y820333D01*
X1413665Y821499D01*
X1411333D01*
X1410166Y820333D01*
Y819166D01*
X1411333Y818000D01*
X1414832D01*
X973905Y924651D02*
X972739Y925818D01*
X970406D01*
X969240Y924651D01*
Y919986D01*
X970406Y918820D01*
X972739D01*
X973905Y919986D01*
X976238Y925818D02*
X980903D01*
Y924651D01*
X976238Y919986D01*
Y918820D01*
X1295977Y896712D02*
X1294811Y897878D01*
X1292478D01*
X1291312Y896712D01*
Y892046D01*
X1292478Y890880D01*
X1294811D01*
X1295977Y892046D01*
X1301809Y890880D02*
Y897878D01*
X1298310Y894379D01*
X1302975D01*
X817900Y714400D02*
G03*
X817900Y714400I-2500J0D01*
G01*
X762000Y411000D02*
X841000D01*
Y309000D02*
Y411000D01*
X762000Y309000D02*
X841000D01*
X762000D02*
Y411000D01*
D23*
X1654500Y441750D02*
G03*
X1654500Y441750I-1500J0D01*
G01*
D24*
X1719000Y1045000D02*
G03*
X1719000Y1045000I-1250J0D01*
G01*
X1636660Y996990D02*
G03*
X1636660Y996990I-1250J0D01*
G01*
X667500Y1177750D02*
G03*
X667500Y1177750I-1250J0D01*
G01*
Y502750D02*
G03*
X667500Y502750I-1250J0D01*
G01*
D25*
X1872507Y847500D02*
X1907507D01*
X1872507D02*
Y912500D01*
X1907507D01*
Y847500D02*
Y912500D01*
X1913257Y848750D02*
X1929758D01*
X1701900Y862700D02*
X1727300D01*
Y837300D02*
Y862700D01*
X1701900Y837300D02*
Y862700D01*
X1727300Y856350D02*
X1733650Y862700D01*
X1746350D01*
X1752700Y856350D01*
Y843650D02*
Y856350D01*
X1746350Y837300D02*
X1752700Y843650D01*
X1733650Y837300D02*
X1746350D01*
X1727300Y843650D02*
X1733650Y837300D01*
X1701900D02*
X1727300D01*
X1752700Y843650D02*
X1759050Y837300D01*
X1771750D01*
X1778100Y843650D01*
Y856350D01*
X1771750Y862700D02*
X1778100Y856350D01*
X1759050Y862700D02*
X1771750D01*
X1752700Y856350D02*
X1759050Y862700D01*
X1895500Y815000D02*
Y825000D01*
X1891000Y820500D02*
X1895500Y825000D01*
X1891000Y819500D02*
Y820500D01*
Y819500D02*
X1895500Y815000D01*
X1890500D02*
Y825000D01*
X1804457Y886000D02*
Y894500D01*
Y886000D02*
X1814957D01*
X1804457Y906500D02*
Y915000D01*
X1814957D01*
X1824000Y851000D02*
X1836000D01*
X1874000Y981000D02*
X1886000D01*
X1733500Y1046500D02*
X1826500D01*
Y953500D02*
Y1046500D01*
X1733500Y953500D02*
X1826500D01*
X1733500D02*
Y1046500D01*
X1982000Y841900D02*
X2010950D01*
Y867300D01*
X1982000D02*
X2010950D01*
X1982000Y918100D02*
X2010950D01*
Y892700D02*
Y918100D01*
X1982000Y892700D02*
X2010950D01*
X1982000Y829000D02*
X2077000D01*
Y931000D01*
X1982000D02*
X2077000D01*
X1982000Y829000D02*
Y931000D01*
X1954000Y890000D02*
X1966000D01*
X2007300Y956500D02*
Y981900D01*
X2032700D01*
X2007300Y956500D02*
X2032700D01*
X2007300Y988250D02*
X2013650Y981900D01*
X2007300Y988250D02*
Y1000950D01*
X2013650Y1007300D01*
X2026350D01*
X2032700Y1000950D01*
Y988250D02*
Y1000950D01*
X2026350Y981900D02*
X2032700Y988250D01*
Y956500D02*
Y981900D01*
X2026350Y1007300D02*
X2032700Y1013650D01*
Y1026350D01*
X2026350Y1032700D02*
X2032700Y1026350D01*
X2013650Y1032700D02*
X2026350D01*
X2007300Y1026350D02*
X2013650Y1032700D01*
X2007300Y1013650D02*
Y1026350D01*
Y1013650D02*
X2013650Y1007300D01*
X2026350Y1032700D02*
X2032700Y1039050D01*
Y1051750D01*
X2026350Y1058100D02*
X2032700Y1051750D01*
X2013650Y1058100D02*
X2026350D01*
X2007300Y1051750D02*
X2013650Y1058100D01*
X2007300Y1039050D02*
Y1051750D01*
Y1039050D02*
X2013650Y1032700D01*
X2026350Y1058100D02*
X2032700Y1064450D01*
Y1077150D01*
X2026350Y1083500D02*
X2032700Y1077150D01*
X2013650Y1083500D02*
X2026350D01*
X2007300Y1077150D02*
X2013650Y1083500D01*
X2007300Y1064450D02*
Y1077150D01*
Y1064450D02*
X2013650Y1058100D01*
X1760000Y1094000D02*
Y1106000D01*
X1804000Y1110000D02*
X1816000D01*
X1622700Y1001800D02*
X1648100D01*
Y1087400D01*
X1622700D02*
X1648100D01*
X1622700Y1001800D02*
Y1087400D01*
X652000Y1184500D02*
Y1239500D01*
X576000Y1184500D02*
Y1239500D01*
X586500Y1174000D02*
X641500D01*
X586500Y1250000D02*
X641500D01*
Y1174000D02*
X652000Y1184500D01*
X576000D02*
X586500Y1174000D01*
X641500Y1250000D02*
X652000Y1239500D01*
X576000D02*
X586500Y1250000D01*
X637000Y1184500D02*
X652000D01*
X637000D02*
Y1189500D01*
X652000D01*
Y509500D02*
Y564500D01*
X576000Y509500D02*
Y564500D01*
X586500Y499000D02*
X641500D01*
X586500Y575000D02*
X641500D01*
Y499000D02*
X652000Y509500D01*
X576000D02*
X586500Y499000D01*
X641500Y575000D02*
X652000Y564500D01*
X576000D02*
X586500Y575000D01*
X637000Y509500D02*
X652000D01*
X637000D02*
Y514500D01*
X652000D01*
D83*
X1643500Y625250D02*
G03*
X1643500Y625250I-500J0D01*
G01*
D84*
X1559440Y544431D02*
X1630560D01*
X1559440Y461880D02*
Y544431D01*
Y461880D02*
X1573410D01*
X1577220Y458070D01*
X1612780D01*
X1616590Y461880D01*
X1630560D01*
Y544431D01*
X1750500Y598750D02*
X1784500D01*
X1750500D02*
Y618750D01*
X1784500D01*
Y598750D02*
Y618750D01*
X1594500Y596750D02*
Y620750D01*
Y596750D02*
X1640500D01*
Y620750D01*
X1594500D02*
X1640500D01*
X1770200Y582600D02*
X1776550Y588950D01*
X1789250D01*
X1795600Y582600D01*
Y569900D02*
Y582600D01*
X1789250Y563550D02*
X1795600Y569900D01*
X1776550Y563550D02*
X1789250D01*
X1770200Y569900D02*
X1776550Y563550D01*
X1744800Y582600D02*
X1751150Y588950D01*
X1763850D01*
X1770200Y582600D01*
Y569900D02*
Y582600D01*
X1763850Y563550D02*
X1770200Y569900D01*
X1751150Y563550D02*
X1763850D01*
X1744800Y569900D02*
X1751150Y563550D01*
X1719400Y582600D02*
X1725750Y588950D01*
X1738450D01*
X1744800Y582600D01*
Y569900D02*
Y582600D01*
X1738450Y563550D02*
X1744800Y569900D01*
X1725750Y563550D02*
X1738450D01*
X1719400Y569900D02*
X1725750Y563550D01*
X1668600D02*
X1694000D01*
Y569900D02*
X1700350Y563550D01*
X1713050D01*
X1719400Y569900D01*
Y582600D01*
X1713050Y588950D02*
X1719400Y582600D01*
X1700350Y588950D02*
X1713050D01*
X1694000Y582600D02*
X1700350Y588950D01*
X1668600Y563550D02*
Y588950D01*
X1694000Y563550D02*
Y588950D01*
X1668600D02*
X1694000D01*
X1677000Y376250D02*
X1680900D01*
X1677000D02*
Y380150D01*
X1745100Y376250D02*
X1749000D01*
Y380150D01*
X1745100Y448250D02*
X1749000D01*
Y444350D02*
Y448250D01*
X1677000Y444350D02*
Y448250D01*
X1680900D01*
X1663250Y481500D02*
Y505500D01*
Y481500D02*
X1709250D01*
Y505500D01*
X1663250D02*
X1709250D01*
X1853000Y546750D02*
Y570750D01*
X1807000D02*
X1853000D01*
X1807000Y546750D02*
Y570750D01*
Y546750D02*
X1853000D01*
X1728000Y465750D02*
Y511750D01*
X1752000D01*
Y465750D02*
Y511750D01*
X1728000Y465750D02*
X1752000D01*
X1722000Y523950D02*
X1768000D01*
X1722000D02*
Y547950D01*
X1768000D01*
Y523950D02*
Y547950D01*
X1694500Y596750D02*
X1740500D01*
X1694500D02*
Y620750D01*
X1740500D01*
Y596750D02*
Y620750D01*
X1664500Y521750D02*
X1710500D01*
X1664500D02*
Y545750D01*
X1710500D01*
Y521750D02*
Y545750D01*
X1657000Y483250D02*
Y529250D01*
X1633000Y483250D02*
X1657000D01*
X1633000D02*
Y529250D01*
X1657000D01*
X1808750Y470500D02*
X1854750D01*
X1808750D02*
Y494500D01*
X1854750D01*
Y470500D02*
Y494500D01*
X1809500Y366750D02*
X1855500D01*
X1809500D02*
Y390750D01*
X1855500D01*
Y366750D02*
Y390750D01*
X1809750Y401000D02*
X1855750D01*
X1809750D02*
Y425000D01*
X1855750D01*
Y401000D02*
Y425000D01*
X1809500Y430500D02*
X1855500D01*
X1809500D02*
Y454500D01*
X1855500D01*
Y430500D02*
Y454500D01*
X1807000Y509250D02*
X1853000D01*
X1807000D02*
Y533250D01*
X1853000D01*
Y509250D02*
Y533250D01*
X1625000Y416750D02*
Y450750D01*
X1645000D01*
Y416750D02*
Y450750D01*
X1625000Y416750D02*
X1645000D01*
X1553000Y608750D02*
X1587000D01*
X1553000D02*
Y628750D01*
X1587000D01*
Y608750D02*
Y628750D01*
X1692500Y591750D02*
Y625750D01*
X1647500D02*
X1692500D01*
X1642500Y620750D02*
X1647500Y625750D01*
X1642500Y591750D02*
Y620750D01*
Y591750D02*
X1692500D01*
X1526000Y486250D02*
X1551000D01*
X1526000D02*
Y496250D01*
X1519000D02*
X1526000D01*
X1519000D02*
Y506250D01*
X1526000D01*
Y516250D01*
X1551000D01*
Y486250D02*
Y516250D01*
X1632899Y582600D02*
X1639249Y588950D01*
X1651949D01*
X1658299Y582600D01*
Y569900D02*
Y582600D01*
X1651949Y563550D02*
X1658299Y569900D01*
X1639249Y563550D02*
X1651949D01*
X1632899Y569900D02*
X1639249Y563550D01*
X1607499Y582600D02*
X1613849Y588950D01*
X1626549D01*
X1632899Y582600D01*
Y569900D02*
Y582600D01*
X1626549Y563550D02*
X1632899Y569900D01*
X1613849Y563550D02*
X1626549D01*
X1607499Y569900D02*
X1613849Y563550D01*
X1556699D02*
X1582099D01*
Y569900D02*
X1588449Y563550D01*
X1601149D01*
X1607499Y569900D01*
Y582600D01*
X1601149Y588950D02*
X1607499Y582600D01*
X1588449Y588950D02*
X1601149D01*
X1582099Y582600D02*
X1588449Y588950D01*
X1556699Y563550D02*
Y588950D01*
X1582099Y563550D02*
Y588950D01*
X1556699D02*
X1582099D01*
X1576000Y315750D02*
Y431750D01*
X1613000Y315750D02*
X1624000D01*
Y431750D01*
X1576000D02*
X1587000D01*
X1576000Y315750D02*
X1587000D01*
X1613000Y431750D02*
X1624000D01*
X1520500Y546250D02*
X1554500D01*
Y526250D02*
Y546250D01*
X1520500Y526250D02*
X1554500D01*
X1520500D02*
Y546250D01*
X1630000Y393250D02*
X1650000D01*
X1630000Y359250D02*
Y393250D01*
Y359250D02*
X1650000D01*
Y393250D01*
X1828957Y890500D02*
G03*
X1827957Y890500I-500J0D01*
G01*
D02*
G03*
X1828957Y890500I500J0D01*
G01*
X325400Y1366900D02*
Y1556900D01*
Y1366900D02*
X830400D01*
Y1556900D01*
X325400D02*
X830400D01*
X710000Y974000D02*
Y1064000D01*
X541000Y974000D02*
X710000D01*
X541000D02*
Y1104000D01*
X710000D01*
Y1064000D02*
Y1104000D01*
X766000Y1249000D02*
X835000D01*
X766000Y1160000D02*
Y1249000D01*
Y1160000D02*
X835000D01*
Y1249000D01*
X510750Y976050D02*
Y1102300D01*
X483250Y976050D02*
X510750D01*
X483250Y1102300D02*
X510750D01*
X483250Y976050D02*
Y1102300D01*
X331000Y1147200D02*
Y1273200D01*
X270000Y1147200D02*
X331000D01*
X270000D02*
Y1273200D01*
X331000D01*
X729000Y1152000D02*
Y1262000D01*
X683000Y1152000D02*
X729000D01*
X683000D02*
Y1262000D01*
X729000D01*
X696836Y1273499D02*
X701501D01*
Y1272333D01*
X696836Y1267667D01*
Y1266501D01*
X701501D01*
X708499Y1267667D02*
Y1272333D01*
X707333Y1273499D01*
X705000D01*
X703834Y1272333D01*
Y1267667D01*
X705000Y1266501D01*
X707333D01*
X706166Y1268834D02*
X708499Y1266501D01*
X707333D02*
X708499Y1267667D01*
X710832Y1266501D02*
X713164D01*
X711998D01*
Y1273499D01*
X710832Y1272333D01*
X761688Y1100234D02*
X766353Y1093236D01*
Y1100234D02*
X761688Y1093236D01*
X773351Y1099068D02*
X772185Y1100234D01*
X769852D01*
X768686Y1099068D01*
Y1097901D01*
X769852Y1096735D01*
X772185D01*
X773351Y1095569D01*
Y1094402D01*
X772185Y1093236D01*
X769852D01*
X768686Y1094402D01*
X779182Y1093236D02*
Y1100234D01*
X775684Y1096735D01*
X780349D01*
X270452Y1286670D02*
X275117Y1279672D01*
Y1286670D02*
X270452Y1279672D01*
X282115Y1285504D02*
X280949Y1286670D01*
X278616D01*
X277450Y1285504D01*
Y1284337D01*
X278616Y1283171D01*
X280949D01*
X282115Y1282005D01*
Y1280838D01*
X280949Y1279672D01*
X278616D01*
X277450Y1280838D01*
X284447Y1285504D02*
X285614Y1286670D01*
X287946D01*
X289113Y1285504D01*
Y1284337D01*
X287946Y1283171D01*
X286780D01*
X287946D01*
X289113Y1282005D01*
Y1280838D01*
X287946Y1279672D01*
X285614D01*
X284447Y1280838D01*
X483812Y1115982D02*
X488477Y1108984D01*
Y1115982D02*
X483812Y1108984D01*
X495475Y1114816D02*
X494309Y1115982D01*
X491976D01*
X490810Y1114816D01*
Y1113649D01*
X491976Y1112483D01*
X494309D01*
X495475Y1111317D01*
Y1110150D01*
X494309Y1108984D01*
X491976D01*
X490810Y1110150D01*
X502473Y1108984D02*
X497808D01*
X502473Y1113649D01*
Y1114816D01*
X501306Y1115982D01*
X498974D01*
X497808Y1114816D01*
X251656Y1099980D02*
X256321Y1092982D01*
Y1099980D02*
X251656Y1092982D01*
X263319Y1098813D02*
X262153Y1099980D01*
X259820D01*
X258654Y1098813D01*
Y1097647D01*
X259820Y1096481D01*
X262153D01*
X263319Y1095315D01*
Y1094148D01*
X262153Y1092982D01*
X259820D01*
X258654Y1094148D01*
X265651Y1092982D02*
X267984D01*
X266818D01*
Y1099980D01*
X265651Y1098813D01*
X396944Y1201580D02*
Y1196915D01*
X399277Y1194582D01*
X401609Y1196915D01*
Y1201580D01*
X403942D02*
X408607D01*
X406274D01*
Y1194582D01*
X410939D02*
X413272D01*
X412106D01*
Y1201580D01*
X410939Y1200414D01*
X582253Y1308501D02*
Y1315499D01*
X585752D01*
X586918Y1314333D01*
Y1312000D01*
X585752Y1310834D01*
X582253D01*
X584585D02*
X586918Y1308501D01*
X589251D02*
X591583D01*
X590417D01*
Y1315499D01*
X589251Y1314333D01*
X595082Y1315499D02*
X599747D01*
Y1314333D01*
X595082Y1309667D01*
Y1308501D01*
X633253D02*
Y1315499D01*
X636752D01*
X637918Y1314333D01*
Y1312000D01*
X636752Y1310834D01*
X633253D01*
X635585D02*
X637918Y1308501D01*
X640251D02*
X642583D01*
X641417D01*
Y1315499D01*
X640251Y1314333D01*
X650747Y1315499D02*
X648415Y1314333D01*
X646082Y1312000D01*
Y1309667D01*
X647248Y1308501D01*
X649581D01*
X650747Y1309667D01*
Y1310834D01*
X649581Y1312000D01*
X646082D01*
X509253Y1308501D02*
Y1315499D01*
X512752D01*
X513918Y1314333D01*
Y1312000D01*
X512752Y1310834D01*
X509253D01*
X511585D02*
X513918Y1308501D01*
X516251D02*
X518583D01*
X517417D01*
Y1315499D01*
X516251Y1314333D01*
X526747Y1315499D02*
X522082D01*
Y1312000D01*
X524415Y1313166D01*
X525581D01*
X526747Y1312000D01*
Y1309667D01*
X525581Y1308501D01*
X523248D01*
X522082Y1309667D01*
X531253Y1308501D02*
Y1315499D01*
X534752D01*
X535918Y1314333D01*
Y1312000D01*
X534752Y1310834D01*
X531253D01*
X533585D02*
X535918Y1308501D01*
X538251D02*
X540583D01*
X539417D01*
Y1315499D01*
X538251Y1314333D01*
X547581Y1308501D02*
Y1315499D01*
X544082Y1312000D01*
X548747D01*
X557253Y1308501D02*
Y1315499D01*
X560752D01*
X561918Y1314333D01*
Y1312000D01*
X560752Y1310834D01*
X557253D01*
X559585D02*
X561918Y1308501D01*
X564251D02*
X566583D01*
X565417D01*
Y1315499D01*
X564251Y1314333D01*
X570082D02*
X571248Y1315499D01*
X573581D01*
X574747Y1314333D01*
Y1313166D01*
X573581Y1312000D01*
X572415D01*
X573581D01*
X574747Y1310834D01*
Y1309667D01*
X573581Y1308501D01*
X571248D01*
X570082Y1309667D01*
X608253Y1308501D02*
Y1315499D01*
X611752D01*
X612918Y1314333D01*
Y1312000D01*
X611752Y1310834D01*
X608253D01*
X610585D02*
X612918Y1308501D01*
X615251D02*
X617583D01*
X616417D01*
Y1315499D01*
X615251Y1314333D01*
X625747Y1308501D02*
X621082D01*
X625747Y1313166D01*
Y1314333D01*
X624581Y1315499D01*
X622248D01*
X621082Y1314333D01*
X659419Y1308501D02*
Y1315499D01*
X662918D01*
X664084Y1314333D01*
Y1312000D01*
X662918Y1310834D01*
X659419D01*
X661752D02*
X664084Y1308501D01*
X666417D02*
X668749D01*
X667583D01*
Y1315499D01*
X666417Y1314333D01*
X672248Y1308501D02*
X674581D01*
X673415D01*
Y1315499D01*
X672248Y1314333D01*
X680253Y1308501D02*
Y1315499D01*
X683752D01*
X684918Y1314333D01*
Y1312000D01*
X683752Y1310834D01*
X680253D01*
X682585D02*
X684918Y1308501D01*
X687251D02*
X689583D01*
X688417D01*
Y1315499D01*
X687251Y1314333D01*
X693082D02*
X694248Y1315499D01*
X696581D01*
X697747Y1314333D01*
Y1309667D01*
X696581Y1308501D01*
X694248D01*
X693082Y1309667D01*
Y1314333D01*
X389169Y1097501D02*
Y1104499D01*
X392667D01*
X393834Y1103333D01*
Y1101000D01*
X392667Y1099834D01*
X389169D01*
X391501D02*
X393834Y1097501D01*
X400831Y1104499D02*
X398499Y1103333D01*
X396166Y1101000D01*
Y1098667D01*
X397333Y1097501D01*
X399665D01*
X400831Y1098667D01*
Y1099834D01*
X399665Y1101000D01*
X396166D01*
X417169Y1097501D02*
Y1104499D01*
X420667D01*
X421834Y1103333D01*
Y1101000D01*
X420667Y1099834D01*
X417169D01*
X419501D02*
X421834Y1097501D01*
X428831Y1104499D02*
X424166D01*
Y1101000D01*
X426499Y1102166D01*
X427665D01*
X428831Y1101000D01*
Y1098667D01*
X427665Y1097501D01*
X425333D01*
X424166Y1098667D01*
X667708Y1148608D02*
Y1155606D01*
X671207D01*
X672373Y1154439D01*
Y1152107D01*
X671207Y1150941D01*
X667708D01*
X670041D02*
X672373Y1148608D01*
X678205D02*
Y1155606D01*
X674706Y1152107D01*
X679371D01*
X380169Y1005501D02*
Y1012499D01*
X383667D01*
X384834Y1011333D01*
Y1009000D01*
X383667Y1007834D01*
X380169D01*
X382501D02*
X384834Y1005501D01*
X391832D02*
X387166D01*
X391832Y1010166D01*
Y1011333D01*
X390665Y1012499D01*
X388333D01*
X387166Y1011333D01*
X380335Y1063501D02*
Y1070499D01*
X383834D01*
X385000Y1069333D01*
Y1067000D01*
X383834Y1065834D01*
X380335D01*
X382667D02*
X385000Y1063501D01*
X387333D02*
X389665D01*
X388499D01*
Y1070499D01*
X387333Y1069333D01*
X766514Y1262540D02*
Y1255542D01*
Y1257875D01*
X771179Y1262540D01*
X767680Y1259041D01*
X771179Y1255542D01*
X773512D02*
X775844D01*
X774678D01*
Y1262540D01*
X773512Y1261374D01*
X439870Y1181260D02*
Y1174262D01*
Y1177761D01*
X444535D01*
Y1181260D01*
Y1174262D01*
X446868Y1181260D02*
Y1174262D01*
X451533D01*
X453866D02*
X456198D01*
X455032D01*
Y1181260D01*
X453866Y1180094D01*
X546135Y1117506D02*
X541470D01*
Y1110508D01*
X546135D01*
X541470Y1114007D02*
X543803D01*
X548468Y1110508D02*
X550800D01*
X549634D01*
Y1117506D01*
X548468Y1116339D01*
X549852Y1290226D02*
Y1283228D01*
X553351D01*
X554517Y1284394D01*
Y1289059D01*
X553351Y1290226D01*
X549852D01*
X556850D02*
Y1283228D01*
X560349D01*
X561515Y1284394D01*
Y1289059D01*
X560349Y1290226D01*
X556850D01*
X563848Y1283228D02*
X566180D01*
X565014D01*
Y1290226D01*
X563848Y1289059D01*
X325824Y1570388D02*
Y1563390D01*
X329323D01*
X330489Y1564556D01*
Y1569221D01*
X329323Y1570388D01*
X325824D01*
X332822Y1563390D02*
Y1568055D01*
X335154Y1570388D01*
X337487Y1568055D01*
Y1563390D01*
Y1566889D01*
X332822D01*
X344485Y1563390D02*
X339819D01*
X344485Y1568055D01*
Y1569221D01*
X343318Y1570388D01*
X340986D01*
X339819Y1569221D01*
X751333Y1234166D02*
X752499Y1235333D01*
Y1237665D01*
X751333Y1238831D01*
X746667D01*
X745501Y1237665D01*
Y1235333D01*
X746667Y1234166D01*
X751333Y1231834D02*
X752499Y1230667D01*
Y1228335D01*
X751333Y1227169D01*
X750166D01*
X749000Y1228335D01*
X747834Y1227169D01*
X746667D01*
X745501Y1228335D01*
Y1230667D01*
X746667Y1231834D01*
X747834D01*
X749000Y1230667D01*
X750166Y1231834D01*
X751333D01*
X749000Y1230667D02*
Y1228335D01*
X734667Y1148834D02*
X733501Y1147667D01*
Y1145335D01*
X734667Y1144169D01*
X739333D01*
X740499Y1145335D01*
Y1147667D01*
X739333Y1148834D01*
X733501Y1151166D02*
Y1155832D01*
X734667D01*
X739333Y1151166D01*
X740499D01*
X1220559Y1033394D02*
G03*
X1220559Y1066606I31941J16606D01*
G01*
X1220159Y1133394D02*
G03*
X1220159Y1166606I31941J16606D01*
G01*
X1020559Y1133394D02*
G03*
X1020559Y1166606I31941J16606D01*
G01*
X1320559Y608394D02*
G03*
X1320559Y641606I31941J16606D01*
G01*
X1220559Y1233394D02*
G03*
X1220559Y1266606I31941J16606D01*
G01*
X1120559Y1233394D02*
G03*
X1120559Y1266606I31941J16606D01*
G01*
X1020559Y1233394D02*
G03*
X1020559Y1266606I31941J16606D01*
G01*
Y1033394D02*
G03*
X1020559Y1066606I31941J16606D01*
G01*
X1120559Y1133394D02*
G03*
X1120559Y1166606I31941J16606D01*
G01*
Y1033394D02*
G03*
X1120559Y1066606I31941J16606D01*
G01*
X1020000Y447500D02*
Y502500D01*
X1080000D01*
X1020000Y447500D02*
X1080000D01*
Y502500D01*
X1120000Y447500D02*
Y502500D01*
X1180000D01*
X1120000Y447500D02*
X1180000D01*
Y502500D01*
X1080000Y297500D02*
Y352500D01*
X1020000Y297500D02*
X1080000D01*
X1020000Y352500D02*
X1080000D01*
X1020000Y297500D02*
Y352500D01*
X1120000Y297500D02*
Y352500D01*
X1180000D01*
X1120000Y297500D02*
X1180000D01*
Y352500D01*
X1280000Y297500D02*
Y352500D01*
X1220000Y297500D02*
X1280000D01*
X1220000Y352500D02*
X1280000D01*
X1220000Y297500D02*
Y352500D01*
X1280000Y447500D02*
Y502500D01*
X1220000Y447500D02*
X1280000D01*
X1220000Y502500D02*
X1280000D01*
X1220000Y447500D02*
Y502500D01*
X1280000Y597500D02*
Y652500D01*
X1220000Y597500D02*
X1280000D01*
X1220000Y652500D02*
X1280000D01*
X1220000Y597500D02*
Y652500D01*
X1119750Y596750D02*
Y651750D01*
X1179750D01*
X1119750Y596750D02*
X1179750D01*
Y651750D01*
X1080000Y597500D02*
Y652500D01*
X1020000Y597500D02*
X1080000D01*
X1020000Y652500D02*
X1080000D01*
X1020000Y597500D02*
Y652500D01*
X325400Y691900D02*
Y881900D01*
Y691900D02*
X830400D01*
Y881900D01*
X325400D02*
X830400D01*
X710000Y299000D02*
Y389000D01*
X541000Y299000D02*
X710000D01*
X541000D02*
Y429000D01*
X710000D01*
Y389000D02*
Y429000D01*
X766000Y574000D02*
X835000D01*
X766000Y485000D02*
Y574000D01*
Y485000D02*
X835000D01*
Y574000D01*
X510750Y301050D02*
Y427300D01*
X483250Y301050D02*
X510750D01*
X483250Y427300D02*
X510750D01*
X483250Y301050D02*
Y427300D01*
X331000Y472200D02*
Y598200D01*
X270000Y472200D02*
X331000D01*
X270000D02*
Y598200D01*
X331000D01*
X729000Y477000D02*
Y587000D01*
X683000Y477000D02*
X729000D01*
X683000D02*
Y587000D01*
X729000D01*
X696836Y598499D02*
X701501D01*
Y597333D01*
X696836Y592667D01*
Y591501D01*
X701501D01*
X708499Y592667D02*
Y597333D01*
X707333Y598499D01*
X705000D01*
X703834Y597333D01*
Y592667D01*
X705000Y591501D01*
X707333D01*
X706166Y593834D02*
X708499Y591501D01*
X707333D02*
X708499Y592667D01*
X710832Y591501D02*
X713164D01*
X711998D01*
Y598499D01*
X710832Y597333D01*
X761688Y425234D02*
X766353Y418236D01*
Y425234D02*
X761688Y418236D01*
X773351Y424067D02*
X772185Y425234D01*
X769852D01*
X768686Y424067D01*
Y422901D01*
X769852Y421735D01*
X772185D01*
X773351Y420569D01*
Y419402D01*
X772185Y418236D01*
X769852D01*
X768686Y419402D01*
X779182Y418236D02*
Y425234D01*
X775684Y421735D01*
X780349D01*
X270452Y611670D02*
X275117Y604672D01*
Y611670D02*
X270452Y604672D01*
X282115Y610504D02*
X280949Y611670D01*
X278616D01*
X277450Y610504D01*
Y609337D01*
X278616Y608171D01*
X280949D01*
X282115Y607005D01*
Y605838D01*
X280949Y604672D01*
X278616D01*
X277450Y605838D01*
X284447Y610504D02*
X285614Y611670D01*
X287946D01*
X289113Y610504D01*
Y609337D01*
X287946Y608171D01*
X286780D01*
X287946D01*
X289113Y607005D01*
Y605838D01*
X287946Y604672D01*
X285614D01*
X284447Y605838D01*
X483812Y440982D02*
X488477Y433984D01*
Y440982D02*
X483812Y433984D01*
X495475Y439815D02*
X494309Y440982D01*
X491976D01*
X490810Y439815D01*
Y438649D01*
X491976Y437483D01*
X494309D01*
X495475Y436317D01*
Y435150D01*
X494309Y433984D01*
X491976D01*
X490810Y435150D01*
X502473Y433984D02*
X497808D01*
X502473Y438649D01*
Y439815D01*
X501306Y440982D01*
X498974D01*
X497808Y439815D01*
X251656Y424980D02*
X256321Y417982D01*
Y424980D02*
X251656Y417982D01*
X263319Y423814D02*
X262153Y424980D01*
X259820D01*
X258654Y423814D01*
Y422647D01*
X259820Y421481D01*
X262153D01*
X263319Y420315D01*
Y419148D01*
X262153Y417982D01*
X259820D01*
X258654Y419148D01*
X265651Y417982D02*
X267984D01*
X266818D01*
Y424980D01*
X265651Y423814D01*
X396944Y526580D02*
Y521915D01*
X399277Y519582D01*
X401609Y521915D01*
Y526580D01*
X403942D02*
X408607D01*
X406274D01*
Y519582D01*
X410939D02*
X413272D01*
X412106D01*
Y526580D01*
X410939Y525414D01*
X582253Y633501D02*
Y640499D01*
X585752D01*
X586918Y639333D01*
Y637000D01*
X585752Y635834D01*
X582253D01*
X584585D02*
X586918Y633501D01*
X589251D02*
X591583D01*
X590417D01*
Y640499D01*
X589251Y639333D01*
X595082Y640499D02*
X599747D01*
Y639333D01*
X595082Y634667D01*
Y633501D01*
X633253D02*
Y640499D01*
X636752D01*
X637918Y639333D01*
Y637000D01*
X636752Y635834D01*
X633253D01*
X635585D02*
X637918Y633501D01*
X640251D02*
X642583D01*
X641417D01*
Y640499D01*
X640251Y639333D01*
X650747Y640499D02*
X648415Y639333D01*
X646082Y637000D01*
Y634667D01*
X647248Y633501D01*
X649581D01*
X650747Y634667D01*
Y635834D01*
X649581Y637000D01*
X646082D01*
X509253Y633501D02*
Y640499D01*
X512752D01*
X513918Y639333D01*
Y637000D01*
X512752Y635834D01*
X509253D01*
X511585D02*
X513918Y633501D01*
X516251D02*
X518583D01*
X517417D01*
Y640499D01*
X516251Y639333D01*
X526747Y640499D02*
X522082D01*
Y637000D01*
X524415Y638166D01*
X525581D01*
X526747Y637000D01*
Y634667D01*
X525581Y633501D01*
X523248D01*
X522082Y634667D01*
X531253Y633501D02*
Y640499D01*
X534752D01*
X535918Y639333D01*
Y637000D01*
X534752Y635834D01*
X531253D01*
X533585D02*
X535918Y633501D01*
X538251D02*
X540583D01*
X539417D01*
Y640499D01*
X538251Y639333D01*
X547581Y633501D02*
Y640499D01*
X544082Y637000D01*
X548747D01*
X557253Y633501D02*
Y640499D01*
X560752D01*
X561918Y639333D01*
Y637000D01*
X560752Y635834D01*
X557253D01*
X559585D02*
X561918Y633501D01*
X564251D02*
X566583D01*
X565417D01*
Y640499D01*
X564251Y639333D01*
X570082D02*
X571248Y640499D01*
X573581D01*
X574747Y639333D01*
Y638166D01*
X573581Y637000D01*
X572415D01*
X573581D01*
X574747Y635834D01*
Y634667D01*
X573581Y633501D01*
X571248D01*
X570082Y634667D01*
X608253Y633501D02*
Y640499D01*
X611752D01*
X612918Y639333D01*
Y637000D01*
X611752Y635834D01*
X608253D01*
X610585D02*
X612918Y633501D01*
X615251D02*
X617583D01*
X616417D01*
Y640499D01*
X615251Y639333D01*
X625747Y633501D02*
X621082D01*
X625747Y638166D01*
Y639333D01*
X624581Y640499D01*
X622248D01*
X621082Y639333D01*
X659419Y633501D02*
Y640499D01*
X662918D01*
X664084Y639333D01*
Y637000D01*
X662918Y635834D01*
X659419D01*
X661752D02*
X664084Y633501D01*
X666417D02*
X668749D01*
X667583D01*
Y640499D01*
X666417Y639333D01*
X672248Y633501D02*
X674581D01*
X673415D01*
Y640499D01*
X672248Y639333D01*
X680253Y633501D02*
Y640499D01*
X683752D01*
X684918Y639333D01*
Y637000D01*
X683752Y635834D01*
X680253D01*
X682585D02*
X684918Y633501D01*
X687251D02*
X689583D01*
X688417D01*
Y640499D01*
X687251Y639333D01*
X693082D02*
X694248Y640499D01*
X696581D01*
X697747Y639333D01*
Y634667D01*
X696581Y633501D01*
X694248D01*
X693082Y634667D01*
Y639333D01*
X389169Y422501D02*
Y429499D01*
X392667D01*
X393834Y428333D01*
Y426000D01*
X392667Y424834D01*
X389169D01*
X391501D02*
X393834Y422501D01*
X400831Y429499D02*
X398499Y428333D01*
X396166Y426000D01*
Y423667D01*
X397333Y422501D01*
X399665D01*
X400831Y423667D01*
Y424834D01*
X399665Y426000D01*
X396166D01*
X417169Y422501D02*
Y429499D01*
X420667D01*
X421834Y428333D01*
Y426000D01*
X420667Y424834D01*
X417169D01*
X419501D02*
X421834Y422501D01*
X428831Y429499D02*
X424166D01*
Y426000D01*
X426499Y427166D01*
X427665D01*
X428831Y426000D01*
Y423667D01*
X427665Y422501D01*
X425333D01*
X424166Y423667D01*
X667708Y473608D02*
Y480606D01*
X671207D01*
X672373Y479440D01*
Y477107D01*
X671207Y475941D01*
X667708D01*
X670041D02*
X672373Y473608D01*
X678205D02*
Y480606D01*
X674706Y477107D01*
X679371D01*
X380169Y330501D02*
Y337499D01*
X383667D01*
X384834Y336333D01*
Y334000D01*
X383667Y332834D01*
X380169D01*
X382501D02*
X384834Y330501D01*
X391832D02*
X387166D01*
X391832Y335166D01*
Y336333D01*
X390665Y337499D01*
X388333D01*
X387166Y336333D01*
X380335Y388501D02*
Y395499D01*
X383834D01*
X385000Y394333D01*
Y392000D01*
X383834Y390834D01*
X380335D01*
X382667D02*
X385000Y388501D01*
X387333D02*
X389665D01*
X388499D01*
Y395499D01*
X387333Y394333D01*
X766514Y587540D02*
Y580542D01*
Y582875D01*
X771179Y587540D01*
X767680Y584041D01*
X771179Y580542D01*
X773512D02*
X775844D01*
X774678D01*
Y587540D01*
X773512Y586373D01*
X439870Y506260D02*
Y499262D01*
Y502761D01*
X444535D01*
Y506260D01*
Y499262D01*
X446868Y506260D02*
Y499262D01*
X451533D01*
X453866D02*
X456198D01*
X455032D01*
Y506260D01*
X453866Y505093D01*
X546135Y442506D02*
X541470D01*
Y435508D01*
X546135D01*
X541470Y439007D02*
X543803D01*
X548468Y435508D02*
X550800D01*
X549634D01*
Y442506D01*
X548468Y441339D01*
X549852Y615226D02*
Y608228D01*
X553351D01*
X554517Y609394D01*
Y614059D01*
X553351Y615226D01*
X549852D01*
X556850D02*
Y608228D01*
X560349D01*
X561515Y609394D01*
Y614059D01*
X560349Y615226D01*
X556850D01*
X563848Y608228D02*
X566180D01*
X565014D01*
Y615226D01*
X563848Y614059D01*
X325824Y895388D02*
Y888390D01*
X329323D01*
X330489Y889556D01*
Y894221D01*
X329323Y895388D01*
X325824D01*
X332822Y888390D02*
Y893055D01*
X335154Y895388D01*
X337487Y893055D01*
Y888390D01*
Y891889D01*
X332822D01*
X344485Y888390D02*
X339819D01*
X344485Y893055D01*
Y894221D01*
X343318Y895388D01*
X340986D01*
X339819Y894221D01*
X751333Y559166D02*
X752499Y560333D01*
Y562665D01*
X751333Y563831D01*
X746667D01*
X745501Y562665D01*
Y560333D01*
X746667Y559166D01*
X751333Y556834D02*
X752499Y555667D01*
Y553335D01*
X751333Y552169D01*
X750166D01*
X749000Y553335D01*
X747834Y552169D01*
X746667D01*
X745501Y553335D01*
Y555667D01*
X746667Y556834D01*
X747834D01*
X749000Y555667D01*
X750166Y556834D01*
X751333D01*
X749000Y555667D02*
Y553335D01*
X734667Y473834D02*
X733501Y472667D01*
Y470335D01*
X734667Y469169D01*
X739333D01*
X740499Y470335D01*
Y472667D01*
X739333Y473834D01*
X733501Y476166D02*
Y480831D01*
X734667D01*
X739333Y476166D01*
X740499D01*
D85*
X1577500Y668750D02*
X1637500D01*
Y633750D02*
Y668750D01*
X1577500Y633750D02*
X1637500D01*
X1577500D02*
Y668750D01*
X1705000Y633750D02*
X1765000D01*
X1705000D02*
Y668750D01*
X1765000D01*
Y633750D02*
Y668750D01*
X1672000Y880000D02*
G03*
X1672000Y880000I-60000J0D01*
G01*
X1688200Y873650D02*
Y886350D01*
X1681850Y880000D02*
X1694550D01*
X1542150Y873650D02*
Y886350D01*
X1405450Y853800D02*
X1422250D01*
X1367450D02*
X1383050D01*
X1422250D02*
Y943200D01*
X1405450D02*
X1422250D01*
X1367450D02*
X1383050D01*
X1354250Y855000D02*
Y863800D01*
Y933200D02*
Y942000D01*
D86*
X439000Y1118000D02*
X459000D01*
Y1168000D01*
X439000D02*
X459000D01*
X439000Y1118000D02*
Y1168000D01*
X583250Y1354250D02*
X599000D01*
X583250Y1319750D02*
Y1354250D01*
Y1319750D02*
X598750D01*
X599000Y1320000D01*
Y1354250D01*
X730750Y1226750D02*
X741250D01*
Y1255250D01*
X730750D02*
X741250D01*
X730750Y1226750D02*
Y1255250D01*
X731750Y1188250D02*
X742250D01*
X731750Y1159750D02*
Y1188250D01*
Y1159750D02*
X742250D01*
Y1188250D01*
X415000Y1108750D02*
Y1143000D01*
X415250Y1143250D01*
X430750D01*
Y1108750D02*
Y1143250D01*
X415000Y1108750D02*
X430750D01*
X387000D02*
Y1143000D01*
X387250Y1143250D01*
X402750D01*
Y1108750D02*
Y1143250D01*
X387000Y1108750D02*
X402750D01*
X526000Y1320000D02*
Y1354250D01*
X525750Y1319750D02*
X526000Y1320000D01*
X510250Y1319750D02*
X525750D01*
X510250D02*
Y1354250D01*
X526000D01*
X650000Y1320000D02*
Y1354250D01*
X649750Y1319750D02*
X650000Y1320000D01*
X634250Y1319750D02*
X649750D01*
X634250D02*
Y1354250D01*
X650000D01*
X625000Y1320000D02*
Y1354250D01*
X624750Y1319750D02*
X625000Y1320000D01*
X609250Y1319750D02*
X624750D01*
X609250D02*
Y1354250D01*
X625000D01*
X574000Y1320000D02*
Y1354250D01*
X573750Y1319750D02*
X574000Y1320000D01*
X558250Y1319750D02*
X573750D01*
X558250D02*
Y1354250D01*
X574000D01*
X548000Y1320000D02*
Y1354250D01*
X547750Y1319750D02*
X548000Y1320000D01*
X532250Y1319750D02*
X547750D01*
X532250D02*
Y1354250D01*
X548000D01*
X697000Y1320000D02*
Y1354250D01*
X696750Y1319750D02*
X697000Y1320000D01*
X681250Y1319750D02*
X696750D01*
X681250D02*
Y1354250D01*
X697000D01*
X675000Y1320000D02*
Y1354250D01*
X674750Y1319750D02*
X675000Y1320000D01*
X659250Y1319750D02*
X674750D01*
X659250D02*
Y1354250D01*
X675000D01*
X377000Y1001000D02*
Y1035250D01*
X376750Y1000750D02*
X377000Y1001000D01*
X361250Y1000750D02*
X376750D01*
X361250D02*
Y1035250D01*
X377000D01*
X361000Y1037750D02*
Y1072000D01*
X361250Y1072250D01*
X376750D01*
Y1037750D02*
Y1072250D01*
X361000Y1037750D02*
X376750D01*
X396250Y1152750D02*
Y1188250D01*
X426750D01*
Y1152750D02*
Y1188250D01*
X396250Y1152750D02*
X426750D01*
X667000Y1107750D02*
X682750D01*
Y1142250D01*
X667250D02*
X682750D01*
X667000Y1142000D02*
X667250Y1142250D01*
X667000Y1107750D02*
Y1142000D01*
X1229175Y915975D02*
X1264225D01*
X1229175D02*
Y981025D01*
X1264225D01*
Y915975D02*
Y981025D01*
X1150170Y938000D02*
X1170170D01*
X1150170Y982000D02*
X1170170D01*
X1150170Y938000D02*
Y982000D01*
X1170170Y938000D02*
Y982000D01*
X1175213Y938000D02*
X1195213D01*
X1175213Y982000D02*
X1195213D01*
X1175213Y938000D02*
Y982000D01*
X1195213Y938000D02*
Y982000D01*
X1125128Y938000D02*
X1145128D01*
X1125128Y982000D02*
X1145128D01*
X1125128Y938000D02*
Y982000D01*
X1145128Y938000D02*
Y982000D01*
X1100085Y938000D02*
X1120085D01*
X1100085Y982000D02*
X1120085D01*
X1100085Y938000D02*
Y982000D01*
X1120085Y938000D02*
Y982000D01*
X1095043Y938000D02*
Y982000D01*
X1075043Y938000D02*
Y982000D01*
X1095043D01*
X1075043Y938000D02*
X1095043D01*
X1070000D02*
Y982000D01*
X1050000Y938000D02*
Y982000D01*
X1070000D01*
X1050000Y938000D02*
X1070000D01*
X957500Y795000D02*
Y855000D01*
X992500D01*
Y795000D02*
Y855000D01*
X957500Y795000D02*
X992500D01*
X1050550Y867550D02*
X1056900Y861200D01*
X1050550Y867550D02*
Y880250D01*
X1056900Y886600D01*
X1069600D01*
X1075950Y880250D01*
Y867550D02*
Y880250D01*
X1069600Y861200D02*
X1075950Y867550D01*
X1050550Y842150D02*
X1056900Y835800D01*
X1050550Y842150D02*
Y854850D01*
X1056900Y861200D01*
X1069600D01*
X1075950Y854850D01*
Y842150D02*
Y854850D01*
X1069600Y835800D02*
X1075950Y842150D01*
X1050550Y816750D02*
X1056900Y810400D01*
X1050550Y816750D02*
Y829450D01*
X1056900Y835800D01*
X1069600D01*
X1075950Y829450D01*
Y816750D02*
Y829450D01*
X1069600Y810400D02*
X1075950Y816750D01*
Y759600D02*
Y785000D01*
X1069600D02*
X1075950Y791350D01*
Y804050D01*
X1069600Y810400D02*
X1075950Y804050D01*
X1056900Y810400D02*
X1069600D01*
X1050550Y804050D02*
X1056900Y810400D01*
X1050550Y791350D02*
Y804050D01*
Y791350D02*
X1056900Y785000D01*
X1050550Y759600D02*
X1075950D01*
X1050550Y785000D02*
X1075950D01*
X1050550Y759600D02*
Y785000D01*
X1331000Y806750D02*
Y821750D01*
X1320500Y806750D02*
X1331000Y806750D01*
X1300000Y806750D02*
X1310500D01*
Y821750D02*
X1320500D01*
X1300000Y806750D02*
Y821750D01*
X1241250Y738500D02*
X1285250D01*
X1241250Y758500D02*
X1285250D01*
Y738500D02*
Y758500D01*
X1241250Y738500D02*
Y758500D01*
X1378250Y776500D02*
Y820500D01*
X1398250Y776500D02*
Y820500D01*
X1378250Y776500D02*
X1398250D01*
X1378250Y820500D02*
X1398250D01*
X1380000Y771458D02*
X1396500D01*
X1380000Y737458D02*
X1396500D01*
Y771458D01*
X1380000Y737458D02*
Y771458D01*
X968000Y740000D02*
X1012000D01*
X968000Y760000D02*
X1012000D01*
Y740000D02*
Y760000D01*
X968000Y740000D02*
Y760000D01*
X1012000Y890000D02*
Y910000D01*
X968000Y890000D02*
Y910000D01*
Y890000D02*
X1012000D01*
X968000Y910000D02*
X1012000D01*
X1301250Y738500D02*
Y758500D01*
X1345250Y738500D02*
Y758500D01*
X1301250D02*
X1345250D01*
X1301250Y738500D02*
X1345250D01*
X1290000Y838000D02*
X1310000D01*
X1290000Y882000D02*
X1310000D01*
X1290000Y838000D02*
Y882000D01*
X1310000Y838000D02*
Y882000D01*
X1382000Y690000D02*
Y710000D01*
X1338000Y690000D02*
Y710000D01*
Y690000D02*
X1382000D01*
X1338000Y710000D02*
X1382000D01*
X1250550Y785400D02*
Y810800D01*
X1275950D01*
X1250550Y785400D02*
X1275950D01*
X1250550Y817150D02*
X1256900Y810800D01*
X1250550Y817150D02*
Y829850D01*
X1256900Y836200D01*
X1269600D01*
X1275950Y829850D01*
Y817150D02*
Y829850D01*
X1269600Y810800D02*
X1275950Y817150D01*
Y785400D02*
Y810800D01*
X1269600Y836200D02*
X1275950Y842550D01*
Y855250D01*
X1269600Y861600D02*
X1275950Y855250D01*
X1256900Y861600D02*
X1269600D01*
X1250550Y855250D02*
X1256900Y861600D01*
X1250550Y842550D02*
Y855250D01*
Y842550D02*
X1256900Y836200D01*
X439000Y443000D02*
X459000D01*
Y493000D01*
X439000D02*
X459000D01*
X439000Y443000D02*
Y493000D01*
X583250Y679250D02*
X599000D01*
X583250Y644750D02*
Y679250D01*
Y644750D02*
X598750D01*
X599000Y645000D01*
Y679250D01*
X730750Y551750D02*
X741250D01*
Y580250D01*
X730750D02*
X741250D01*
X730750Y551750D02*
Y580250D01*
X731750Y513250D02*
X742250D01*
X731750Y484750D02*
Y513250D01*
Y484750D02*
X742250D01*
Y513250D01*
X415000Y433750D02*
Y468000D01*
X415250Y468250D01*
X430750D01*
Y433750D02*
Y468250D01*
X415000Y433750D02*
X430750D01*
X387000D02*
Y468000D01*
X387250Y468250D01*
X402750D01*
Y433750D02*
Y468250D01*
X387000Y433750D02*
X402750D01*
X526000Y645000D02*
Y679250D01*
X525750Y644750D02*
X526000Y645000D01*
X510250Y644750D02*
X525750D01*
X510250D02*
Y679250D01*
X526000D01*
X650000Y645000D02*
Y679250D01*
X649750Y644750D02*
X650000Y645000D01*
X634250Y644750D02*
X649750D01*
X634250D02*
Y679250D01*
X650000D01*
X625000Y645000D02*
Y679250D01*
X624750Y644750D02*
X625000Y645000D01*
X609250Y644750D02*
X624750D01*
X609250D02*
Y679250D01*
X625000D01*
X574000Y645000D02*
Y679250D01*
X573750Y644750D02*
X574000Y645000D01*
X558250Y644750D02*
X573750D01*
X558250D02*
Y679250D01*
X574000D01*
X548000Y645000D02*
Y679250D01*
X547750Y644750D02*
X548000Y645000D01*
X532250Y644750D02*
X547750D01*
X532250D02*
Y679250D01*
X548000D01*
X697000Y645000D02*
Y679250D01*
X696750Y644750D02*
X697000Y645000D01*
X681250Y644750D02*
X696750D01*
X681250D02*
Y679250D01*
X697000D01*
X675000Y645000D02*
Y679250D01*
X674750Y644750D02*
X675000Y645000D01*
X659250Y644750D02*
X674750D01*
X659250D02*
Y679250D01*
X675000D01*
X377000Y326000D02*
Y360250D01*
X376750Y325750D02*
X377000Y326000D01*
X361250Y325750D02*
X376750D01*
X361250D02*
Y360250D01*
X377000D01*
X361000Y362750D02*
Y397000D01*
X361250Y397250D01*
X376750D01*
Y362750D02*
Y397250D01*
X361000Y362750D02*
X376750D01*
X396250Y477750D02*
Y513250D01*
X426750D01*
Y477750D02*
Y513250D01*
X396250Y477750D02*
X426750D01*
X667000Y432750D02*
X682750D01*
Y467250D01*
X667250D02*
X682750D01*
X667000Y467000D02*
X667250Y467250D01*
X667000Y432750D02*
Y467000D01*
D87*
X837000Y1060000D02*
D03*
Y1010000D02*
D03*
Y385000D02*
D03*
Y335000D02*
D03*
D88*
X1113212Y873538D02*
X1121086D01*
X1213288Y865664D02*
Y873538D01*
X1205414Y773462D02*
X1213288D01*
X1113212D02*
X1121086D01*
X1213288D02*
Y781336D01*
X1205414Y873538D02*
X1213288D01*
X1113212Y865664D02*
Y873538D01*
Y773462D02*
Y781336D01*
M02*
